<svg width="100" height="100" viewBox="0 0 100 100" fill="none" xmlns="http://www.w3.org/2000/svg">
<rect width="100" height="100" rx="20" fill="black"/>
<path fill-rule="evenodd" clip-rule="evenodd" d="M46.3745 32.1535H22.0163C21.9743 32.8723 22.0128 33.6017 22.1386 34.3332C23.145 40.1853 29.3588 43.9534 36.0176 42.7495C41.8441 41.6962 46.0806 37.1852 46.3745 32.1535Z" fill="white"/>
<path fill-rule="evenodd" clip-rule="evenodd" d="M54.0163 32C53.9743 32.7188 54.0128 33.4482 54.1386 34.1797C55.145 40.0318 61.3589 43.7999 68.0177 42.596C73.8441 41.5427 78.0806 37.0317 78.3745 32L54.0163 32Z" fill="white"/>
<path fill-rule="evenodd" clip-rule="evenodd" d="M72.6658 65.8144C73.6789 65.0981 75.2121 65.1936 76.0827 66.0314C76.9561 66.8712 76.8348 68.1321 75.8189 68.8528C75.4469 69.1164 66.465 75.3334 49.9973 75.3334C33.5376 75.3334 24.5584 69.1164 24.1811 68.8528C23.1652 68.1321 23.0438 66.8712 23.9172 66.0314C24.7879 65.1958 26.3131 65.0959 27.3289 65.8103C27.5149 65.9356 35.5283 71.334 49.9973 71.334C64.6916 71.334 72.5864 65.8698 72.6658 65.8144Z" fill="white"/>
</svg>
