<svg width="48" height="48" viewBox="0 0 48 48" fill="none" xmlns="http://www.w3.org/2000/svg">
<rect width="48" height="48" rx="24" fill="black"/>
<path fill-rule="evenodd" clip-rule="evenodd" d="M36 35.6967C36 35.8403 35.8548 35.9385 35.7221 35.8837C34.828 35.5145 31.9134 34.3491 28.9961 33.5988H15.8234C14.2638 33.5988 13 32.4254 13 30.9786V15.6195C13 14.1735 14.2638 13 15.8234 13H33.1749C34.7346 13 35.9992 14.1735 35.9992 15.6195L36 35.6967Z" fill="white"/>
<path fill-rule="evenodd" clip-rule="evenodd" d="M16.1336 21.2332C15.417 21.5924 15.0331 21.7849 15.0014 20.9346C14.9434 19.3815 16.7518 18.0688 19.0404 18.0026C21.3291 17.9364 23.2313 19.1418 23.2893 20.695C23.3234 21.6084 22.4804 21.3555 21.3147 21.0056C20.4984 20.7606 19.5238 20.4681 18.5812 20.4954C17.5455 20.5254 16.7259 20.9362 16.1336 21.2332Z" fill="black"/>
<path fill-rule="evenodd" clip-rule="evenodd" d="M32.56 21.2904C33.2766 21.6497 33.6605 21.8421 33.6922 20.9919C33.7502 19.4388 31.9418 18.126 29.6532 18.0599C27.3646 17.9937 25.4623 19.1991 25.4043 20.7522C25.3702 21.6657 26.2132 21.4127 27.3789 21.0629C28.1953 20.8179 29.1698 20.5254 30.1124 20.5526C31.1481 20.5826 31.9677 20.9935 32.56 21.2904Z" fill="black"/>
</svg>
