<svg width="229" height="60" viewBox="0 0 229 60" fill="none" xmlns="http://www.w3.org/2000/svg">
<path d="M78.02 16.16H86L102.5 59H94.46L90.44 47.66H73.34L69.32 59H61.58L78.02 16.16ZM75.38 41.96H88.46L82.04 23.54H81.86L75.38 41.96ZM105.8 16.16H112.64V59H105.8V16.16ZM116.972 27.98H122.132V18.68H128.972V27.98H135.152V33.08H128.972V49.64C128.972 50.36 128.992 50.98 129.032 51.5C129.112 52.02 129.252 52.46 129.452 52.82C129.692 53.18 130.032 53.46 130.472 53.66C130.912 53.82 131.512 53.9 132.272 53.9C132.752 53.9 133.232 53.9 133.712 53.9C134.192 53.86 134.672 53.78 135.152 53.66V58.94C134.392 59.02 133.652 59.1 132.932 59.18C132.212 59.26 131.472 59.3 130.712 59.3C128.912 59.3 127.452 59.14 126.332 58.82C125.252 58.46 124.392 57.96 123.752 57.32C123.152 56.64 122.732 55.8 122.492 54.8C122.292 53.8 122.172 52.66 122.132 51.38V33.08H116.972V27.98ZM166.053 52.1C166.053 52.94 166.153 53.54 166.353 53.9C166.593 54.26 167.033 54.44 167.673 54.44C167.873 54.44 168.113 54.44 168.393 54.44C168.673 54.44 168.993 54.4 169.353 54.32V59.06C169.113 59.14 168.793 59.22 168.393 59.3C168.033 59.42 167.653 59.52 167.253 59.6C166.853 59.68 166.453 59.74 166.053 59.78C165.653 59.82 165.313 59.84 165.033 59.84C163.633 59.84 162.473 59.56 161.553 59C160.633 58.44 160.033 57.46 159.753 56.06C158.393 57.38 156.713 58.34 154.713 58.94C152.753 59.54 150.853 59.84 149.013 59.84C147.613 59.84 146.273 59.64 144.993 59.24C143.713 58.88 142.573 58.34 141.573 57.62C140.613 56.86 139.833 55.92 139.233 54.8C138.673 53.64 138.393 52.3 138.393 50.78C138.393 48.86 138.733 47.3 139.413 46.1C140.133 44.9 141.053 43.96 142.173 43.28C143.333 42.6 144.613 42.12 146.013 41.84C147.453 41.52 148.893 41.28 150.333 41.12C151.573 40.88 152.753 40.72 153.873 40.64C154.993 40.52 155.973 40.34 156.813 40.1C157.693 39.86 158.373 39.5 158.853 39.02C159.373 38.5 159.633 37.74 159.633 36.74C159.633 35.86 159.413 35.14 158.973 34.58C158.573 34.02 158.053 33.6 157.413 33.32C156.813 33 156.133 32.8 155.373 32.72C154.613 32.6 153.893 32.54 153.213 32.54C151.293 32.54 149.713 32.94 148.473 33.74C147.233 34.54 146.533 35.78 146.373 37.46H139.533C139.653 35.46 140.133 33.8 140.973 32.48C141.813 31.16 142.873 30.1 144.153 29.3C145.473 28.5 146.953 27.94 148.593 27.62C150.233 27.3 151.913 27.14 153.633 27.14C155.153 27.14 156.653 27.3 158.133 27.62C159.613 27.94 160.933 28.46 162.093 29.18C163.293 29.9 164.253 30.84 164.973 32C165.693 33.12 166.053 34.5 166.053 36.14V52.1ZM159.213 43.46C158.173 44.14 156.893 44.56 155.373 44.72C153.853 44.84 152.333 45.04 150.813 45.32C150.093 45.44 149.393 45.62 148.713 45.86C148.033 46.06 147.433 46.36 146.913 46.76C146.393 47.12 145.973 47.62 145.653 48.26C145.373 48.86 145.233 49.6 145.233 50.48C145.233 51.24 145.453 51.88 145.893 52.4C146.333 52.92 146.853 53.34 147.453 53.66C148.093 53.94 148.773 54.14 149.493 54.26C150.253 54.38 150.933 54.44 151.533 54.44C152.293 54.44 153.113 54.34 153.993 54.14C154.873 53.94 155.693 53.6 156.453 53.12C157.253 52.64 157.913 52.04 158.433 51.32C158.953 50.56 159.213 49.64 159.213 48.56V43.46ZM173.413 27.98H179.893V32.54L180.013 32.66C181.053 30.94 182.413 29.6 184.093 28.64C185.773 27.64 187.633 27.14 189.673 27.14C193.073 27.14 195.753 28.02 197.713 29.78C199.673 31.54 200.652 34.18 200.652 37.7V59H193.813V39.5C193.733 37.06 193.213 35.3 192.253 34.22C191.293 33.1 189.793 32.54 187.753 32.54C186.593 32.54 185.553 32.76 184.633 33.2C183.713 33.6 182.933 34.18 182.293 34.94C181.653 35.66 181.153 36.52 180.793 37.52C180.433 38.52 180.253 39.58 180.253 40.7V59H173.413V27.98Z" fill="white"/>
<path d="M52.001 59.001C46.389 55.9214 36.8383 53.8936 26 53.8936C15.162 53.8936 5.61202 55.9216 0 59.001L26 13L52.001 59.001Z" fill="white"/>
</svg>
