<svg fill="none" height="166" viewBox="0 0 212 166" width="212" xmlns="http://www.w3.org/2000/svg" xmlns:xlink="http://www.w3.org/1999/xlink"><filter id="a" color-interpolation-filters="sRGB" filterUnits="userSpaceOnUse" height="15.707" width="10.707" x="4.5376" y="73.8206"><feFlood flood-opacity="0" result="BackgroundImageFix"/><feBlend in="SourceGraphic" in2="BackgroundImageFix" mode="normal" result="shape"/><feColorMatrix in="SourceAlpha" result="hardAlpha" type="matrix" values="0 0 0 0 0 0 0 0 0 0 0 0 0 0 0 0 0 0 127 0"/><feOffset dy="-2"/><feGaussianBlur stdDeviation=".5"/><feComposite in2="hardAlpha" k2="-1" k3="1" operator="arithmetic"/><feColorMatrix type="matrix" values="0 0 0 0 0.717647 0 0 0 0 0.113725 0 0 0 0 0.0941176 0 0 0 0.6 0"/><feBlend in2="shape" mode="normal" result="effect1_innerShadow_1262_224180"/><feColorMatrix in="SourceAlpha" result="hardAlpha" type="matrix" values="0 0 0 0 0 0 0 0 0 0 0 0 0 0 0 0 0 0 127 0"/><feOffset dy="-5"/><feGaussianBlur stdDeviation="7"/><feComposite in2="hardAlpha" k2="-1" k3="1" operator="arithmetic"/><feColorMatrix type="matrix" values="0 0 0 0 1 0 0 0 0 0.337255 0 0 0 0 0.188235 0 0 0 0.3 0"/><feBlend in2="effect1_innerShadow_1262_224180" mode="normal" result="effect2_innerShadow_1262_224180"/><feColorMatrix in="SourceAlpha" result="hardAlpha" type="matrix" values="0 0 0 0 0 0 0 0 0 0 0 0 0 0 0 0 0 0 127 0"/><feOffset/><feGaussianBlur stdDeviation="1"/><feComposite in2="hardAlpha" k2="-1" k3="1" operator="arithmetic"/><feColorMatrix type="matrix" values="0 0 0 0 1 0 0 0 0 0.337255 0 0 0 0 0.188235 0 0 0 0.5 0"/><feBlend in2="effect2_innerShadow_1262_224180" mode="normal" result="effect3_innerShadow_1262_224180"/><feColorMatrix in="SourceAlpha" result="hardAlpha" type="matrix" values="0 0 0 0 0 0 0 0 0 0 0 0 0 0 0 0 0 0 127 0"/><feOffset dx="2" dy="2"/><feGaussianBlur stdDeviation="1"/><feComposite in2="hardAlpha" k2="-1" k3="1" operator="arithmetic"/><feColorMatrix type="matrix" values="0 0 0 0 1 0 0 0 0 0.337255 0 0 0 0 0.188235 0 0 0 0.3 0"/><feBlend in2="effect3_innerShadow_1262_224180" mode="normal" result="effect4_innerShadow_1262_224180"/></filter><filter id="b" color-interpolation-filters="sRGB" filterUnits="userSpaceOnUse" height="15.707" width="10.707" x="145.263" y="36.4736"><feFlood flood-opacity="0" result="BackgroundImageFix"/><feBlend in="SourceGraphic" in2="BackgroundImageFix" mode="normal" result="shape"/><feColorMatrix in="SourceAlpha" result="hardAlpha" type="matrix" values="0 0 0 0 0 0 0 0 0 0 0 0 0 0 0 0 0 0 127 0"/><feOffset dy="-2"/><feGaussianBlur stdDeviation=".5"/><feComposite in2="hardAlpha" k2="-1" k3="1" operator="arithmetic"/><feColorMatrix type="matrix" values="0 0 0 0 0.717647 0 0 0 0 0.431373 0 0 0 0 0 0 0 0 0.6 0"/><feBlend in2="shape" mode="normal" result="effect1_innerShadow_1262_224180"/><feColorMatrix in="SourceAlpha" result="hardAlpha" type="matrix" values="0 0 0 0 0 0 0 0 0 0 0 0 0 0 0 0 0 0 127 0"/><feOffset dy="-5"/><feGaussianBlur stdDeviation="7"/><feComposite in2="hardAlpha" k2="-1" k3="1" operator="arithmetic"/><feColorMatrix type="matrix" values="0 0 0 0 1 0 0 0 0 0.670588 0 0 0 0 0 0 0 0 0.3 0"/><feBlend in2="effect1_innerShadow_1262_224180" mode="normal" result="effect2_innerShadow_1262_224180"/><feColorMatrix in="SourceAlpha" result="hardAlpha" type="matrix" values="0 0 0 0 0 0 0 0 0 0 0 0 0 0 0 0 0 0 127 0"/><feOffset/><feGaussianBlur stdDeviation="1"/><feComposite in2="hardAlpha" k2="-1" k3="1" operator="arithmetic"/><feColorMatrix type="matrix" values="0 0 0 0 1 0 0 0 0 0.670588 0 0 0 0 0 0 0 0 0.5 0"/><feBlend in2="effect2_innerShadow_1262_224180" mode="normal" result="effect3_innerShadow_1262_224180"/><feColorMatrix in="SourceAlpha" result="hardAlpha" type="matrix" values="0 0 0 0 0 0 0 0 0 0 0 0 0 0 0 0 0 0 127 0"/><feOffset dx="2" dy="2"/><feGaussianBlur stdDeviation="1"/><feComposite in2="hardAlpha" k2="-1" k3="1" operator="arithmetic"/><feColorMatrix type="matrix" values="0 0 0 0 1 0 0 0 0 0.670588 0 0 0 0 0 0 0 0 0.3 0"/><feBlend in2="effect3_innerShadow_1262_224180" mode="normal" result="effect4_innerShadow_1262_224180"/></filter><filter id="c" color-interpolation-filters="sRGB" filterUnits="userSpaceOnUse" height="15.707" width="10.707" x="95.7896" y="152.263"><feFlood flood-opacity="0" result="BackgroundImageFix"/><feBlend in="SourceGraphic" in2="BackgroundImageFix" mode="normal" result="shape"/><feColorMatrix in="SourceAlpha" result="hardAlpha" type="matrix" values="0 0 0 0 0 0 0 0 0 0 0 0 0 0 0 0 0 0 127 0"/><feOffset dy="-2"/><feGaussianBlur stdDeviation=".5"/><feComposite in2="hardAlpha" k2="-1" k3="1" operator="arithmetic"/><feColorMatrix type="matrix" values="0 0 0 0 0.0117647 0 0 0 0 0.317647 0 0 0 0 0.670588 0 0 0 0.6 0"/><feBlend in2="shape" mode="normal" result="effect1_innerShadow_1262_224180"/><feColorMatrix in="SourceAlpha" result="hardAlpha" type="matrix" values="0 0 0 0 0 0 0 0 0 0 0 0 0 0 0 0 0 0 127 0"/><feOffset dy="-5"/><feGaussianBlur stdDeviation="7"/><feComposite in2="hardAlpha" k2="-1" k3="1" operator="arithmetic"/><feColorMatrix type="matrix" values="0 0 0 0 0.407843 0 0 0 0 0.803922 0 0 0 0 0.976471 0 0 0 0.3 0"/><feBlend in2="effect1_innerShadow_1262_224180" mode="normal" result="effect2_innerShadow_1262_224180"/><feColorMatrix in="SourceAlpha" result="hardAlpha" type="matrix" values="0 0 0 0 0 0 0 0 0 0 0 0 0 0 0 0 0 0 127 0"/><feOffset/><feGaussianBlur stdDeviation="1"/><feComposite in2="hardAlpha" k2="-1" k3="1" operator="arithmetic"/><feColorMatrix type="matrix" values="0 0 0 0 0.407843 0 0 0 0 0.803922 0 0 0 0 0.976471 0 0 0 0.5 0"/><feBlend in2="effect2_innerShadow_1262_224180" mode="normal" result="effect3_innerShadow_1262_224180"/><feColorMatrix in="SourceAlpha" result="hardAlpha" type="matrix" values="0 0 0 0 0 0 0 0 0 0 0 0 0 0 0 0 0 0 127 0"/><feOffset dx="2" dy="2"/><feGaussianBlur stdDeviation="1"/><feComposite in2="hardAlpha" k2="-1" k3="1" operator="arithmetic"/><feColorMatrix type="matrix" values="0 0 0 0 0.407843 0 0 0 0 0.803922 0 0 0 0 0.976471 0 0 0 0.3 0"/><feBlend in2="effect3_innerShadow_1262_224180" mode="normal" result="effect4_innerShadow_1262_224180"/></filter><filter id="d" color-interpolation-filters="sRGB" filterUnits="userSpaceOnUse" height="90.5264" width="98.9473" x="6.73682" y="0"><feFlood flood-opacity="0" result="BackgroundImageFix"/><feColorMatrix in="SourceAlpha" result="hardAlpha" type="matrix" values="0 0 0 0 0 0 0 0 0 0 0 0 0 0 0 0 0 0 127 0"/><feOffset dx="-8" dy="8"/><feGaussianBlur stdDeviation="10"/><feComposite in2="hardAlpha" operator="out"/><feColorMatrix type="matrix" values="0 0 0 0 0.270588 0 0 0 0 0.309804 0 0 0 0 0.356863 0 0 0 0.12 0"/><feBlend in2="BackgroundImageFix" mode="normal" result="effect1_dropShadow_1262_224180"/><feBlend in="SourceGraphic" in2="effect1_dropShadow_1262_224180" mode="normal" result="shape"/><feColorMatrix in="SourceAlpha" result="hardAlpha" type="matrix" values="0 0 0 0 0 0 0 0 0 0 0 0 0 0 0 0 0 0 127 0"/><feOffset dx="1" dy="-3"/><feComposite in2="hardAlpha" k2="-1" k3="1" operator="arithmetic"/><feColorMatrix type="matrix" values="0 0 0 0 0.270588 0 0 0 0 0.309804 0 0 0 0 0.356863 0 0 0 0.12 0"/><feBlend in2="shape" mode="normal" result="effect2_innerShadow_1262_224180"/></filter><filter id="e" color-interpolation-filters="sRGB" filterUnits="userSpaceOnUse" height="15.7368" width="12.6313" x="42.1055" y="15.2104"><feFlood flood-opacity="0" result="BackgroundImageFix"/><feBlend in="SourceGraphic" in2="BackgroundImageFix" mode="normal" result="shape"/><feColorMatrix in="SourceAlpha" result="hardAlpha" type="matrix" values="0 0 0 0 0 0 0 0 0 0 0 0 0 0 0 0 0 0 127 0"/><feOffset dy="-1.5"/><feGaussianBlur stdDeviation=".5"/><feComposite in2="hardAlpha" k2="-1" k3="1" operator="arithmetic"/><feColorMatrix type="matrix" values="0 0 0 0 0 0 0 0 0 0 0 0 0 0 0 0 0 0 0.08 0"/><feBlend in2="shape" mode="normal" result="effect1_innerShadow_1262_224180"/></filter><filter id="f" color-interpolation-filters="sRGB" filterUnits="userSpaceOnUse" height="80" width="90.5264" x="121.474" y="82.1052"><feFlood flood-opacity="0" result="BackgroundImageFix"/><feColorMatrix in="SourceAlpha" result="hardAlpha" type="matrix" values="0 0 0 0 0 0 0 0 0 0 0 0 0 0 0 0 0 0 127 0"/><feOffset dx="-8" dy="8"/><feGaussianBlur stdDeviation="10"/><feComposite in2="hardAlpha" operator="out"/><feColorMatrix type="matrix" values="0 0 0 0 0.270588 0 0 0 0 0.309804 0 0 0 0 0.356863 0 0 0 0.12 0"/><feBlend in2="BackgroundImageFix" mode="normal" result="effect1_dropShadow_1262_224180"/><feBlend in="SourceGraphic" in2="effect1_dropShadow_1262_224180" mode="normal" result="shape"/><feColorMatrix in="SourceAlpha" result="hardAlpha" type="matrix" values="0 0 0 0 0 0 0 0 0 0 0 0 0 0 0 0 0 0 127 0"/><feOffset dx="1" dy="-3"/><feComposite in2="hardAlpha" k2="-1" k3="1" operator="arithmetic"/><feColorMatrix type="matrix" values="0 0 0 0 0.270588 0 0 0 0 0.309804 0 0 0 0 0.356863 0 0 0 0.12 0"/><feBlend in2="shape" mode="normal" result="effect2_innerShadow_1262_224180"/></filter><filter id="g" color-interpolation-filters="sRGB" filterUnits="userSpaceOnUse" height="11.5264" width="9.47412" x="156.842" y="98.3682"><feFlood flood-opacity="0" result="BackgroundImageFix"/><feBlend in="SourceGraphic" in2="BackgroundImageFix" mode="normal" result="shape"/><feColorMatrix in="SourceAlpha" result="hardAlpha" type="matrix" values="0 0 0 0 0 0 0 0 0 0 0 0 0 0 0 0 0 0 127 0"/><feOffset dy="-1"/><feGaussianBlur stdDeviation=".5"/><feComposite in2="hardAlpha" k2="-1" k3="1" operator="arithmetic"/><feColorMatrix type="matrix" values="0 0 0 0 0 0 0 0 0 0 0 0 0 0 0 0 0 0 0.08 0"/><feBlend in2="shape" mode="normal" result="effect1_innerShadow_1262_224180"/></filter><filter id="h" color-interpolation-filters="sRGB" filterUnits="userSpaceOnUse" height="63.158" width="67.3687" x="48.8423" y="85.2632"><feFlood flood-opacity="0" result="BackgroundImageFix"/><feColorMatrix in="SourceAlpha" result="hardAlpha" type="matrix" values="0 0 0 0 0 0 0 0 0 0 0 0 0 0 0 0 0 0 127 0"/><feOffset dx="-8" dy="8"/><feGaussianBlur stdDeviation="10"/><feComposite in2="hardAlpha" operator="out"/><feColorMatrix type="matrix" values="0 0 0 0 0.270588 0 0 0 0 0.309804 0 0 0 0 0.356863 0 0 0 0.12 0"/><feBlend in2="BackgroundImageFix" mode="normal" result="effect1_dropShadow_1262_224180"/><feBlend in="SourceGraphic" in2="effect1_dropShadow_1262_224180" mode="normal" result="shape"/><feColorMatrix in="SourceAlpha" result="hardAlpha" type="matrix" values="0 0 0 0 0 0 0 0 0 0 0 0 0 0 0 0 0 0 127 0"/><feOffset dx="1" dy="-2"/><feComposite in2="hardAlpha" k2="-1" k3="1" operator="arithmetic"/><feColorMatrix type="matrix" values="0 0 0 0 0.270588 0 0 0 0 0.309804 0 0 0 0 0.356863 0 0 0 0.12 0"/><feBlend in2="shape" mode="normal" result="effect2_innerShadow_1262_224180"/></filter><mask id="i" fill="#fff"><path d="m113.665 164.375c-23.4793 0-44.6965-16.288-49.9712-40.14-4.8832-22.08 9.1078-44.0164 31.1882-48.8996 8.512-1.8826 17.424-.3065 24.774 4.3815 7.351 4.688 12.538 12.1039 14.42 20.6161 3.126 14.211-5.841 28.271-20.045 31.43-9.708 2.107-19.5804-2.789-23.7774-11.793-.0471-.101-.0365-.219.0277-.31.0643-.091.1724-.141.2833-.131.111.011.2079.08.254.181 4.0733 8.739 13.6554 13.491 23.0774 11.445 13.869-3.083 22.625-16.812 19.573-30.688-3.846-17.3903-21.062-28.3703-38.4528-24.5243-21.7646 4.8392-35.5051 26.3833-30.7152 48.1583 6.0207 27.224 33.0662 44.474 60.291 38.453 18.206-4.014 33.711-15.862 42.367-32.374.052-.099.152-.162.263-.167.111-.004.217.051.276.145s.064.213.012.311c-8.741 16.675-24.399 28.639-42.784 32.692-3.632.806-7.341 1.213-11.061 1.214z" fill="#fff"/><path d="m174.172 94.3697c-.159 0-.292-.12-.309-.2779-.253-2.3506-.635-4.6854-1.146-6.9939-8.121-36.7235-41.265-62.8489-78.8092-62.0853-.1717.0034-.3137-.1331-.3172-.3048-.0033-.1717.1331-.3137.3048-.3172 37.9946-.7055 71.2206 25.4691 79.4296 62.5731.515 2.3309.901 4.6884 1.157 7.0619.009.082-.016.1641-.067.2283-.052.0642-.127.1052-.209.114-.011.0018-.023.0018-.034.0018z" fill="#fff"/><path d="m2.6715 145.369c-.14577 0-.27186-.102-.3033-.244-7.97542-35.939 4.5244-73.3464 32.5035-97.271.0842-.0731.2012-.0955.3065-.0586.1053.0368.1828.1272.2031.2369s-.0197.2219-.1048.294c-27.80474 23.7753-40.22672 60.9497-32.30109 96.6647.02045.092-.00204.188-.06115.262-.05911.073-.14842.116-.24276.116z" fill="#fff"/></mask><path d="m113.665 164.375v.5zm-49.9712-40.14.4882-.108zm31.1882-48.8996.1079.4882zm24.774 4.3815-.269.4215zm14.42 20.6161.488-.107v-.001zm-20.045 31.43.106.488h.002zm-23.7774-11.793-.4532.211v.001zm.0277-.31.4086.288zm.2833-.131-.0469.498zm.254.181-.4553.207.0021.005zm23.0774 11.445.106.489.003-.001zm19.573-30.688.488-.107v-.001zm-38.4528-24.5243-.108-.4882-.0005.0002zm-30.7152 48.1583-.4883.108h.0001zm60.291 38.453-.108-.488zm42.367-32.374.443.232zm.263-.167.02.5zm.276.145-.423.267zm.012.311-.442-.233-.001.001zm-42.784 32.692-.108-.488zm49.137-69.0692.497-.0533v-.0002zm-1.146-6.9939.489-.1079v-.0001zm-78.8092-62.0853.0099.4999h.0003zm-.3172-.3048-.4999.0098v.0004zm.3048-.3172-.0093-.4999h-.0008zm79.4296 62.5731.488-.108zm1.157 7.0619.497-.0532v-.0003zm-.067.2283.389.3139zm-.209.114-.053-.4972-.014.0015-.014.0022zm-171.8378 50.7571.48823-.108h-.00011zm32.5035-97.271.3249.3801.0028-.0024zm.3065-.0586-.1651.4719zm.2031.2369-.4917.091zm-.1048.294-.3232-.3816-.0018.0015zm-32.30109 96.6647-.48813.108h.00002zm-.06115.262.38971.313zm110.75074 18.622c-.319 0-.637-.003-.954-.009l-.019 1c.324.006.648.009.973.009zm-4.755-.226c-.633-.06-1.264-.132-1.892-.216l-.132.991c.64.086 1.283.159 1.929.221zm-5.645-.862c-.622-.132-1.241-.275-1.856-.429l-.243.97c.627.157 1.258.303 1.892.437zm-5.5121-1.495c-.6029-.201-1.2015-.412-1.7955-.635l-.3511.936c.6057.227 1.2161.443 1.8308.648zm-5.3091-2.105c-.5764-.266-1.1476-.544-1.7132-.832l-.4536.891c.5767.294 1.1591.577 1.7468.849zm-5.0408-2.685c-.5429-.329-1.0796-.669-1.6098-1.018l-.5502.835c.5406.356 1.0878.702 1.6413 1.038zm-4.71-3.23c-.5026-.388-.998-.785-1.4861-1.192l-.6399.769c.4976.414 1.0028.819 1.5152 1.214zm-4.3197-3.736c-.4559-.442-.9038-.892-1.3435-1.35l-.7219.692c.4483.467.905.926 1.3698 1.376zm-3.8738-4.197c-.4031-.49-.7976-.987-1.183-1.493l-.7953.606c.3931.516.7953 1.023 1.2065 1.523zm-3.3752-4.606c-.3449-.532-.6804-1.071-1.0062-1.617l-.8588.513c.3323.557.6744 1.106 1.0262 1.648zm-2.8314-4.959c-.2822-.566-.5545-1.14-.8164-1.72l-.9114.411c.2671.592.5448 1.177.8327 1.755zm-2.2515-5.249c-.216-.595-.4215-1.195-.6163-1.801l-.9521.305c.1987.619.4082 1.231.6285 1.837zm-1.6445-5.467c-.0743-.309-.146-.619-.2149-.931l-.9764.216c.0703.318.1433.634.2191.949zm-.2149-.931c-.0698-.315-.1357-.631-.1977-.946l-.9812.193c.0635.323.131.646.2025.969zm-.7616-4.759c-.064-.642-.1124-1.283-.1454-1.922l-.9986.052c.0338.655.0833 1.311.1489 1.969zm-.1594-5.776c.0286-.644.0726-1.285.1317-1.923l-.9957-.092c-.0606.654-.1057 1.311-.135 1.971zm.6709-5.739c.1205-.632.2559-1.261.4059-1.885l-.9722-.233c-.1538.639-.2926 1.283-.4161 1.931zm1.485-5.585c.2093-.608.4329-1.211.6703-1.808l-.9291-.37c-.2433.612-.4723 1.229-.6868 1.853zm2.2637-5.3182c.2932-.5723.5997-1.1374.9193-1.6949l-.8675-.4973c-.3275.5711-.6415 1.15-.9418 1.7363zm2.9924-4.9453c.3707-.5249.7539-1.0411 1.1492-1.5483l-.7887-.6147c-.405.5195-.7975 1.0484-1.1773 1.5861zm3.6603-4.4733c.4409-.4669.8931-.9238 1.3565-1.3701l-.6937-.7202c-.4748.4573-.9382.9253-1.3899 1.4037zm4.2569-3.909c.5023-.3991 1.0149-.7869 1.5376-1.1628l-.584-.8118c-.5356.3853-1.0609.7826-1.5757 1.1916zm4.7706-3.2609c.5536-.3227 1.1164-.6329 1.6881-.9303l-.4615-.8872c-.5859.3048-1.1627.6228-1.7302.9535zm5.1884-2.5427c.5935-.2396 1.1949-.466 1.804-.6787l-.3297-.9441c-.6241.218-1.2405.45-1.8487.6955zm5.499-1.7751c.3122-.0768.6261-.1501.9417-.2199l-.2159-.9764c-.3233.0715-.6448.1466-.9647.2252zm.9417-.2199c.3455-.0764.6915-.147 1.0382-.2119l-.1839-.9829c-.3574.0668-.7141.1396-1.0702.2184zm5.2421-.7167c.707-.0382 1.413-.0531 2.118-.0451l.011-.9999c-.727-.0083-1.455.0071-2.183.0465zm6.34.2802c.699.1002 1.395.2232 2.086.3689l.206-.9785c-.712-.1501-1.43-.277-2.15-.3803zm6.163 1.5114c.665.2343 1.324.4906 1.974.7687l.393-.9194c-.67-.2868-1.349-.551-2.035-.7925zm5.75 2.6849c.303.1798.604.3648.902.555l.538-.8431c-.307-.1961-.618-.3868-.93-.5722zm.902.555c.299.1903.593.3851.884.5843l.565-.8251c-.3-.2054-.603-.4062-.911-.6023zm4.214 3.2001c.526.4725 1.036.9613 1.529 1.4657l.715-.699c-.508-.5199-1.033-1.0239-1.576-1.5109zm4.285 4.681c.423.5652.828 1.1441 1.214 1.7358l.837-.546c-.397-.61-.815-1.2068-1.251-1.7895zm3.289 5.4268c.305.636.589 1.2827.852 1.9393l.928-.3721c-.271-.6769-.564-1.3436-.878-1.9993zm2.167 5.9642c.088.3417.169.6855.246 1.0305l.976-.216c-.078-.3559-.163-.71-.253-1.0622zm.246 1.0305c.069.316.133.633.19.949l.984-.178c-.059-.329-.125-.658-.198-.986zm.598 4.792c.019.648.015 1.292-.013 1.933l.999.044c.029-.665.034-1.335.013-2.008zm-.474 5.769c-.125.634-.274 1.262-.446 1.881l.964.267c.178-.644.333-1.296.463-1.954zm-1.751 5.518c-.262.59-.547 1.169-.852 1.736l.881.474c.317-.589.612-1.191.885-1.803zm-2.93 4.995c-.386.516-.791 1.017-1.215 1.504l.755.657c.44-.506.86-1.027 1.261-1.563zm-3.962 4.221c-.49.417-.996.816-1.518 1.197l.589.808c.542-.395 1.068-.81 1.577-1.243zm-4.802 3.233c-.569.296-1.152.572-1.747.827l.393.919c.619-.265 1.224-.552 1.815-.859zm-5.403 2.078c-.311.081-.625.157-.942.228l.217.976c.329-.073.654-.152.977-.236zm-.939.227c-.306.066-.611.125-.917.178l.169.985c.32-.054.64-.116.96-.186zm-4.632.473c-.625-.006-1.246-.041-1.862-.104l-.101.995c.646.066 1.297.102 1.952.109zm-5.521-.812c-.599-.172-1.188-.372-1.767-.597l-.363.932c.607.236 1.225.445 1.852.626zm-5.1066-2.253c-.5297-.325-1.0452-.673-1.5449-1.045l-.597.802c.5237.39 1.0641.755 1.6192 1.096zm-4.3226-3.53c-.4227-.453-.8265-.926-1.2099-1.419l-.7896.613c.402.518.8254 1.014 1.2684 1.489zm-3.223-4.556c-.1433-.275-.2811-.554-.4131-.837l-.9063.423c.1383.296.2826.588.4327.876zm-.413-.837c.0046.01.0084.02.0112.031l-.9661.258c.0122.046.0283.09.0485.133zm-.0003.16c-.0047.01-.0102.02-.0166.029l-.8172-.577c-.0275.039-.0513.08-.0712.123zm-.0166.029c-.0064.009-.0135.017-.0213.025l-.7043-.71c-.0334.033-.064.069-.0916.108zm-.1392.079c-.011.001-.022.001-.033 0l.0939-.995c-.0476-.005-.095-.005-.1418-.001zm-.033 0c-.011-.001-.0219-.003-.0325-.006l.2658-.964c-.0453-.012-.0919-.021-.1394-.025zm-.1382-.081c-.0062-.009-.0116-.019-.0162-.029l.9105-.413c-.0197-.044-.0431-.085-.0697-.124zm-.0141-.024c.1343.288.2744.572.4203.851l.8866-.462c-.139-.267-.2725-.537-.4005-.812zm2.4697 4.045c.3904.502.8016.984 1.232 1.445l.731-.682c-.4099-.439-.8015-.898-1.1734-1.377zm4.0601 3.975c.5087.378 1.0335.733 1.5727 1.064l.5227-.852c-.5138-.315-1.0138-.654-1.4984-1.014zm4.9718 2.75c.589.229 1.19.432 1.799.608l.277-.961c-.58-.168-1.152-.361-1.714-.579zm5.524 1.328c.628.064 1.26.099 1.896.106l.011-1c-.606-.006-1.209-.04-1.806-.101zm5.679-.195c.311-.053.622-.114.932-.181l-.212-.977c-.296.064-.592.121-.888.172zm.935-.182c.321-.071.639-.148.955-.23l-.253-.968c-.304.079-.61.154-.919.222zm4.663-1.5c.605-.259 1.196-.539 1.773-.839l-.461-.887c-.555.289-1.124.558-1.705.807zm5.106-2.905c.53-.386 1.044-.791 1.541-1.214l-.648-.762c-.478.407-.972.797-1.482 1.168zm4.328-3.971c.43-.494.841-1.003 1.232-1.526l-.801-.599c-.376.504-.772.993-1.185 1.468zm3.34-4.831c.31-.576.598-1.163.865-1.761l-.914-.407c-.256.575-.534 1.14-.831 1.694zm2.189-5.451c.174-.629.325-1.266.452-1.909l-.982-.194c-.122.619-.267 1.231-.434 1.836zm.919-5.802c.029-.65.034-1.304.013-1.962l-.999.031c.019.632.015 1.261-.013 1.886zm-.399-5.86c-.059-.321-.123-.642-.194-.963l-.977.215c.069.309.131.618.187.927zm-.194-.964c-.078-.35-.16-.6985-.249-1.0441l-.969.2473c.086.3352.166.6728.242 1.0128zm-1.575-5.1167c-.266-.6671-.553-1.3218-.86-1.9636l-.902.4313c.297.622.575 1.2567.834 1.9033zm-2.959-5.6986c-.391-.6005-.801-1.1861-1.229-1.7562l-.8.6002c.415.5526.812 1.1202 1.192 1.7022zm-4.019-5.0069c-.501-.5112-1.018-1.0053-1.549-1.4815l-.668.7448c.516.4618 1.017.9408 1.502 1.4364zm-4.919-4.1262c-.59-.4036-1.193-.7879-1.807-1.1523l-.51.8601c.596.3534 1.18.7261 1.752 1.1174zm-5.626-3.0929c-.656-.2812-1.322-.5413-1.997-.7796l-.333.9428c.654.2311 1.3.4833 1.936.7559zm-6.121-1.9391c-.697-.1474-1.401-.2724-2.111-.3742l-.142.9899c.688.0987 1.37.2198 2.046.3627zm-6.382-.7018c-.712-.0075-1.426.0082-2.144.0479l.055.9985c.696-.0385 1.389-.0537 2.078-.0464zm-6.3958.5628c-.3505.0657-.7012.1374-1.052.2149l.216.9764c.3402-.0752.6804-.1447 1.0204-.2085zm-1.0525.2151c-.3184.0707-.635.145-.9499.2228l.2398.9709c.3074-.076.6164-.1485.9271-.2176zm-4.6777 1.332c-.6147.2149-1.2216.4437-1.8206.6856l.3747.9272c.5842-.236 1.1763-.4592 1.776-.6689zm-5.3536 2.3136c-.5772.3001-1.1453.6133-1.7043.9389l.5034.864c.5452-.3176 1.0994-.623 1.6623-.9158zm-4.9683 3.056c-.5276.3793-1.0452.7705-1.5523 1.1732l.6218.7831c.4947-.3927.9995-.7743 1.5142-1.1443zm-4.4805 3.7347c-.4678.4503-.9243.9112-1.3694 1.3823l.7269.6867c.4342-.4596.8796-.9092 1.336-1.3485zm-3.904 4.3335c-.399.5117-.7857 1.0326-1.1598 1.5622l.8168.5769c.365-.5167.7423-1.025 1.1316-1.5242zm-3.2517 4.8421c-.3225.5625-.6317 1.1328-.9274 1.7104l.8901.4557c.2885-.5635.5902-1.1199.9049-1.6688zm-2.5346 5.2534c-.2395.602-.4649 1.21-.6759 1.824l.9457.325c.2059-.599.4258-1.192.6594-1.78zm-1.7638 5.56c-.1513.629-.2878 1.263-.4092 1.902l.9824.187c.1184-.623.2516-1.242.3991-1.856zm-.9525 5.754c-.0596.644-.1039 1.291-.1327 1.941l.999.045c.0281-.634.0714-1.266.1295-1.894zm-.119 5.831c.0332.646.0817 1.292.146 1.94l.9951-.098c-.0627-.633-.1101-1.264-.1424-1.893zm.7123 5.788c.0622.319.1284.637.1984.956l.9767-.215c-.0684-.311-.133-.622-.1937-.933zm.1985.956c.0745.337.1521.672.2328 1.005l.9719-.235c-.0792-.327-.1553-.656-.2282-.986zm1.3584 4.956c.215.655.4424 1.302.6819 1.942l.9367-.35c-.2349-.628-.4578-1.262-.6686-1.904zm2.2776 5.732c.2921.622.596 1.237.9114 1.843l.8871-.462c-.3091-.594-.6071-1.196-.8934-1.806zm2.9556 5.411c.3654.581.742 1.155 1.1293 1.719l.8244-.566c-.3796-.553-.7487-1.115-1.1069-1.685zm3.5912 5.012c.4328.533.8758 1.056 1.3286 1.569l.75-.661c-.444-.504-.8782-1.017-1.3025-1.539zm4.1701 4.541c.4936.476.9964.943 1.508 1.398l.665-.747c-.5016-.446-.9946-.903-1.4785-1.37zm4.6852 4.007c.5468.414 1.1017.817 1.6643 1.208l.5709-.821c-.5517-.384-1.0958-.779-1.6319-1.184zm5.1307 3.419c.592.345 1.191.678 1.7966 1l.4688-.884c-.5938-.315-1.1812-.642-1.7617-.98zm5.5024 2.78c.6288.272 1.2635.531 1.9035.778l.3596-.933c-.6276-.242-1.2498-.496-1.8664-.763zm5.7966 2.101c.6565.194 1.3174.376 1.9834.543l.244-.969c-.652-.165-1.3-.342-1.9439-.533zm6.0074 1.387c.675.113 1.353.213 2.035.299l.125-.992c-.668-.084-1.333-.182-1.995-.293zm6.132.648c.683.03 1.368.047 2.055.05l.004-1c-.674-.003-1.345-.019-2.015-.049zm6.164-.102c.682-.053 1.365-.119 2.049-.2l-.118-.993c-.67.079-1.34.144-2.008.196zm6.106-.846c.337-.067.673-.138 1.01-.213l-.216-.976c-.33.073-.66.142-.99.209zm1.009-.213c.335-.073.669-.15 1.003-.229l-.231-.973c-.328.078-.657.153-.987.226zm4.967-1.306c.656-.201 1.307-.413 1.955-.634l-.324-.946c-.637.218-1.279.426-1.924.624zm5.797-2.09c.633-.264 1.261-.537 1.884-.82l-.414-.91c-.613.278-1.231.547-1.854.807zm5.568-2.64c.604-.324 1.203-.656 1.796-.999l-.5-.866c-.584.337-1.173.665-1.768.983zm5.286-3.166c.57-.38 1.134-.77 1.691-1.168l-.581-.813c-.549.391-1.104.774-1.665 1.148zm4.956-3.662c.53-.433 1.054-.875 1.57-1.325l-.657-.754c-.508.443-1.024.878-1.546 1.304zm4.579-4.124c.486-.482.964-.972 1.435-1.47l-.727-.687c-.463.49-.934.973-1.413 1.447zm4.159-4.546c.437-.527.866-1.061 1.286-1.602l-.79-.614c-.414.533-.836 1.059-1.266 1.577zm3.7-4.928c.384-.566.759-1.139 1.125-1.719l-.845-.534c-.361.571-.73 1.135-1.108 1.692zm3.206-5.261c.164-.301.326-.603.485-.907l-.886-.464c-.156.299-.315.596-.477.892zm.485-.907c-.005.009-.011.019-.017.027l-.793-.61c-.028.037-.054.077-.076.12zm-.127.097c-.011.002-.021.003-.033.004l-.04-.999c-.048.002-.095.008-.14.018zm-.033.004c-.011 0-.022 0-.032-.002l.133-.991c-.046-.006-.093-.008-.141-.006zm-.147-.062c-.007-.008-.014-.017-.02-.026l.846-.533c-.025-.041-.054-.078-.086-.113zm-.02-.026c-.006-.01-.011-.019-.015-.03l.926-.378c-.018-.043-.04-.085-.065-.125zm-.02-.159c.003-.01.008-.021.013-.03l.884.467c.022-.042.04-.086.055-.13zm.012-.029c-.158.302-.319.603-.482.902l.878.478c.166-.304.329-.609.49-.915zm-2.551 4.423c-.364.576-.737 1.146-1.118 1.709l.828.561c.387-.572.766-1.151 1.136-1.736zm-3.518 5.014c-.418.538-.844 1.069-1.278 1.593l.769.638c.442-.531.874-1.071 1.299-1.618zm-3.986 4.65c-.468.496-.944.983-1.427 1.462l.705.71c.49-.487.974-.982 1.449-1.485zm-4.417 4.244c-.514.447-1.034.887-1.561 1.317l.632.775c.536-.438 1.064-.884 1.586-1.338zm-4.807 3.797c-.554.396-1.114.782-1.681 1.16l.555.832c.576-.384 1.145-.776 1.707-1.178zm-5.15 3.315c-.59.34-1.185.671-1.786.992l.472.882c.61-.326 1.215-.662 1.814-1.008zm-5.447 2.802c-.619.281-1.244.553-1.873.815l.384.923c.64-.266 1.274-.542 1.903-.828zm-5.693 2.262c-.643.22-1.29.43-1.942.63l.293.956c.662-.203 1.32-.416 1.973-.64zm-5.883 1.701c-.332.079-.664.155-.997.228l.216.977c.338-.075.675-.152 1.012-.232zm-.997.228c-.3.067-.6.13-.9.191l.199.98c.306-.062.612-.127.917-.194zm-4.53.791c-.609.078-1.219.145-1.829.201l.09.995c.623-.056 1.245-.125 1.866-.204zm-5.503.402c-.307.006-.614.009-.92.009v1c.313 0 .625-.003.938-.009zm59.587-69.9963c.015 0 .031.0019.046.0057l-.242.9703c.063.0158.129.024.196.024zm.178.1243c.005.0145.009.0295.01.0445l-.994.1067c.007.0664.022.1307.045.1918zm.01.0443c-.042-.3947-.088-.7891-.138-1.1829l-.992.1253c.049.3877.094.776.136 1.1646zm-.908-5.8831c-.079-.3891-.161-.7776-.246-1.1652l-.977.2158c.085.3817.165.7642.243 1.1473zm-.246-1.1653c-.074-.3307-.149-.6606-.226-.9896l-.974.2283c.077.3249.151.6507.223.9773zm-1.25-4.9064c-.188-.6487-.383-1.2936-.586-1.9348l-.953.3019c.2.6331.393 1.2699.578 1.9104zm-1.907-5.7631c-.237-.6332-.481-1.2623-.733-1.8872l-.927.374c.248.617.49 1.2382.724 1.8635zm-2.342-5.6008c-.285-.6133-.577-1.2222-.876-1.8264l-.896.444c.295.5966.584 1.1978.865 1.8034zm-2.766-5.4064c-.33-.5891-.668-1.1734-1.012-1.7527l-.86.5112c.341.572.674 1.149 1 1.7307zm-3.17-5.1783c-.374-.5618-.755-1.1185-1.143-1.6698l-.818.5752c.383.5444.759 1.0941 1.129 1.6489zm-3.555-4.9214c-.415-.5318-.838-1.058-1.266-1.5785l-.772.6356c.423.5141.84 1.0337 1.251 1.5588zm-3.918-4.6374c-.455-.4988-.916-.9917-1.383-1.4785l-.721.6923c.461.4807.916.9675 1.365 1.4601zm-4.257-4.328c-.492-.4629-.989-.9195-1.491-1.3697l-.667.7448c.496.4446.987.8955 1.472 1.3526zm-4.573-3.9942c-.524-.4244-1.054-.8422-1.589-1.2533l-.609.793c.528.406 1.051.8186 1.569 1.2377zm-4.86-3.6378c-.555-.3836-1.115-.7603-1.68-1.1298l-.547.8367c.557.365 1.11.7369 1.658 1.1157zm-5.122-3.2605c-.582-.3405-1.169-.6737-1.76-.9996l-.483.8757c.584.3219 1.164.6509 1.739.9872zm-5.353-2.8635c-.607-.2952-1.217-.5829-1.831-.8629l-.415.9098c.606.2766 1.209.5606 1.808.8522zm-5.557-2.4483c-.626-.2481-1.257-.4884-1.89-.7208l-.345.9389c.626.2295 1.249.4667 1.867.7117zm-5.726-2.0169c-.644-.1994-1.291-.3908-1.941-.574l-.271.9625c.642.1809 1.281.3699 1.916.5668zm-5.864-1.5719c-.658-.1495-1.318-.2906-1.981-.4235l-.196.9806c.654.1311 1.306.2705 1.955.418zm-5.969-1.1163c-.666-.0983-1.335-.1881-2.006-.2695l-.121.9928c.663.0803 1.323.169 1.982.266zm-6.038-.6533c-.671-.0465-1.3438-.0845-2.0184-.114l-.0436.9991c.666.0291 1.33.0666 1.993.1125zm-6.0664-.1869c-.338.0026-.6763.0073-1.0149.0142l.0203.9998c.3344-.0068.6685-.0115 1.0021-.014zm-1.0147.0142c.0162-.0003.0326.0015.0487.0054l-.239.9711c.0678.0166.1383.0247.2101.0233zm.1852.1366c.0046.0159.0071.0322.0074.0483l-.9998.0204c.0015.0718.0124.142.0318.209zm.0074.0487c.0004.0161-.0015.0325-.0054.0487l-.971-.2391c-.0167.0677-.0248.1382-.0234.21zm-.1366.1851c-.0159.0046-.0323.0071-.0484.0074l-.0202-.9998c-.0718.0015-.142.0124-.209.0317zm-.0492.0074c.3372-.0062.6741-.0103 1.0106-.0124l-.006-.9999c-.3407.002-.6818.0062-1.0232.0125zm5.0402.065c.6715.0299 1.3411.0682 2.0091.1148l.069-.9975c-.676-.0473-1.3538-.086-2.0337-.1163zm6.0221.4977c.668.0809 1.334.1702 1.998.2678l.145-.9894c-.672-.0988-1.346-.1892-2.023-.2712zm5.967.9553c.66.1317 1.318.2717 1.972.4198l.221-.9753c-.663-.15-1.329-.2918-1.997-.4252zm5.878 1.409c.648.1816 1.292.3713 1.933.569l.295-.9556c-.649-.2002-1.302-.3923-1.958-.5763zm5.753 1.8541c.631.2304 1.259.4687 1.883.7147l.366-.9303c-.631-.2491-1.267-.4904-1.906-.7238zm5.593 2.2878c.612.2779 1.22.5635 1.824.8566l.437-.8997c-.612-.2967-1.227-.5859-1.847-.8674zm5.404 2.7074c.589.3238 1.173.6549 1.753.9932l.504-.8638c-.587-.3426-1.179-.6779-1.776-1.0057zm5.182 3.1108c.562.3675 1.12.742 1.673 1.1234l.568-.8231c-.56-.3862-1.125-.7654-1.694-1.1375zm4.931 3.4953c.533.4089 1.06.8246 1.583 1.2469l.628-.7776c-.528-.4276-1.063-.8485-1.602-1.2626zm4.651 3.8591c.501.4482.995.9027 1.484 1.3636l.686-.7277c-.495-.4666-.996-.9269-1.502-1.3807zm4.346 4.201c.464.4848.923.9757 1.376 1.4725l.739-.6734c-.458-.5031-.923-1.0002-1.393-1.4911zm4.013 4.5193c.426.5185.846 1.0427 1.26 1.5724l.788-.6152c-.418-.5365-.844-1.0673-1.275-1.5923zm3.658 4.8117c.385.5492.764 1.1037 1.136 1.6634l.833-.5533c-.377-.5668-.76-1.1284-1.15-1.6845zm3.279 5.0759c.342.577.678 1.1591 1.006 1.746l.873-.4881c-.333-.5943-.672-1.1837-1.019-1.768zm2.882 5.3118c.297.6019.587 1.2083.87 1.8192l.908-.4198c-.287-.6187-.58-1.2328-.881-1.8422zm2.468 5.5175c.25.6223.492 1.2488.728 1.8794l.937-.3493c-.238-.6386-.484-1.273-.738-1.9032zm2.039 5.6914c.202.6383.396 1.2803.582 1.9261l.961-.277c-.189-.654-.385-1.3041-.589-1.9503zm1.601 5.8257c.077.3276.151.6561.224.9854l.977-.216c-.074-.3335-.15-.666-.228-.9977zm.224.9853c.086.3855.167.7716.245 1.1585l.981-.1979c-.08-.3929-.163-.7851-.249-1.1765zm1.011 5.8315c.05.3915.095.7836.138 1.176l.994-.107c-.043-.3986-.09-.7967-.14-1.1943zm.138 1.1758c-.001-.0082-.002-.0165-.001-.0247l.999.0241c.001-.0352 0-.0706-.004-.1059zm.026-.1186c.005-.0071.009-.0138.014-.0203l.779.6278c.022-.0277.043-.0566.061-.0867zm.014-.0203c.006-.0064.011-.0125.017-.0182l.69.7241c.025-.0243.05-.0504.072-.0781zm.103-.065c.008-.002.016-.0034.025-.0043l.106.9943c.035-.0037.07-.0098.104-.0181zm-.003-.0006c.007-.0011.013-.0019.019-.0026l.113.9936c.009-.001.019-.0023.029-.0041zm.051-.0047c-.001 0-.002 0-.004 0v1h.008zm-171.5045 50.9993c.0142 0 .02845.001.04239.005l-.2238.974c.0588.014.1196.021.18141.021zm.1712.108c.00607.013.01069.026.01373.04l-.97646.216c.0133.06.03323.118.05901.172zm.01362.04c-.07185-.324-.14204-.648-.21056-.972l-.97836.207c.0692.327.14009.654.21267.981zm-.95421-4.872c-.11099-.653-.21529-1.306-.31296-1.959l-.989001.148c.098651.66.204011 1.319.316111 1.979zm-.82148-5.897c-.07165-.658-.136614-1.317-.194922-1.975l-.996102.088c.0588977.665.1245182 1.33.1968929 1.996zm-.465687-5.935c-.031936-.662-.057191-1.323-.075799-1.984l-.999604.028c.018796.668.044307 1.336.076565 2.004zm-.107822-5.954c.007945-.662.022533-1.324.043732-1.984l-.999485-.033c-.021414.668-.03615 1.336-.044175 2.005zm.250579-5.949c.047739-.66.102072-1.319.162968-1.978l-.9957493-.092c-.0615107.665-.1163937 1.331-.1646147 1.998zm.60781-5.923c.08733-.656.1812-1.311.28157-1.964l-.988418-.152c-.101384.66-.196197 1.322-.284407 1.984zm.96256-5.876c.12658-.649.25963-1.297.39912-1.944l-.97752-.211c-.14089.653-.27529 1.308-.40315 1.964zm1.31362-5.8071c.16531-.6409.33702-1.28.51507-1.9172l-.9631-.2691c-.17986.6436-.35329 1.2892-.52027 1.9365zm1.65969-5.7184c.20342-.6297.41313-1.2572.6291-1.8827l-.94523-.3264c-.21815.6318-.42997 1.2657-.63544 1.9017zm1.99965-5.6084c.2408-.6163.48779-1.2302.74095-1.8417l-.92396-.3825c-.2557.6176-.50518 1.2378-.74841 1.8602zm2.33249-5.4784c.27732-.6006.56068-1.1987.85018-1.794l-.89935-.4372c-.29237.6013-.57862 1.2053-.85873 1.812zm2.65718-5.3287c.3128-.5827.6315-1.1625.9561-1.7393l-.8714-.4904c-.3279.5826-.6499 1.1682-.9658 1.7568zm2.9724-5.1593c.3471-.5627.7-1.1222 1.0588-1.6785l-.8404-.5419c-.3624.5618-.7189 1.127-1.0695 1.6954zm3.2768-4.9709c.3804-.5408.7665-1.0783 1.1582-1.6122l-.8063-.5915c-.3957.5393-.7856 1.0822-1.1698 1.6285zm3.5701-4.7649c.4123-.5172.8302-1.0306 1.2537-1.5403l-.7692-.639c-.4277.5148-.8499 1.0335-1.2664 1.5559zm3.8506-4.5419c.4424-.4911.8902-.9783 1.3434-1.4614l-.7294-.6841c-.4578.488-.9101.9801-1.357 1.4762zm4.1172-4.3026c.4706-.4632.9465-.9222 1.4275-1.377l-.687-.7266c-.4859.4593-.9665.923-1.4419 1.3908zm4.3663-4.0464c.2496-.2177.5004-.4344.7525-.65l-.6499-.76c-.2546.2178-.508.4366-.76.6565zm.7553-.6523c-.0084.0072-.0173.0137-.0268.0194l-.5138-.858c-.0403.0242-.0788.052-.1149.0833zm-.1543.0438c-.0109-.0018-.0216-.0045-.032-.0082l.3302-.9439c-.0451-.0158-.0911-.0274-.1375-.0349zm-.032-.0082c-.0105-.0036-.0205-.0082-.0301-.0136l.4896-.8719c-.041-.023-.0842-.0426-.1293-.0584zm-.1146-.1121c-.0039-.0104-.0069-.021-.0089-.0319l.9833-.182c-.0087-.047-.0214-.0927-.0379-.1367zm-.0089-.0319c-.002-.0108-.003-.0219-.0031-.0329l1-.0079c-.0004-.047-.0049-.0942-.0136-.1412zm.0405-.1552c.007-.0084.0148-.0163.0233-.0234l.6462.7631c.0364-.0308.0698-.0646.0998-.1008zm.0214-.0219c-.253.2164-.5048.4339-.7553.6524l.6575.7535c.2479-.2163.4972-.4316.7477-.6458zm-3.7052 3.3319c-.4829.4566-.9606.9173-1.433 1.3823l.7014.7127c.4677-.4602.9405-.9164 1.4186-1.3683zm-4.2175 4.2343c-.4549.485-.9044.9741-1.3485 1.4671l.743.6693c.4396-.488.8846-.9721 1.3349-1.4523zm-3.9554 4.4801c-.4251.5117-.8446 1.0272-1.2585 1.5463l.7819.6235c.4097-.514.825-1.0243 1.2458-1.5308zm-3.6797 4.7112c-.3932.5359-.7808 1.0754-1.1626 1.6184l.818.5752c.378-.5375.7616-1.0715 1.1509-1.6021zm-3.3892 4.9234c-.3601.5584-.7144 1.1201-1.0629 1.6849l.8511.525c.345-.5591.6957-1.1152 1.0522-1.6679zm-3.0868 5.118c-.3259.579-.6459 1.161-.9598 1.7459l.8811.473c.3108-.5791.6275-1.1552.9501-1.7284zm-2.7738 5.2942c-.29054.5976-.57502 1.1979-.85339 1.8008l.90789.4192c.2756-.5969.5572-1.1912.8448-1.7827zm-2.45103 5.4514c-.25411.6138-.50205 1.2301-.74377 1.8487l.93142.364c.23929-.6124.48474-1.2225.7363-1.8302zm-2.11955 5.5886c-.2168.6279-.42731 1.2579-.63151 1.8899l.95157.3074c.20215-.6257.41055-1.2493.62517-1.8709zm-1.7805 5.7056c-.17874.6397-.3511 1.2812-.51704 1.9245l.96829.2498c.16429-.6369.33492-1.2719.51186-1.9052zm-1.43503 5.8021c-.14003.649-.27359 1.3-.40066 1.952l.98154.191c.1258-.645.25802-1.289.39663-1.932zm-1.08426 5.878c-.10076.656-.19499 1.314-.282651 1.972l.991261.132c.08678-.652.18006-1.303.2798-1.952zm-.729209 5.933c-.06113.66-.115674 1.322-.163597 1.985l.997396.072c.04744-.656.10143-1.311.16195-1.965zm-.371247 5.965c-.021282.663-.035928 1.327-.043905 1.992l.999931.012c.00789-.658.02239-1.316.04346-1.972zm-.011767 5.976c.018677.664.044028 1.328.076085 1.993l.998838-.048c-.03173-.658-.05683-1.316-.07532-1.973zm.34788 5.968c.058531.661.123742 1.322.195666 1.983l.994137-.108c-.0712-.655-.13576-1.309-.1937-1.963zm.706123 5.936c.09803.655.20274 1.311.31414 1.966l.98585-.168c-.11028-.648-.21394-1.297-.31099-1.946zm1.06061 5.881c.06878.325.13923.65.21136.975l.97625-.217c-.0714-.321-.14115-.643-.20924-.965zm.21138.975c-.00204-.009-.00339-.018-.00404-.028l.9976-.069c-.00278-.04-.00854-.08-.01735-.12zm.02127-.136c.00473-.008.01007-.016.01598-.024l.77942.627c.02544-.032.0483-.065.0685-.1zm.01598-.024c.00596-.007.01245-.014.0194-.02l.67734.735c.02953-.027.0572-.056.08268-.088zm.11936-.068c.00912-.002.01835-.002.02759-.002v1c.04039 0 .0805-.003.12-.009zm111.02109 19.504v1zm-49.9712-40.14.9764-.216zm31.1882-48.8996.2159.9764zm24.774 4.3815-.537.8431zm14.42 20.6161.977-.215-.001-.001zm-20.045 31.43.212.977.005-.001zm-23.7774-11.793-.9064.423zm.0277-.31.8172.576zm.2833-.131-.0939.996zm.254.181-.9106.414.0042.009zm23.0774 11.445.212.978.005-.002zm19.573-30.688.976-.214v-.002zm-38.4528-24.5243-.2159-.9764-.0011.0003zm-30.7152 48.1583-.9766.215.0002.001zm60.291 38.453-.216-.976zm42.367-32.374.886.464.001-.001zm.263-.167.041.999zm.276.145-.846.533zm.012.311-.884-.467-.002.003zm-42.784 32.692-.215-.976h-.001zm49.137-69.0692.995-.1066v-.0004zm-1.146-6.9939.977-.2159zm-78.8092-62.0853.0198.9998h.0006zm-.3172-.3048-.9998.0196v.0008zm.3048-.3172-.0186-.9998h-.0016zm79.4296 62.5731.976-.2159v-.0001zm1.157 7.0619.994-.1065v-.0005zm-.067.2283.778.6278zm-.209.114-.107-.9943-.027.0029-.028.0045zm-171.8378 50.7571.97646-.216-.00021-.001zm32.5035-97.271.6499.7601.0055-.0048zm.3065-.0586-.3302.9439zm.2031.2369-.9833.182zm-.1048.294-.6463-.7632-.0036.0031zm-32.30109 96.6647-.97625.216.00004.001zm-.06115.262.77941.626h.00001zm110.75074 18.122c-.315 0-.63-.003-.945-.009l-.037 2c.326.006.654.009.982.009zm-4.708-.223c-.627-.06-1.251-.131-1.873-.214l-.264 1.982c.646.086 1.296.161 1.948.223zm-5.589-.854c-.616-.13-1.228-.272-1.837-.425l-.487 1.94c.633.159 1.27.306 1.911.442zm-5.4572-1.48c-.597-.199-1.1897-.409-1.7779-.629l-.7022 1.872c.6116.23 1.2279.448 1.8486.654zm-5.2569-2.084c-.5708-.265-1.1364-.539-1.6965-.824l-.9072 1.782c.5822.296 1.1702.582 1.7635.857zm-4.9916-2.659c-.5375-.326-1.069-.662-1.594-1.008l-1.1004 1.67c.5458.359 1.0982.709 1.657 1.048zm-4.6639-3.199c-.4977-.384-.9883-.777-1.4716-1.18l-1.2798 1.537c.5024.418 1.0125.827 1.5297 1.226zm-4.2774-3.7c-.4513-.437-.8949-.882-1.3302-1.336l-1.4439 1.383c.4527.473.9138.936 1.3831 1.39zm-3.8355-4.155c-.3992-.485-.7897-.977-1.1713-1.478l-1.5906 1.212c.3968.521.803 1.033 1.2181 1.537zm-3.3417-4.56c-.3416-.527-.6737-1.06-.9962-1.601l-1.7177 1.025c.3355.562.681 1.117 1.0362 1.664zm-2.8033-4.909c-.2794-.562-.549-1.13-.8083-1.704l-1.8228.823c.2697.598.5501 1.188.8408 1.772zm-2.2292-5.198c-.2138-.588-.4173-1.183-.6102-1.783l-1.9041.611c.2005.625.4121 1.243.6345 1.855zm-1.6283-5.413c-.0736-.306-.1445-.613-.2128-.922l-1.9528.432c.0709.321.1447.64.2212.958zm-.2128-.922c-.0689-.311-.134-.623-.1953-.935l-1.9624.386c.0643.327.1326.654.2049.981zm-.7523-4.701c-.0632-.634-.1109-1.267-.1435-1.898l-1.9974.103c.0343.663.0844 1.328.1508 1.994zm-.1574-5.704c.0283-.635.0717-1.269.1301-1.899l-1.9915-.184c-.0613.662-.107 1.327-.1366 1.995zm.6625-5.667c.119-.625.2528-1.246.401-1.862l-1.9446-.467c-.1556.647-.2961 1.298-.421 1.954zm1.4667-5.516c.2068-.601.4275-1.197.6621-1.786l-1.8583-.7395c-.2462.6185-.478 1.2435-.695 1.8745zm2.2359-5.2532c.2896-.5653.5924-1.1235.9081-1.6742l-1.7351-.9947c-.3313.5779-.6491 1.1638-.953 1.7571zm2.9558-4.8848c.3662-.5185.7447-1.0285 1.1352-1.5294l-1.5774-1.2295c-.4099.5257-.8071 1.0609-1.1914 1.6051zm3.6154-4.4186c.4355-.4611.8822-.9124 1.3399-1.3532l-1.3875-1.4405c-.4805.4628-.9494.9365-1.4065 1.4207zm4.2044-3.8607c.4961-.3942 1.0024-.7771 1.5185-1.1484l-1.1678-1.6236c-.5421.3899-1.0738.7921-1.5948 1.206zm4.7113-3.2204c.5468-.3187 1.1026-.6251 1.6671-.9187l-.9229-1.7743c-.5931.3084-1.1769.6303-1.7512.965zm5.1239-2.511c.5861-.2367 1.1801-.4602 1.7816-.6703l-.6593-1.8882c-.6317.2206-1.2555.4554-1.8711.7039zm5.4312-1.7533c.3084-.0758.6185-.1483.9303-.2172l-.4319-1.9528c-.3271.0723-.6525.1483-.9761.2279zm.9303-.2172c.3401-.0752.6809-.1448 1.0221-.2086l-.3678-1.9659c-.3627.0679-.7248.1417-1.0862.2217zm5.1611-.7056c.696-.0376 1.391-.0523 2.085-.0444l.023-1.9999c-.738-.0084-1.477.0072-2.216.0472zm6.242.2759c.688.0986 1.373.2197 2.054.3632l.412-1.957c-.723-.1524-1.451-.2812-2.182-.386zm6.068 1.488c.655.2307 1.303.483 1.943.7569l.787-1.8389c-.681-.2911-1.37-.5593-2.066-.8044zm5.661 2.6434c.299.177.595.3592.889.5465l1.075-1.6862c-.312-.1991-.627-.3927-.944-.5808zm.889.5465c.293.1873.583.3791.87.5752l1.13-1.6501c-.305-.2085-.613-.4123-.925-.6113zm4.148 3.1507c.518.4651 1.02.9464 1.506 1.4429l1.43-1.3979c-.516-.5277-1.049-1.0392-1.6-1.5336zm4.218 4.6086c.417.5565.816 1.1265 1.196 1.709l1.675-1.092c-.403-.6191-.827-1.2249-1.27-1.8163zm3.239 5.343c.3.6261.58 1.2629.839 1.9093l1.856-.7442c-.275-.687-.572-1.3637-.891-2.0292zm2.134 5.8721c.086.3363.166.6746.242 1.0146l1.952-.432c-.079-.3611-.165-.7206-.257-1.0781zm.241 1.0136c.069.311.131.621.187.932l1.968-.358c-.061-.334-.128-.669-.201-1.004zm.587 4.701c.019.635.015 1.267-.013 1.895l1.998.088c.03-.678.035-1.36.014-2.045zm-.465 5.656c-.123.622-.268 1.237-.436 1.845l1.927.533c.182-.656.339-1.32.471-1.991zm-1.716 5.412c-.258.578-.537 1.146-.836 1.702l1.761.948c.323-.6.624-1.213.901-1.836zm-2.874 4.898c-.379.506-.776.999-1.192 1.476l1.509 1.313c.448-.515.876-1.046 1.284-1.591zm-3.886 4.141c-.48.408-.977.8-1.489 1.173l1.179 1.616c.552-.403 1.088-.825 1.606-1.266zm-4.709 3.169c-.558.29-1.129.561-1.713.811l.787 1.839c.63-.27 1.247-.562 1.849-.875zm-5.299 2.038c-.305.08-.613.154-.923.223l.434 1.953c.334-.075.666-.155.995-.241zm-.919.222c-.298.065-.596.123-.894.174l.337 1.971c.327-.056.655-.119.982-.19zm-4.52.462c-.609-.006-1.216-.04-1.817-.101l-.202 1.99c.661.067 1.328.104 1.998.111zm-5.388-.792c-.584-.169-1.159-.363-1.724-.583l-.725 1.864c.621.242 1.253.455 1.895.641zm-4.9832-2.199c-.517-.317-1.0202-.657-1.5078-1.02l-1.194 1.604c.5357.399 1.0885.773 1.6564 1.121zm-4.2185-3.445c-.4124-.442-.8065-.904-1.1806-1.385l-1.5792 1.227c.4112.529.8444 1.037 1.2977 1.523zm-3.1452-4.446c-.1399-.268-.2743-.541-.4032-.817l-1.8127.845c.1414.303.289.602.4426.897zm-.4031-.817c.0171.037.0308.074.0411.113l-1.9322.516c.0196.074.0457.146.0783.216zm-.001.584c-.017.036-.0372.071-.0605.104l-1.6343-1.153c-.0445.063-.0829.13-.1152.198zm-.0605.104c-.0233.033-.0494.064-.0778.092l-1.4086-1.42c-.0539.054-.1035.112-.1479.175zm-.5074.29c-.0398.003-.0801.003-.1204-.001l.1878-1.991c-.0768-.007-.1534-.008-.2291-.002zm-.1204-.001c-.0402-.004-.0798-.011-.1184-.022l.5316-1.928c-.0732-.02-.1486-.034-.2254-.041zm-.5034-.296c-.0227-.033-.0425-.068-.0592-.105l1.821-.827c-.0319-.07-.0697-.137-.1127-.2zm-.0551-.096c.1374.295.2809.585.4301.871l1.7733-.924c-.1355-.26-.2658-.524-.3907-.792zm2.5281 4.141c.3997.514.8207 1.007 1.2613 1.48l1.4621-1.365c-.3997-.428-.7816-.876-1.1442-1.343zm4.1564 4.069c.5207.388 1.0579.751 1.6098 1.089l1.0454-1.705c-.501-.307-.9886-.637-1.4612-.988zm5.0893 2.815c.603.234 1.218.442 1.841.622l.555-1.922c-.566-.163-1.124-.351-1.672-.564zm5.655 1.36c.642.065 1.29.101 1.941.108l.021-2c-.59-.006-1.178-.039-1.761-.098zm5.813-.2c.318-.055.637-.116.954-.185l-.424-1.955c-.289.063-.578.119-.867.168zm.959-.187c.327-.072.651-.151.973-.235l-.506-1.935c-.297.078-.598.151-.901.218zm4.752-1.528c.616-.264 1.219-.549 1.807-.855l-.923-1.775c-.544.283-1.101.547-1.671.791zm5.204-2.961c.54-.394 1.063-.807 1.57-1.237l-1.297-1.524c-.468.399-.952.781-1.452 1.145zm4.41-4.047c.438-.503.857-1.022 1.256-1.555l-1.602-1.197c-.369.493-.757.973-1.162 1.439zm3.404-4.922c.315-.587.609-1.185.88-1.795l-1.827-.814c-.251.564-.523 1.118-.815 1.661zm2.23-5.555c.177-.641.331-1.29.46-1.945l-1.962-.388c-.12.607-.262 1.207-.426 1.8zm.937-5.913c.029-.663.034-1.329.013-1.999l-1.999.062c.019.619.015 1.236-.012 1.848zm-.408-5.971c-.059-.327-.125-.654-.197-.981l-1.953.429c.067.303.128.606.183.909zm-.197-.983c-.078-.3555-.163-.7089-.252-1.0597l-1.938.4945c.084.3302.163.6622.237.9972zm-1.599-5.1942c-.27-.6773-.562-1.3421-.873-1.9937l-1.805.8625c.293.6122.567 1.2368.821 1.8732zm-3.004-5.7862c-.397-.6097-.814-1.2043-1.248-1.7832l-1.6 1.2003c.408.5439.799 1.1025 1.173 1.6753zm-4.081-5.0836c-.508-.519-1.033-1.0206-1.573-1.5041l-1.334 1.4896c.507.4545 1 .926 1.478 1.4138zm-4.994-4.1889c-.598-.4098-1.21-.8-1.834-1.1699l-1.02 1.7203c.586.3478 1.162.7147 1.724 1.0999zm-5.711-3.14c-.666-.2854-1.342-.5495-2.027-.7915l-.667 1.8858c.644.2274 1.28.4756 1.906.744zm-6.215-1.9687c-.708-.1497-1.422-.2765-2.143-.3799l-.284 1.9797c.677.0971 1.348.2163 2.014.357zm-6.48-.7125c-.722-.0077-1.448.0083-2.176.0485l.11 1.997c.684-.0378 1.366-.0528 2.045-.0456zm-6.493.5712c-.3558.0668-.7118.1395-1.0677.2182l.4318 1.9528c.3351-.074.67-.1425 1.0047-.2052zm-1.0688.2185c-.3222.0716-.6426.1468-.9613.2255l.4796 1.9417c.3036-.075.6088-.1467.9157-.2149zm-4.7342 1.3481c-.6223.2176-1.2366.4491-1.8429.6941l.7493 1.8543c.5769-.2331 1.1616-.4534 1.7538-.6605zm-5.4194 2.342c-.5842.3039-1.1594.6208-1.7251.9504l1.0067 1.7282c.5383-.3136 1.0855-.6152 1.6413-.9043zm-5.0293 3.0936c-.5342.384-1.0581.78-1.5714 1.1876l1.2436 1.5663c.4884-.3878.9869-.7646 1.4952-1.13zm-4.5354 3.7805c-.4735.4558-.9357.9223-1.3861 1.3991l1.4538 1.3735c.4287-.4539.8686-.8979 1.3193-1.3317zm-3.9516 4.3862c-.4038.5179-.7952 1.0452-1.1739 1.5812l1.6336 1.1539c.3605-.5103.7331-1.0122 1.1175-1.5052zm-3.2912 4.9009c-.3264.5694-.6394 1.1466-.9387 1.7312l1.7802.9115c.285-.5565.5829-1.106.8937-1.6481zm-2.5654 5.3171c-.2424.609-.4706 1.225-.6842 1.847l1.8914.65c.2034-.592.4205-1.178.6512-1.758zm-1.7854 5.628c-.1531.637-.2913 1.279-.4142 1.925l1.9648.374c.1169-.615.2484-1.226.3941-1.832zm-.9642 5.825c-.0603.652-.1051 1.307-.1343 1.965l1.998.089c.0278-.626.0705-1.249.1278-1.87zm-.1204 5.903c.0335.653.0827 1.308.1478 1.964l1.9902-.198c-.0619-.624-.1087-1.247-.1406-1.868zm.7209 5.858c.063.322.1299.645.2008.967l1.9533-.43c-.0675-.307-.1313-.614-.1913-.921zm.201.968c.0752.34.1535.678.2351 1.015l1.9438-.471c-.0784-.324-.1538-.649-.226-.976zm1.3716 5.005c.2171.66.4468 1.314.6886 1.96l1.8733-.7c-.2325-.622-.4533-1.25-.6619-1.885zm2.3 5.788c.295.628.6019 1.248.9204 1.861l1.7743-.923c-.3061-.589-.601-1.185-.8844-1.788zm2.9848 5.464c.369.587.7493 1.166 1.1404 1.736l1.649-1.132c-.3758-.548-.7412-1.104-1.0959-1.668zm3.6266 5.061c.437.538.8843 1.066 1.3416 1.585l1.5-1.323c-.4395-.498-.8695-1.006-1.2895-1.523zm4.2109 4.586c.4984.481 1.0061.952 1.5226 1.412l1.3301-1.494c-.4966-.442-.9847-.895-1.4638-1.357zm4.7308 4.046c.5521.418 1.1123.824 1.6804 1.219l1.1419-1.642c-.5462-.379-1.0849-.77-1.6158-1.172zm5.1805 3.452c.5977.348 1.2025.685 1.814 1.009l.9376-1.766c-.588-.312-1.1695-.636-1.7443-.971zm5.5558 2.807c.635.275 1.2758.537 1.9221.786l.7192-1.867c-.6213-.239-1.2374-.491-1.8479-.755zm5.8533 2.122c.6629.196 1.3301.379 2.0021.548l.489-1.939c-.645-.163-1.287-.339-1.9242-.527zm6.0661 1.4c.682.114 1.367.215 2.055.302l.251-1.984c-.662-.084-1.32-.18-1.975-.29zm6.193.655c.689.03 1.381.047 2.075.05l.008-2c-.667-.003-1.332-.019-1.995-.048zm6.225-.103c.688-.054 1.378-.121 2.068-.203l-.234-1.986c-.664.079-1.327.143-1.988.195zm6.166-.855c.339-.068.679-.139 1.019-.214l-.432-1.953c-.327.072-.654.141-.98.206zm1.018-.214c.338-.075.674-.152 1.01-.232l-.462-1.945c-.325.077-.651.151-.979.224zm5.006-1.317c.661-.203 1.317-.416 1.97-.639l-.648-1.893c-.632.217-1.268.423-1.909.62zm5.842-2.106c.638-.266 1.271-.542 1.899-.827l-.828-1.821c-.608.277-1.221.544-1.839.801zm5.611-2.661c.61-.326 1.213-.662 1.81-1.007l-.999-1.732c-.579.334-1.164.659-1.754.975zm5.328-3.191c.575-.383 1.143-.776 1.705-1.177l-1.163-1.627c-.544.388-1.094.768-1.651 1.139zm4.995-3.691c.535-.437 1.062-.882 1.583-1.335l-1.314-1.508c-.505.44-1.016.871-1.534 1.294zm4.615-4.156c.49-.486.972-.98 1.446-1.482l-1.453-1.373c-.46.486-.927.965-1.402 1.436zm4.192-4.582c.44-.531.872-1.069 1.296-1.615l-1.58-1.226c-.41.528-.829 1.05-1.256 1.564zm3.729-4.966c.387-.571.765-1.148 1.134-1.733l-1.691-1.068c-.357.566-.724 1.126-1.099 1.679zm3.231-5.303c.166-.303.328-.608.489-.914l-1.772-.928c-.155.296-.313.592-.473.885zm.49-.915c-.019.036-.041.07-.065.101l-1.585-1.22c-.046.06-.088.125-.123.193zm-.464.354c-.039.009-.079.014-.119.015l-.081-1.998c-.077.003-.153.013-.227.029zm-.119.015c-.041.002-.081 0-.12-.005l.267-1.982c-.075-.01-.151-.014-.228-.011zm-.538-.225c-.027-.029-.052-.061-.073-.096l1.692-1.066c-.041-.065-.088-.126-.138-.182zm-.073-.096c-.022-.034-.04-.07-.055-.107l1.852-.756c-.029-.07-.064-.138-.105-.203zm-.073-.578c.012-.038.028-.075.047-.111l1.768.935c.036-.068.065-.139.089-.211zm.045-.108c-.157.3-.316.598-.478.894l1.756.957c.167-.306.331-.613.493-.922zm-2.53 4.388c-.362.572-.731 1.137-1.11 1.695l1.656 1.122c.39-.576.772-1.159 1.145-1.749zm-3.491 4.975c-.414.534-.837 1.06-1.268 1.58l1.539 1.277c.445-.536.881-1.08 1.309-1.631zm-3.954 4.613c-.465.491-.936.975-1.416 1.45l1.409 1.42c.494-.491.981-.989 1.46-1.496zm-4.383 4.21c-.509.444-1.025.88-1.549 1.307l1.265 1.549c.54-.441 1.073-.89 1.598-1.348zm-4.768 3.767c-.55.393-1.106.776-1.668 1.151l1.109 1.664c.58-.386 1.154-.782 1.721-1.187zm-5.11 3.289c-.585.337-1.176.666-1.772.985l.944 1.763c.615-.329 1.224-.668 1.827-1.016zm-5.404 2.78c-.614.279-1.234.549-1.858.808l.769 1.847c.644-.268 1.283-.547 1.917-.835zm-5.647 2.244c-.639.218-1.281.427-1.928.625l.586 1.912c.668-.204 1.331-.419 1.989-.645zm-5.838 1.688c-.328.078-.658.153-.988.226l.43 1.953c.341-.075.681-.153 1.02-.233zm-.989.226c-.297.066-.594.129-.892.189l.398 1.96c.309-.062.618-.128.927-.196zm-4.486.783c-.602.077-1.206.143-1.811.199l.182 1.991c.629-.057 1.257-.126 1.883-.206zm-5.449.398c-.303.006-.607.009-.911.009l.001 2c.316 0 .632-.003.947-.009zm59.597-69.9963c.057 0 .113.007.167.0205l-.484 1.9407c.103.0255.209.0388.317.0388zm.648.4529c.019.0522.032.1068.038.1626l-1.989.2133c.012.1071.036.2111.072.31zm.038.1622c-.043-.3978-.09-.7952-.14-1.192l-1.984.2505c.049.3848.094.7699.135 1.1556zm-.916-5.9286c-.079-.3921-.162-.7835-.248-1.1742l-1.953.4318c.084.3787.164.7581.241 1.1382zm-.248-1.1742c-.074-.3328-.15-.6648-.227-.9959l-1.947.4567c.075.3228.149.6465.221.971zm-1.258-4.9373c-.188-.6527-.385-1.3018-.589-1.947l-1.907.6039c.199.629.391 1.2618.575 1.8982zm-1.918-5.7994c-.239-.6372-.485-1.2703-.738-1.8992l-1.855.7481c.247.6131.487 1.2303.719 1.8516zm-2.358-5.6362c-.286-.6172-.58-1.2298-.881-1.8379l-1.792.888c.293.5928.58 1.1901.859 1.7918zm-2.783-5.4404c-.332-.5929-.672-1.1809-1.019-1.7638l-1.718 1.0224c.338.5684.669 1.1416.993 1.7196zm-3.19-5.2109c-.376-.5654-.759-1.1255-1.15-1.6803l-1.636 1.1504c.381.541.755 1.0871 1.122 1.6384zm-3.577-4.9523c-.418-.5351-.843-1.0646-1.274-1.5884l-1.544 1.2714c.42.5107.835 1.0271 1.243 1.5489zm-3.942-4.6663c-.458-.5019-.922-.9979-1.392-1.4877l-1.443 1.3845c.458.4777.911.9614 1.357 1.4509zm-4.285-4.355c-.494-.4657-.994-.9252-1.499-1.3782l-1.335 1.4896c.493.4418.981.8899 1.463 1.3441zm-4.6-4.019c-.528-.4271-1.061-.8474-1.6-1.2611l-1.218 1.586c.525.4034 1.045.8134 1.56 1.2299zm-4.891-3.6604c-.558-.386-1.122-.765-1.69-1.1369l-1.095 1.6734c.554.3627 1.103.7323 1.648 1.1088zm-5.153-3.2808c-.586-.3426-1.177-.678-1.772-1.0059l-.965 1.7515c.58.3198 1.156.6468 1.727.9809zm-5.388-2.8814c-.61-.2971-1.224-.5866-1.842-.8684l-.83 1.8198c.603.2748 1.202.557 1.797.8467zm-5.591-2.4637c-.63-.2497-1.264-.4915-1.902-.7253l-.689 1.8777c.622.228 1.24.4638 1.855.7072zm-5.762-2.0296c-.648-.2007-1.299-.3933-1.953-.5777l-.543 1.925c.638.1798 1.273.3675 1.905.5632zm-5.901-1.5819c-.662-.1504-1.327-.2924-1.994-.4261l-.393 1.961c.651.1303 1.298.2688 1.944.4154zm-6.007-1.1234c-.671-.0988-1.344-.1893-2.019-.2711l-.241 1.9854c.658.0798 1.315.168 1.969.2644zm-6.076-.6574c-.676-.0468-1.3528-.0851-2.0316-.1147l-.0872 1.9981c.6618.0289 1.3218.0662 1.9798.1118zm-6.1052-.1881c-.3401.0026-.6805.0073-1.0213.0143l.0407 1.9996c.3322-.0068.6642-.0114.9957-.0139zm-1.0208.0143c.0601-.0012.1201.0055.1781.0198l-.478 1.9421c.1097.027.2237.04.3395.0377zm.6754.4976c.0166.0574.0258.117.027.1771l-1.9996.0407c.0024.1157.02.2291.0513.3377zm.027.1778c.0012.0601-.0055.12-.0198.178l-1.942-.4782c-.027.1097-.04.2237-.0378.3394zm-.4976.6753c-.0575.0166-.1171.0257-.1772.0269l-.0404-1.9996c-.1158.0024-.2292.0199-.3378.0513zm-.1788.027c.3351-.0063.6699-.0104 1.0042-.0124l-.0119-1.9999c-.3428.002-.6859.0062-1.0295.0126zm5.0087.0645c.6673.0297 1.3323.0678 1.9963.1141l.139-1.9951c-.68-.0475-1.3623-.0866-2.0464-.117zm5.9843.4946c.664.0804 1.325.1691 1.985.2661l.291-1.9787c-.676-.0995-1.355-.1905-2.036-.2729zm5.929.9492c.656.1309 1.309.27 1.96.4172l.441-1.9507c-.667-.151-1.337-.2936-2.009-.4278zm5.841 1.4001c.644.1805 1.284.369 1.921.5654l.589-1.9112c-.653-.2015-1.31-.3948-1.969-.5799zm5.716 1.8423c.627.229 1.251.4658 1.871.7103l.734-1.8606c-.636-.2507-1.276-.4935-1.919-.7284zm5.559 2.2734c.608.2762 1.212.56 1.812.8512l.873-1.7993c-.615-.2986-1.235-.5896-1.858-.8728zm5.369 2.6904c.585.3217 1.166.6507 1.742.9869l1.008-1.7276c-.591-.3447-1.187-.6821-1.787-1.012zm5.149 3.0912c.559.3652 1.114.7373 1.663 1.1164l1.136-1.6462c-.564-.3886-1.132-.7702-1.705-1.1446zm4.9 3.4733c.53.4064 1.054.8195 1.573 1.2392l1.258-1.5553c-.532-.4303-1.07-.8538-1.613-1.2705zm4.623 3.8349c.497.4453.988.8971 1.474 1.355l1.372-1.4553c-.498-.4696-1.002-.9327-1.512-1.3893zm4.318 4.1746c.461.4818.917.9696 1.367 1.4633l1.479-1.347c-.462-.5062-.929-1.0063-1.403-1.5003zm3.988 4.4909c.424.5151.841 1.036 1.252 1.5625l1.576-1.2305c-.421-.5399-.849-1.0739-1.283-1.6022zm3.635 4.7813c.382.5457.759 1.0967 1.128 1.6529l1.666-1.1067c-.379-.5703-.765-1.1354-1.157-1.6949zm3.258 5.0438c.34.5734.673 1.1517 1 1.7349l1.745-.9761c-.334-.598-.676-1.1911-1.025-1.7791zm2.864 5.2782c.295.598.583 1.2006.864 1.8077l1.815-.8397c-.288-.6226-.583-1.2405-.886-1.8538zm2.452 5.4825c.248.6184.489 1.2409.723 1.8676l1.874-.6986c-.239-.6426-.487-1.281-.742-1.9151zm2.027 5.6556c.2.6342.393 1.2722.578 1.914l1.921-.5542c-.189-.6579-.387-1.3121-.592-1.9624zm1.59 5.7891c.076.3256.151.652.223.9793l1.953-.432c-.074-.3355-.151-.6701-.229-1.0038zm.223.9792c.085.3824.166.7656.243 1.1494l1.961-.3958c-.08-.3958-.164-.791-.251-1.1854zm1.003 5.7861c.049.3885.095.7775.137 1.167l1.988-.2141c-.043-.4016-.09-.8028-.141-1.2035zm.136 1.1664c-.003-.03-.004-.0601-.003-.09l1.999.0483c.002-.0569-.001-.1141-.007-.1713zm.097-.4323c.016-.0255.033-.0502.052-.0737l1.557 1.2556c.036-.0447.069-.0916.099-.1402zm.052-.0737c.019-.0235.04-.0456.061-.0663l1.38 1.4481c.041-.0393.08-.0814.116-.1262zm.375-.2371c.029-.0071.058-.0122.088-.0154l.213 1.9886c.057-.0061.114-.016.169-.0294zm.033-.008c.016-.0026.03-.0045.043-.006l.226 1.9873c.017-.0019.035-.0044.054-.0075zm.129-.0113c.001 0 .001 0-.001 0v2h.01zm-171.5015 50.9993c.0522 0 .10398.006.1543.017l-.44761 1.95c.09516.021.1935.033.29331.033zm.62306.394c.022.046.03889.095.0501.146l-1.95293.432c.02148.097.05368.19.09539.278zm.04989.145c-.0715-.322-.14133-.644-.20951-.967l-1.95673.414c.06956.329.1408.658.21374.987zm-.94942-4.847c-.11042-.649-.21421-1.299-.31138-1.949l-1.978002.296c.099143.663.205029 1.326.317688 1.988zm-.81733-5.867c-.07129-.655-.13593-1.31-.19394-1.965l-1.992204.176c.059191.669.12514 1.337.197876 2.006zm-.46334-5.905c-.03177-.658-.0569-1.317-.07541-1.975l-1.999212.057c.01889.671.044528 1.343.076948 2.014zm-.10728-5.924c.00791-.659.02242-1.317.04352-1.974l-1.998975-.065c-.021521.671-.03633 1.343-.044396 2.015zm.24932-5.919c.0475-.657.10155-1.313.16214-1.968l-1.991496-.184c-.061818.668-.116975 1.338-.165438 2.008zm.60474-5.893c.08689-.653.18028-1.304.28014-1.955l-1.976826-.303c-.1018903.663-.1971772 1.328-.285828 1.994zm.9577-5.846c.12594-.646.25833-1.291.39711-1.935l-1.95504-.421c-.1416.656-.276662 1.314-.40516 1.974zm1.30699-5.7782c.16449-.6376.33533-1.2735.51249-1.9075l-1.92622-.5383c-.18075.6469-.35505 1.2956-.52286 1.9462zm1.65134-5.6896c.20239-.6265.41104-1.2509.62593-1.8732l-1.89047-.6528c-.21923.6349-.43211 1.272-.63861 1.9111zm1.98957-5.5801c.23959-.6132.48534-1.224.73721-1.8324l-1.8479-.7651c-.25698.6208-.50771 1.244-.75215 1.8696zm2.32076-5.4508c.2759-.5976.5579-1.1926.8458-1.7849l-1.79862-.8746c-.29382.6043-.5815 1.2114-.86302 1.8211zm2.6438-5.3018c.3112-.5798.6283-1.1566.9513-1.7305l-1.7429-.981c-.3296.5855-.6531 1.1741-.9706 1.7656zm2.9573-5.1333c.3454-.5598.6965-1.1165 1.0535-1.67l-1.6808-1.0839c-.3642.5647-.7225 1.1327-1.0749 1.7039zm3.2603-4.9457c.3785-.5382.7626-1.0729 1.1523-1.6041l-1.6125-1.1831c-.3977.542-.7896 1.0876-1.1757 1.6367zm3.552-4.7409c.4103-.5145.8261-1.0254 1.2474-1.5326l-1.5384-1.2779c-.4299.5174-.8541 1.0387-1.2728 1.5637zm3.8312-4.5189c.4402-.4886.8857-.9734 1.3366-1.4541l-1.4588-1.3682c-.46.4905-.9146.9851-1.3638 1.4836zm4.0964-4.281c.4683-.4608.9417-.9175 1.4203-1.37l-1.374-1.4533c-.4883.4617-.9714.9277-1.4491 1.3978zm4.3443-4.0259c.2483-.2167.4979-.4323.7487-.6467l-1.2997-1.5201c-.2559.2188-.5105.4387-.7639.6598zm.7543-.6515c-.0306.0265-.0633.0502-.0976.0707l-1.0276-1.7158c-.0652.039-.1274.084-.1857.1346zm-.5623.1597c-.0395-.0065-.0786-.0164-.1168-.0297l.6604-1.8878c-.0729-.0255-.1473-.0443-.2223-.0566zm-.1168-.0297c-.0382-.0134-.075-.03-.1098-.0496l.9792-1.7439c-.0663-.0372-.1362-.0689-.209-.0943zm-.4178-.4089c-.014-.0374-.0248-.0763-.0322-.1161l1.9666-.364c-.0141-.0759-.0347-.1498-.0613-.221zm-.0322-.1161c-.0074-.0397-.0112-.0799-.0115-.1199l1.9999-.0158c-.0006-.076-.0078-.1524-.0218-.2283zm.1475-.5656c.0255-.0308.0539-.0595.0847-.0856l1.2925 1.5263c.0589-.0499.1128-.1044.1613-.1629zm.0811-.0825c-.2543.2175-.5074.436-.7591.6557l1.3149 1.507c.2467-.2153.4947-.4295.7439-.6426zm-3.7239 3.3486c-.4852.4588-.9653.9219-1.4401 1.3892l1.4028 1.4255c.4653-.4579.9358-.9117 1.4114-1.3614zm-4.2386 4.2556c-.4572.4874-.9089.9789-1.3553 1.4744l1.4859 1.3387c.4375-.4856.8802-.9672 1.3282-1.4449zm-3.9753 4.5026c-.4272.5143-.8488 1.0323-1.2649 1.5541l1.5638 1.2469c.4077-.5114.8209-1.019 1.2395-1.523zm-3.6982 4.7349c-.3952.5386-.7847 1.0808-1.1685 1.6265l1.6359 1.1505c.3761-.5347.7578-1.0661 1.1451-1.5939zm-3.4063 4.9482c-.3619.5612-.718 1.1257-1.0682 1.6934l1.7022 1.0501c.3432-.5564.6921-1.1096 1.0468-1.6595zm-3.1024 5.1438c-.3275.5819-.649 1.1668-.9646 1.7547l1.7622.9459c.3092-.5761.6244-1.1494.9453-1.7196zm-2.78765 5.3208c-.29201.6005-.57792 1.2039-.8577 1.8098l1.81585.8384c.2741-.5939.5543-1.1851.8405-1.7737zm-2.46335 5.4788c-.2554.6169-.50458 1.2362-.74751 1.8579l1.86284.7279c.23808-.6093.48228-1.2162.73257-1.8208zm-2.1302 5.6166c-.21788.631-.42945 1.2642-.63467 1.8994l1.90314.6148c.20112-.6225.40846-1.243.62199-1.8614zm-1.78943 5.7342c-.17964.6429-.35286 1.2877-.51964 1.9342l1.93659.4996c.16345-.6336.33322-1.2655.50926-1.8955zm-1.44224 5.8317c-.14073.652-.27497 1.306-.40267 1.962l1.96309.382c.12515-.642.2567-1.283.39461-1.923zm-1.08971 5.907c-.101264.66-.195964 1.32-.284069 1.982l1.982509.264c.08635-.648.17915-1.296.27839-1.942zm-.7328731 5.962c-.0614383.665-.116256 1.33-.1644209 1.996l1.994794.144c.0472-.653.10092-1.304.16113-1.955zm-.3731159 5.996c-.021389.666-.036108 1.334-.044126 2.002l1.999855.024c.00786-.655.02228-1.309.04324-1.962zm-.011827 6.007c.018772.667.044251 1.334.076468 2.002l1.997678-.097c-.03157-.654-.05654-1.308-.07494-1.962zm.3496325 5.997c.0588247.664.1243645 1.328.1966505 1.993l1.988263-.216c-.07084-.652-.13506-1.303-.19271-1.954zm.7096705 5.966c.098529.659.20376 1.317.315723 1.976l1.97169-.336c-.10972-.645-.21285-1.29-.30941-1.936zm1.065933 5.91c.06912.327.13993.654.21242.98l1.9525-.433c-.07105-.32-.14044-.64-.20819-.961zm.21246.981c-.00748-.034-.01238-.068-.01474-.102l1.9952-.139c-.0045-.064-.01381-.129-.02804-.193zm.07742-.497c.01719-.03.03664-.058.05823-.085l1.55883 1.253c.04111-.051.07808-.105.11074-.161zm.05823-.085c.02167-.027.04524-.052.07043-.075l1.35468 1.471c.04778-.044.09251-.092.13371-.143zm.43526-.25c.03344-.005.06733-.007.10139-.007v2c.06521 0 .12998-.005.1938-.015z" fill="#919eab" mask="url(#i)" opacity=".4"/><g filter="url(#a)"><path d="m8.89117 87.5277c2.40443 0 4.35353-1.9492 4.35353-4.3536s-1.9491-4.3535-4.35353-4.3535c-2.40441 0-4.35357 1.9491-4.35357 4.3535s1.94916 4.3536 4.35357 4.3536z" fill="#ff5630"/></g><g filter="url(#b)"><path d="m149.617 50.1808c2.404 0 4.353-1.9492 4.353-4.3536s-1.949-4.3536-4.353-4.3536c-2.405 0-4.354 1.9492-4.354 4.3536s1.949 4.3536 4.354 4.3536z" fill="#ffab00"/></g><g filter="url(#c)"><path d="m100.143 165.97c2.405 0 4.354-1.949 4.354-4.353 0-2.405-1.949-4.354-4.354-4.354-2.4043 0-4.3534 1.949-4.3534 4.354 0 2.404 1.9491 4.353 4.3534 4.353z" fill="#00b8d9"/></g><g filter="url(#d)"><rect fill="#fff" height="50.5263" rx="8" width="58.9474" x="34.7368" y="12"/></g><g filter="url(#e)"><rect fill="#00ab55" height="14.7368" rx="4" width="12.6316" x="42.1055" y="16.2104"/></g><g fill="#919eab"><rect height="3.15789" opacity=".8" rx="1.57895" width="16.8421" x="61.0527" y="20.4211"/><rect height="3.15789" opacity=".8" rx="1.57895" width="25.2632" x="61.0527" y="26.7368"/><rect height="3.15789" opacity=".24" rx="1.57895" width="44.2105" x="42.1055" y="42.5264"/><rect height="3.15789" opacity=".24" rx="1.57895" width="44.2105" x="42.1055" y="48.842"/><rect height="3.15789" opacity=".24" rx="1.57895" width="44.2105" x="42.1055" y="36.2104"/></g><g filter="url(#f)"><rect fill="#fff" height="40" rx="6" width="50.5263" x="149.474" y="94.1052"/></g><g filter="url(#g)"><rect fill="#c4cdd5" height="10.5263" rx="3" width="9.47368" x="156.842" y="99.3682"/></g><rect fill="#919eab" height="3.15789" opacity=".8" rx="1.57895" width="12.6316" x="170.526" y="100.421"/><rect fill="#919eab" height="3.15789" opacity=".8" rx="1.57895" width="22.1053" x="170.526" y="106.737"/><rect fill="#919eab" height="3.15789" opacity=".24" rx="1.57895" width="35.7895" x="156.842" y="114.105"/><rect fill="#919eab" height="3.15789" opacity=".24" rx="1.57895" width="35.7895" x="156.842" y="120.421"/><g filter="url(#h)"><rect fill="#fff" height="23.1579" rx="6" width="27.3684" x="76.8423" y="97.2632"/></g><rect fill="#919eab" height="3.15789" opacity=".8" rx="1.57895" width="16.8421" x="82.1055" y="102.526"/><rect fill="#919eab" height="3.15789" opacity=".24" rx="1.57895" width="12.6316" x="82.1055" y="108.842"/></svg>