<svg fill="none" height="360" viewBox="0 0 480 360" width="480" xmlns="http://www.w3.org/2000/svg" xmlns:xlink="http://www.w3.org/1999/xlink"><linearGradient id="a" gradientUnits="userSpaceOnUse" x1="328.81" x2="505.393" y1="424.032" y2="26.0479"><stop offset="0" stop-color="#919eab"/><stop offset="1" stop-color="#919eab" stop-opacity=".01"/></linearGradient><path clip-rule="evenodd" d="m0 198.781c0 41.457 14.9454 79.235 39.539 107.785 28.2144 32.765 69.128 53.365 114.734 53.434 19.931.029 38.989-3.887 56.495-11.036 9.051-3.699 19.182-3.274 27.948 1.107 10.283 5.133 21.798 8.011 33.957 8.011 5.023 0 9.942-.495 14.7-1.434 13.581-2.67 25.94-8.99 36.089-17.94 6.379-5.627 14.548-8.456 22.898-8.446h.142c27.589 0 53.215-8.732 74.492-23.696 19.021-13.36 34.554-31.696 44.904-53.225 9.022-18.76 14.102-39.953 14.102-62.383 0-76.931-59.774-139.3046-133.498-139.3046-7.516 0-14.88.6624-22.063 1.8984-19.021-32.1317-53.084-53.5518-91.941-53.5518-16.405 0-31.958 3.81769-45.879 10.6612-13.24 6.4871-25.011 15.7051-34.641 26.9388-32.697.544-62.93 11.6899-87.675 30.2914-38.9516 29.2638-64.303 76.9906-64.303 130.8896z" fill="url(#a)" fill-rule="evenodd" opacity=".16"/><g fill="#919eab"><g opacity=".2"><path d="m271.929 75.6377c-2.521 0-5.04-.9573-6.958-2.8725-3.837-3.8306-3.837-10.0629 0-13.8928 3.835-3.8292 10.079-3.8305 13.915 0 3.837 3.8306 3.837 10.0629 0 13.8928-1.918 1.9152-4.438 2.8725-6.957 2.8725zm0-12.8663c-.782 0-1.565.2967-2.16.8916-1.191 1.1883-1.191 3.1226 0 4.3116 1.191 1.1883 3.127 1.189 4.318 0 1.191-1.1884 1.191-3.1226 0-4.3116-.595-.5942-1.377-.8916-2.158-.8916z"/><path d="m194.574 305c-2.52 0-5.04-.958-6.958-2.873-3.837-3.83-3.837-10.062 0-13.892 3.835-3.83 10.08-3.83 13.916 0s3.836 10.063 0 13.892c-1.918 1.916-4.439 2.873-6.958 2.873zm0-12.866c-.782 0-1.564.296-2.16.891-1.191 1.189-1.191 3.123 0 4.312s3.127 1.189 4.319 0c1.19-1.189 1.19-3.123 0-4.312-.595-.594-1.378-.891-2.159-.891z"/></g><g opacity=".2"><path d="m366.607 258.732c-.868 0-1.737-.331-2.399-.992l-4.048-4.041-4.048 4.041c-1.324 1.322-3.473 1.322-4.797 0-1.326-1.323-1.326-3.468 0-4.791l6.446-6.436c1.324-1.323 3.474-1.323 4.798 0l6.447 6.436c1.325 1.323 1.325 3.468 0 4.791-.662.66-1.531.992-2.399.992z"/><path d="m127.287 245.825c-.868 0-1.738-.33-2.399-.992l-4.048-4.04-4.048 4.04c-1.324 1.323-3.474 1.323-4.798 0-1.325-1.323-1.325-3.468 0-4.79l6.447-6.436c1.324-1.323 3.474-1.323 4.798 0l6.446 6.436c1.326 1.323 1.326 3.468 0 4.79-.662.661-1.531.992-2.398.992z"/></g><g opacity=".16"><path d="m247.403 200.937c-.119-1.553-.753-3.062-2.185-3.676-1.135-.487-2.822-.924-5.218-.924-2.364 0-4.038.426-5.173.904-1.463.618-2.103 2.154-2.215 3.738-.384 5.426-1.134 19.018-.051 30.826.139 1.512.771 2.975 2.163 3.583 1.136.497 2.84.949 5.276.949 2.396 0 4.083-.437 5.218-.924 1.432-.614 2.072-2.124 2.202-3.676 1.096-13.06.373-25.69-.017-30.8z"/><path d="m283.802 202.419c.174-2.523-1.14-4.98-3.592-5.602-3.34-.846-6.447-.435-8.69.171-2.31.625-3.769 2.717-4.161 5.077-2.207 13.312-2.964 23.066-3.224 28.189-.128 2.525 1.203 4.981 3.655 5.603 3.273.829 6.322.451 8.554-.135 2.392-.628 3.872-2.829 4.223-5.277 2.107-14.719 2.921-23.466 3.235-28.026z"/><path d="m196.198 202.419c-.174-2.523 1.14-4.98 3.592-5.602 3.34-.846 6.447-.435 8.69.171 2.31.625 3.769 2.717 4.161 5.077 2.207 13.312 2.964 23.066 3.224 28.189.128 2.525-1.203 4.981-3.655 5.603-3.273.829-6.322.451-8.554-.135-2.392-.628-3.872-2.829-4.223-5.277-2.107-14.719-2.921-23.466-3.235-28.026z"/><path d="m160.769 156.523c1.047-4.672 5.57-6.82 10.352-7.057 9.534-.472 29.821-1.129 68.879-1.129s59.345.657 68.88 1.129c4.781.237 9.304 2.385 10.351 7.057.452 2.015.769 4.581.769 7.814s-.317 5.799-.769 7.814c-1.047 4.672-5.57 6.82-10.351 7.057-9.535.472-29.822 1.129-68.88 1.129s-59.345-.657-68.879-1.129c-4.782-.237-9.305-2.385-10.352-7.057-.452-2.015-.769-4.581-.769-7.814s.317-5.799.769-7.814z"/></g><path clip-rule="evenodd" d="m169.579 179.063c1.734 14.195 5.024 36.723 10.496 58.85 2.196 8.884 9.641 15.365 18.744 16.304 10.064 1.038 24.541 2.12 41.182 2.12 16.64 0 31.117-1.082 41.181-2.12 9.103-.939 16.548-7.42 18.744-16.304 5.472-22.128 8.762-44.655 10.496-58.851-.508.072-1.024.12-1.542.146-9.535.472-29.822 1.129-68.88 1.129s-59.345-.657-68.879-1.129c-.519-.026-1.034-.074-1.542-.145zm75.64 18.198c1.432.613 2.066 2.122 2.184 3.675.39 5.111 1.114 17.741.018 30.801-.131 1.552-.77 3.062-2.202 3.676-1.136.486-2.823.924-5.218.924-2.437 0-4.14-.453-5.276-.949-1.392-.609-2.024-2.072-2.163-3.584-1.083-11.807-.333-25.399.051-30.826.112-1.583.752-3.12 2.215-3.737 1.135-.479 2.809-.904 5.173-.904 2.395 0 4.082.437 5.218.924zm34.992-.444c2.451.621 3.766 3.078 3.592 5.601-.314 4.561-1.128 13.308-3.235 28.027-.351 2.448-1.831 4.648-4.223 5.277-2.232.586-5.281.964-8.554.134-2.452-.621-3.783-3.077-3.655-5.603.259-5.122 1.016-14.876 3.224-28.188.391-2.36 1.851-4.453 4.16-5.077 2.244-.607 5.35-1.017 8.691-.171zm-84.013 5.601c-.173-2.523 1.141-4.98 3.593-5.601 3.34-.846 6.446-.436 8.69.171 2.31.624 3.769 2.717 4.16 5.077 2.208 13.312 2.965 23.066 3.224 28.188.128 2.526-1.203 4.982-3.654 5.603-3.274.83-6.322.452-8.555-.134-2.392-.629-3.872-2.829-4.223-5.277-2.106-14.719-2.92-23.466-3.235-28.027z" fill-opacity=".48" fill-rule="evenodd"/><path d="m190.875 148.801c10.1-.23 23.62-.414 41.496-.456-1.079-2.636-2.806-5.127-4.99-7.213-8.966-8.566-22.942-21.555-37.372-33.552-5.114-4.251-12.615-5.012-17.653-.671-.341.294-.654.581-.927.854s-.56.586-.854.927c-4.341 5.038-3.58 12.539.671 17.652 6.541 7.868 13.376 15.6 19.629 22.459z" fill-opacity=".48"/><path d="m289.125 148.801c6.253-6.859 13.089-14.591 19.63-22.459 4.251-5.113 5.012-12.614.671-17.652-.295-.341-.581-.654-.854-.927-.274-.273-.586-.56-.928-.854-5.038-4.341-12.539-3.58-17.652.671-14.431 11.997-28.406 24.986-37.373 33.552-2.183 2.086-3.911 4.576-4.99 7.213 17.877.042 31.397.226 41.496.456z" fill-opacity=".48"/></g></svg>