<svg fill="none" height="360" viewBox="0 0 480 360" width="480" xmlns="http://www.w3.org/2000/svg" xmlns:xlink="http://www.w3.org/1999/xlink"><linearGradient id="a" gradientUnits="userSpaceOnUse" x1="328.81" x2="505.393" y1="424.032" y2="26.0479"><stop offset="0" stop-color="#919eab"/><stop offset="1" stop-color="#919eab" stop-opacity=".01"/></linearGradient><path clip-rule="evenodd" d="m0 198.781c0 41.457 14.9454 79.235 39.539 107.785 28.2144 32.765 69.128 53.365 114.734 53.434 19.931.029 38.989-3.887 56.495-11.036 9.051-3.699 19.182-3.274 27.948 1.107 10.283 5.133 21.798 8.011 33.957 8.011 5.023 0 9.942-.495 14.7-1.434 13.581-2.67 25.94-8.99 36.089-17.94 6.379-5.627 14.548-8.456 22.898-8.446h.142c27.589 0 53.215-8.732 74.492-23.696 19.021-13.36 34.554-31.696 44.904-53.225 9.022-18.76 14.102-39.953 14.102-62.383 0-76.931-59.774-139.3046-133.498-139.3046-7.516 0-14.88.6624-22.063 1.8984-19.021-32.1317-53.084-53.5518-91.941-53.5518-16.405 0-31.958 3.81769-45.879 10.6612-13.24 6.4871-25.011 15.7051-34.641 26.9388-32.697.544-62.93 11.6899-87.675 30.2914-38.9516 29.2638-64.303 76.9906-64.303 130.8896z" fill="url(#a)" fill-rule="evenodd" opacity=".16"/><g fill="#919eab"><g opacity=".2"><path d="m271.929 75.6377c-2.521 0-5.04-.9573-6.958-2.8725-3.837-3.8306-3.837-10.0629 0-13.8928 3.835-3.8292 10.079-3.8305 13.915 0 3.837 3.8306 3.837 10.0629 0 13.8928-1.918 1.9152-4.438 2.8725-6.957 2.8725zm0-12.8663c-.782 0-1.565.2967-2.16.8916-1.191 1.1883-1.191 3.1226 0 4.3116 1.191 1.1883 3.127 1.189 4.318 0 1.191-1.1884 1.191-3.1226 0-4.3116-.595-.5942-1.377-.8916-2.158-.8916z"/><path d="m194.574 305c-2.52 0-5.04-.958-6.958-2.873-3.837-3.83-3.837-10.062 0-13.892 3.835-3.83 10.08-3.83 13.916 0s3.836 10.063 0 13.892c-1.918 1.916-4.439 2.873-6.958 2.873zm0-12.866c-.782 0-1.564.296-2.16.891-1.191 1.189-1.191 3.123 0 4.312s3.127 1.189 4.319 0c1.19-1.189 1.19-3.123 0-4.312-.595-.594-1.378-.891-2.159-.891z"/></g><g opacity=".2"><path d="m366.607 258.732c-.868 0-1.737-.331-2.399-.992l-4.048-4.041-4.048 4.041c-1.324 1.322-3.473 1.322-4.797 0-1.326-1.323-1.326-3.468 0-4.791l6.446-6.436c1.324-1.323 3.474-1.323 4.798 0l6.447 6.436c1.325 1.323 1.325 3.468 0 4.791-.662.66-1.531.992-2.399.992z"/><path d="m127.287 245.825c-.868 0-1.738-.33-2.399-.992l-4.048-4.04-4.048 4.04c-1.324 1.323-3.474 1.323-4.798 0-1.325-1.323-1.325-3.468 0-4.79l6.447-6.436c1.324-1.323 3.474-1.323 4.798 0l6.446 6.436c1.326 1.323 1.326 3.468 0 4.79-.662.661-1.531.992-2.398.992z"/></g><path clip-rule="evenodd" d="m172.018 173.478h23.073c3.188 0 5.768-2.576 5.768-5.759s-2.58-5.759-5.768-5.759h-23.073c-3.189 0-5.768 2.576-5.768 5.759s2.579 5.759 5.768 5.759zm138.437-11.518h-57.682c-3.189 0-5.769 2.576-5.769 5.759v69.105c0 3.183 2.58 5.758 5.769 5.758h57.682c3.188 0 5.768-2.575 5.768-5.758v-69.105c0-3.183-2.58-5.759-5.768-5.759zm-144.205 28.794c0-3.183 2.579-5.759 5.768-5.759h57.682c3.188 0 5.768 2.576 5.768 5.759s-2.58 5.759-5.768 5.759h-57.682c-3.189 0-5.768-2.576-5.768-5.759zm5.768 17.276c-3.189 0-5.768 2.576-5.768 5.759s2.579 5.759 5.768 5.759h57.682c3.188 0 5.768-2.576 5.768-5.759s-2.58-5.759-5.768-5.759zm-5.768 28.794c0-3.183 2.579-5.759 5.768-5.759h57.682c3.188 0 5.768 2.576 5.768 5.759s-2.58 5.758-5.768 5.758h-57.682c-3.189 0-5.768-2.575-5.768-5.758z" fill-rule="evenodd" opacity=".16"/><path clip-rule="evenodd" d="m142.023 145.836v101.349c0 7.636 6.19 13.825 13.825 13.825h170.776c7.635 0 13.825-6.189 13.825-13.825v-101.349zm53.067 27.642h-23.073c-3.188 0-5.768-2.576-5.768-5.759s2.58-5.758 5.768-5.758h23.073c3.188 0 5.768 2.575 5.768 5.758s-2.58 5.759-5.768 5.759zm57.682-11.517h57.682c3.188 0 5.768 2.575 5.768 5.758v69.105c0 3.183-2.58 5.759-5.768 5.759h-57.682c-3.188 0-5.768-2.576-5.768-5.759v-69.105c0-3.183 2.58-5.758 5.768-5.758zm-80.755 23.034c-3.188 0-5.768 2.576-5.768 5.759s2.58 5.759 5.768 5.759h57.682c3.189 0 5.768-2.576 5.768-5.759s-2.579-5.759-5.768-5.759zm-5.768 28.794c0-3.183 2.58-5.759 5.768-5.759h57.682c3.189 0 5.768 2.576 5.768 5.759s-2.579 5.759-5.768 5.759h-57.682c-3.188 0-5.768-2.576-5.768-5.759zm5.768 17.276c-3.188 0-5.768 2.576-5.768 5.759s2.58 5.759 5.768 5.759h57.682c3.189 0 5.768-2.576 5.768-5.759s-2.579-5.759-5.768-5.759z" fill-opacity=".48" fill-rule="evenodd"/><path clip-rule="evenodd" d="m340.45 113.591c0-7.635-6.19-13.8249-13.825-13.8249h-170.777c-7.635 0-13.825 6.1899-13.825 13.8249v32.245h198.427zm-168.432 3.451c-3.23 0-5.768 2.534-5.768 5.759 0 3.224 2.538 5.759 5.768 5.759 3.231 0 5.768-2.535 5.768-5.759 0-3.225-2.537-5.759-5.768-5.759zm23.073 0c-3.231 0-5.768 2.534-5.768 5.759 0 3.224 2.537 5.759 5.768 5.759 3.23 0 5.768-2.535 5.768-5.759 0-3.225-2.538-5.759-5.768-5.759zm23.073 0c-3.231 0-5.769 2.534-5.769 5.759 0 3.224 2.538 5.759 5.769 5.759 3.23 0 5.768-2.535 5.768-5.759 0-3.225-2.538-5.759-5.768-5.759z" fill-rule="evenodd" opacity=".16"/><path clip-rule="evenodd" d="m172.018 117.042c-3.231 0-5.768 2.534-5.768 5.759s2.537 5.759 5.768 5.759c3.23 0 5.768-2.534 5.768-5.759s-2.538-5.759-5.768-5.759zm23.073 0c-3.231 0-5.769 2.534-5.769 5.759s2.538 5.759 5.769 5.759c3.23 0 5.768-2.534 5.768-5.759s-2.538-5.759-5.768-5.759zm23.072 0c-3.23 0-5.768 2.534-5.768 5.759s2.538 5.759 5.768 5.759c3.231 0 5.769-2.534 5.769-5.759s-2.538-5.759-5.769-5.759z" fill-rule="evenodd" opacity=".8"/></g></svg>