<svg xmlns="http://www.w3.org/2000/svg" xmlns:xlink="http://www.w3.org/1999/xlink" version="1.1" width="46" height="46" viewBox="0 0 1080 1080" xml:space="preserve">
<g transform="matrix(1 0 0 1 540 540)" id="b818228d-386f-4707-9661-25b01d418474"  >
</g>
<g transform="matrix(1 0 0 1 540 540)" id="2f6f007d-1d76-4a3e-9b12-29eb6b282f77"  >
<rect style="stroke: none; stroke-width: 1; stroke-dasharray: none; stroke-linecap: butt; stroke-dashoffset: 0; stroke-linejoin: miter; stroke-miterlimit: 4; fill: rgb(255,255,255); fill-rule: nonzero; opacity: 1; visibility: hidden;" vector-effect="non-scaling-stroke"  x="-540" y="-540" rx="0" ry="0" width="1080" height="1080" />
</g>
<g transform="matrix(45 0 0 45 540 540)"  >
<g style=""   >
		<g transform="matrix(1 0 0 1 0 -0.49)"  >
<path style="stroke: none; stroke-width: 1; stroke-dasharray: none; stroke-linecap: butt; stroke-dashoffset: 0; stroke-linejoin: miter; stroke-miterlimit: 4; fill: rgb(39,106,54); fill-rule: evenodd; opacity: 1;" vector-effect="non-scaling-stroke"  transform=" translate(-12, -12.01)" d="M 6.14982 0.00976563 L 14.1738 0.00976563 L 20.9744 7.09823 L 20.9744 20.8853 C 20.9744 22.6125 19.5771 24.0098 17.8559 24.0098 L 6.14982 24.0098 C 4.42269 24.0098 3.02539 22.6125 3.02539 20.8853 L 3.02539 3.13419 C 3.02536 1.40706 4.42266 0.00976562 6.14982 0.00976562 L 6.14982 0.00976563 Z" stroke-linecap="round" />
</g>
		<g transform="matrix(1 0 0 1 5.57 -8.97)"  >
<path style="stroke: none; stroke-width: 1; stroke-dasharray: none; stroke-linecap: butt; stroke-dashoffset: 0; stroke-linejoin: miter; stroke-miterlimit: 4; fill: rgb(39,106,54); fill-rule: evenodd; opacity: 0.4;" vector-effect="non-scaling-stroke"  transform=" translate(-17.57, -3.53)" d="M 14.168 0.00976562 L 14.168 7.04425 L 20.9746 7.04425 L 14.168 0.00976562 Z" stroke-linecap="round" />
</g>
</g>
</g>
<g transform="matrix(5.89 0 0 1.56 540 394.29)" id="09cb140f-df8b-4f5e-a26b-e6a87fce6597"  >
<circle style="stroke: rgb(0,0,0); stroke-width: 0; stroke-dasharray: none; stroke-linecap: butt; stroke-dashoffset: 0; stroke-linejoin: miter; stroke-miterlimit: 4; fill: rgb(0,0,0); fill-rule: nonzero; opacity: 1;" vector-effect="non-scaling-stroke"  cx="0" cy="0" r="35" />
</g>
<g transform="matrix(5.29 0 0 1 540 519.53)" id="609628b7-4905-4492-8e00-a45991fd72b4"  >
<rect style="stroke: rgb(0,0,0); stroke-width: 0; stroke-dasharray: none; stroke-linecap: butt; stroke-dashoffset: 0; stroke-linejoin: miter; stroke-miterlimit: 4; fill: rgb(0,0,0); fill-rule: nonzero; opacity: 1;" vector-effect="non-scaling-stroke"  x="-37.165" y="-37.165" rx="0" ry="0" width="74.33" height="74.33" />
</g>
<g transform="matrix(5.23 0 0 1 540 634.46)" id="3d454121-2d62-4814-8b6b-89906415072f"  >
<rect style="stroke: rgb(0,0,0); stroke-width: 0; stroke-dasharray: none; stroke-linecap: butt; stroke-dashoffset: 0; stroke-linejoin: miter; stroke-miterlimit: 4; fill: rgb(0,0,0); fill-rule: nonzero; opacity: 1;" vector-effect="non-scaling-stroke"  x="-37.165" y="-37.165" rx="0" ry="0" width="74.33" height="74.33" />
</g>
<g transform="matrix(5.18 0 0 1 540 744.66)" id="f049743b-7128-40de-a678-5cdcbf543813"  >
<rect style="stroke: rgb(0,0,0); stroke-width: 0; stroke-dasharray: none; stroke-linecap: butt; stroke-dashoffset: 0; stroke-linejoin: miter; stroke-miterlimit: 4; fill: rgb(0,0,0); fill-rule: nonzero; opacity: 1;" vector-effect="non-scaling-stroke"  x="-37.165" y="-37.165" rx="0" ry="0" width="74.33" height="74.33" />
</g>
</svg>