<svg width="616" height="145" viewBox="0 0 616 145" fill="none" xmlns="http://www.w3.org/2000/svg">
<path d="M525.854 0.5L526.002 0.736328L585.077 95.6924V0.5H615.477V144.3H583.299L583.152 144.063L524.277 49.3086V144.3H493.877V0.5H525.854Z" stroke="black"/>
<path d="M429.01 0.5L429.131 0.825195L482.531 143.625L482.783 144.3H449.104L448.989 143.961L438.305 112.5H385.617L374.534 143.966L374.417 144.3H341.739L341.995 143.623L395.995 0.823242L396.117 0.5H429.01ZM394.172 88.0996H429.763L412.258 37.1436L394.172 88.0996Z" stroke="black"/>
<path d="M359.857 0.5V27.9004H317.057V144.3H284.656V27.9004H241.857V0.5H359.857Z" stroke="black"/>
<path d="M185.262 0.5V116.9H254.861V144.3H152.861V0.5H185.262Z" stroke="black"/>
<path d="M87.9941 0.5L88.1152 0.825195L141.516 143.625L141.768 144.3H108.089L107.974 143.961L97.2891 112.5H44.6016L33.5186 143.966L33.4014 144.3H0.723633L0.979492 143.623L54.9795 0.823242L55.1016 0.5H87.9941ZM53.1562 88.0996H88.7471L71.2422 37.1436L53.1562 88.0996Z" stroke="black"/>
</svg>
