<svg width="23" height="23" viewBox="0 0 23 23" fill="none" xmlns="http://www.w3.org/2000/svg">
<path fill-rule="evenodd" clip-rule="evenodd" d="M23 22.6967C23 22.8403 22.8548 22.9385 22.7221 22.8837C21.828 22.5145 18.9134 21.3491 15.9961 20.5988H2.82337C1.26375 20.5988 0 19.4254 0 17.9786V2.61951C0 1.17347 1.26375 0 2.82337 0H20.1749C21.7346 0 22.9992 1.17347 22.9992 2.61951L23 22.6967Z" fill="white"/>
<path fill-rule="evenodd" clip-rule="evenodd" d="M3.13357 8.23318C2.41704 8.5924 2.03308 8.78489 2.00136 7.93463C1.94342 6.3815 3.75176 5.06879 6.0404 5.0026C8.32905 4.93641 10.2313 6.14182 10.2893 7.69495C10.3234 8.60843 9.48041 8.35545 8.31466 8.0056C7.49835 7.76062 6.52376 7.46814 5.58119 7.4954C4.54546 7.52535 3.72588 7.93623 3.13357 8.23318Z" fill="black"/>
<path fill-rule="evenodd" clip-rule="evenodd" d="M19.56 8.29043C20.2766 8.64965 20.6605 8.84214 20.6922 7.99188C20.7502 6.43875 18.9418 5.12604 16.6532 5.05985C14.3646 4.99367 12.4623 6.19907 12.4043 7.7522C12.3702 8.66568 13.2132 8.4127 14.3789 8.06285C15.1953 7.81787 16.1698 7.52539 17.1124 7.55265C18.1481 7.5826 18.9677 7.99348 19.56 8.29043Z" fill="black"/>
</svg>
