<svg xmlns="http://www.w3.org/2000/svg" xmlns:xlink="http://www.w3.org/1999/xlink" viewBox="0 0 430 430" width="430" height="430" preserveAspectRatio="xMidYMid meet" style="width: 100%; height: 100%; transform: translate3d(0px, 0px, 0px); content-visibility: visible;"><defs><clipPath id="__lottie_element_175"><rect width="430" height="430" x="0" y="0"/></clipPath><clipPath id="__lottie_element_177"><path d="M0,0 L430,0 L430,430 L0,430z"/></clipPath><filter id="__lottie_element_183" x="-100%" y="-100%" width="300%" height="300%"><feGaussianBlur result="filter_result_0" stdDeviation="52.5 52.5" edgeMode="wrap"/></filter><g id="__lottie_element_184"><g clip-path="url(#__lottie_element_185)" transform="matrix(1,0,0,1,0,0)" opacity="1" style="display: block;"><g transform="matrix(1,0,0,1,215,215)" opacity="1" style="display: block;"><path stroke-linecap="round" stroke-linejoin="round" fill-opacity="0" class="secondary" stroke="rgb(8,168,138)" stroke-opacity="1" stroke-width="12" d=" M65,165 C65,165 30,165 30,165 C30,165 30,125.44599914550781 30,116.6989974975586 M-65,-165 C-65,-165 -30,-165 -30,-165 C-30,-165 -30,-125.44599914550781 -30,-116.6989974975586 M-65,165 C-65,165 -30,165 -30,165 C-30,165 -30,125.44599914550781 -30,116.6989974975586 M65,-165 C65,-165 30,-165 30,-165 C30,-165 30,-125.44599914550781 30,-116.6989974975586 M-165,65 C-165,65 -165,30 -165,30 C-165,30 -125.44599914550781,30 -116.6989974975586,30 M165,-65 C165,-65 165,-30 165,-30 C165,-30 125.44599914550781,-30 116.6989974975586,-30 M-165,-65 C-165,-65 -165,-30 -165,-30 C-165,-30 -125.44599914550781,-30 -116.6989974975586,-30 M165,65 C165,65 165,30 165,30 C165,30 125.44599914550781,30 116.6989974975586,30"/><g opacity="1" transform="matrix(1,0,0,1,0,0)"/><g opacity="1" transform="matrix(1,0,0,1,0,0)"/><g opacity="1" transform="matrix(1,0,0,1,0,0)"/><g opacity="1" transform="matrix(1,0,0,1,0,0)"/></g><g transform="matrix(1,0,0,1,215,215)" opacity="1" style="display: none;"><g opacity="1" transform="matrix(1,0,0,1,0,0)"/><path stroke-linecap="round" stroke-linejoin="round" fill-opacity="0" class="primary" stroke-dasharray=" 0 45" stroke-dashoffset="278.32501220703125" stroke="rgb(18,19,49)" stroke-opacity="1" stroke-width="18" d=" M67.37556457519531,165 C67.37556457519531,165 30,165 30,165 C30,165 30,144.85800170898438 30,130.14199829101562 M-67.37556457519531,-165 C-67.37556457519531,-165 -30,-165 -30,-165 C-30,-165 -30,-144.85800170898438 -30,-130.14199829101562 M-74.85858917236328,165 C-74.85858917236328,165 -30,165 -30,165 C-30,165 -30,146.01199340820312 -30,131.43899536132812 M74.85858917236328,-165 C74.85858917236328,-165 30,-165 30,-165 C30,-165 30,-146.01199340820312 30,-131.43899536132812 M-165,67.37556457519531 C-165,67.37556457519531 -165,30 -165,30 C-165,30 -144.85800170898438,30 -130.14199829101562,30 M165,-67.37556457519531 C165,-67.37556457519531 165,-30 165,-30 C165,-30 144.85800170898438,-30 130.14199829101562,-30 M-165,-74.73981475830078 C-165,-74.73981475830078 -165,-30 -165,-30 C-165,-30 -145.99400329589844,-30 -131.41799926757812,-30 M165,74.62103271484375 C165,74.62103271484375 165,30 165,30 C165,30 145.9759979248047,30 131.3979949951172,30"/><g opacity="1" transform="matrix(1,0,0,1,0,0)"/><g opacity="1" transform="matrix(1,0,0,1,0,0)"/><g opacity="1" transform="matrix(1,0,0,1,0,0)"/><g opacity="1" transform="matrix(1,0,0,1,0,0)"/></g><g transform="matrix(-1,0,0,-1,135,50)" opacity="1" style="display: block;"><path fill="rgb(255,0,0)" fill-opacity="1" d=" M-15,0 C-15,-8.28 -8.28,-15 0,-15 C8.28,-15 15,-8.28 15,0 C15,8.28 8.28,15 0,15 C-8.28,15 -15,8.28 -15,0z"/><g opacity="1" transform="matrix(0,-1,1,0,0,0)"><path stroke-linecap="butt" stroke-linejoin="miter" fill-opacity="0" stroke-miterlimit="4" class="secondary" stroke="rgb(8,168,138)" stroke-opacity="1" stroke-width="7" d=" M0,-15 C8.278499603271484,-15 15,-8.278499603271484 15,0 C15,8.278499603271484 8.278499603271484,15 0,15 C-8.278499603271484,15 -15,8.278499603271484 -15,0 C-15,-8.278499603271484 -8.278499603271484,-15 0,-15z"/></g></g><g transform="matrix(1,0,0,1,295,380)" opacity="1" style="display: block;"><path fill="rgb(255,0,0)" fill-opacity="1" d=" M-15,0 C-15,-8.28 -8.28,-15 0,-15 C8.28,-15 15,-8.28 15,0 C15,8.28 8.28,15 0,15 C-8.28,15 -15,8.28 -15,0z"/><g opacity="1" transform="matrix(0,-1,1,0,0,0)"><path stroke-linecap="butt" stroke-linejoin="miter" fill-opacity="0" stroke-miterlimit="4" class="secondary" stroke="rgb(8,168,138)" stroke-opacity="1" stroke-width="7" d=" M0,-15 C8.278499603271484,-15 15,-8.278499603271484 15,0 C15,8.278499603271484 8.278499603271484,15 0,15 C-8.278499603271484,15 -15,8.278499603271484 -15,0 C-15,-8.278499603271484 -8.278499603271484,-15 0,-15z"/></g></g><g transform="matrix(-1,0,0,-1,295,50)" opacity="1" style="display: block;"><path fill="rgb(255,0,0)" fill-opacity="1" d=" M-15,0 C-15,-8.28 -8.28,-15 0,-15 C8.28,-15 15,-8.28 15,0 C15,8.28 8.28,15 0,15 C-8.28,15 -15,8.28 -15,0z"/><g opacity="1" transform="matrix(0,-1,1,0,0,0)"><path stroke-linecap="butt" stroke-linejoin="miter" fill-opacity="0" stroke-miterlimit="4" class="secondary" stroke="rgb(8,168,138)" stroke-opacity="1" stroke-width="7" d=" M0,-15 C8.278499603271484,-15 15,-8.278499603271484 15,0 C15,8.278499603271484 8.278499603271484,15 0,15 C-8.278499603271484,15 -15,8.278499603271484 -15,0 C-15,-8.278499603271484 -8.278499603271484,-15 0,-15z"/></g></g><g transform="matrix(1,0,0,1,135,380)" opacity="1" style="display: block;"><path fill="rgb(255,0,0)" fill-opacity="1" d=" M-15,0 C-15,-8.28 -8.28,-15 0,-15 C8.28,-15 15,-8.28 15,0 C15,8.28 8.28,15 0,15 C-8.28,15 -15,8.28 -15,0z"/><g opacity="1" transform="matrix(0,-1,1,0,0,0)"><path stroke-linecap="butt" stroke-linejoin="miter" fill-opacity="0" stroke-miterlimit="4" class="secondary" stroke="rgb(8,168,138)" stroke-opacity="1" stroke-width="7" d=" M0,-15 C8.278499603271484,-15 15,-8.278499603271484 15,0 C15,8.278499603271484 8.278499603271484,15 0,15 C-8.278499603271484,15 -15,8.278499603271484 -15,0 C-15,-8.278499603271484 -8.278499603271484,-15 0,-15z"/></g></g><g transform="matrix(1,0,0,-1,380,135)" opacity="1" style="display: block;"><path fill="rgb(255,0,0)" fill-opacity="1" d=" M-15,0 C-15,-8.28 -8.28,-15 0,-15 C8.28,-15 15,-8.28 15,0 C15,8.28 8.28,15 0,15 C-8.28,15 -15,8.28 -15,0z"/><g opacity="1" transform="matrix(0,-1,1,0,0,0)"><path stroke-linecap="butt" stroke-linejoin="miter" fill-opacity="0" stroke-miterlimit="4" class="secondary" stroke="rgb(8,168,138)" stroke-opacity="1" stroke-width="7" d=" M0,-15 C8.278499603271484,-15 15,-8.278499603271484 15,0 C15,8.278499603271484 8.278499603271484,15 0,15 C-8.278499603271484,15 -15,8.278499603271484 -15,0 C-15,-8.278499603271484 -8.278499603271484,-15 0,-15z"/></g></g><g transform="matrix(-1,0,0,-1,50,295)" opacity="1" style="display: block;"><path fill="rgb(255,0,0)" fill-opacity="1" d=" M-15,0 C-15,-8.28 -8.28,-15 0,-15 C8.28,-15 15,-8.28 15,0 C15,8.28 8.28,15 0,15 C-8.28,15 -15,8.28 -15,0z"/><g opacity="1" transform="matrix(0,-1,1,0,0,0)"><path stroke-linecap="butt" stroke-linejoin="miter" fill-opacity="0" stroke-miterlimit="4" class="secondary" stroke="rgb(8,168,138)" stroke-opacity="1" stroke-width="7" d=" M0,-15 C8.278499603271484,-15 15,-8.278499603271484 15,0 C15,8.278499603271484 8.278499603271484,15 0,15 C-8.278499603271484,15 -15,8.278499603271484 -15,0 C-15,-8.278499603271484 -8.278499603271484,-15 0,-15z"/></g></g><g transform="matrix(1,0,0,-1,380,295)" opacity="1" style="display: block;"><path fill="rgb(255,0,0)" fill-opacity="1" d=" M-15,0 C-15,-8.28 -8.28,-15 0,-15 C8.28,-15 15,-8.28 15,0 C15,8.28 8.28,15 0,15 C-8.28,15 -15,8.28 -15,0z"/><g opacity="1" transform="matrix(0,-1,1,0,0,0)"><path stroke-linecap="butt" stroke-linejoin="miter" fill-opacity="0" stroke-miterlimit="4" class="secondary" stroke="rgb(8,168,138)" stroke-opacity="1" stroke-width="7" d=" M0,-15 C8.278499603271484,-15 15,-8.278499603271484 15,0 C15,8.278499603271484 8.278499603271484,15 0,15 C-8.278499603271484,15 -15,8.278499603271484 -15,0 C-15,-8.278499603271484 -8.278499603271484,-15 0,-15z"/></g></g><g transform="matrix(-1,0,0,-1,50,135)" opacity="1" style="display: block;"><path fill="rgb(255,0,0)" fill-opacity="1" d=" M-15,0 C-15,-8.28 -8.28,-15 0,-15 C8.28,-15 15,-8.28 15,0 C15,8.28 8.28,15 0,15 C-8.28,15 -15,8.28 -15,0z"/><g opacity="1" transform="matrix(0,-1,1,0,0,0)"><path stroke-linecap="butt" stroke-linejoin="miter" fill-opacity="0" stroke-miterlimit="4" class="secondary" stroke="rgb(8,168,138)" stroke-opacity="1" stroke-width="7" d=" M0,-15 C8.278499603271484,-15 15,-8.278499603271484 15,0 C15,8.278499603271484 8.278499603271484,15 0,15 C-8.278499603271484,15 -15,8.278499603271484 -15,0 C-15,-8.278499603271484 -8.278499603271484,-15 0,-15z"/></g></g><g transform="matrix(1,0,0,1,215,215.33799743652344)" opacity="1" style="display: block;"><g opacity="1" transform="matrix(1,0,0,1,0,0)"><path stroke-linecap="round" stroke-linejoin="round" fill-opacity="0" class="primary" stroke-dasharray=" 0" stroke-dashoffset="22" stroke="rgb(18,19,49)" stroke-opacity="1" stroke-width="12" d=" M115,-95 C115,-106.0459976196289 106.0459976196289,-115 95,-115 C95,-115 -95,-115 -95,-115 C-106.0459976196289,-115 -115,-106.0459976196289 -115,-95 C-115,-95 -115,95 -115,95 C-115,106.0459976196289 -106.0459976196289,115 -95,115 C-95,115 95,115 95,115 C106.0459976196289,115 115,106.0459976196289 115,95 C115,95 115,-95 115,-95z"/></g></g><g transform="matrix(1,0,0,1,208.5,215)" opacity="1" style="display: block;"><g opacity="1" transform="matrix(1,0,0,1,0,0)"><g opacity="1" transform="matrix(1,0,0,1,0,0)"><path stroke-linecap="round" stroke-linejoin="round" fill-opacity="0" class="secondary" stroke="rgb(8,168,138)" stroke-opacity="1" stroke-width="12" d=" M53.5,-40 C53.5,-40 53.5,40 53.5,40"/></g><g opacity="1" transform="matrix(1,0,0,1,0,0)"><path stroke-linecap="round" stroke-linejoin="round" fill-opacity="0" class="secondary" stroke="rgb(8,168,138)" stroke-opacity="1" stroke-width="12" d=" M13.3149995803833,20.215999603271484 C13.3149995803833,20.215999603271484 -45.31800079345703,20.215999603271484 -45.31800079345703,20.215999603271484"/></g><g opacity="1" transform="matrix(1,0,0,1,0,0)"><path stroke-linecap="round" stroke-linejoin="round" fill-opacity="0" class="secondary" stroke="rgb(8,168,138)" stroke-opacity="1" stroke-width="12" d=" M21.488000869750977,39.96699905395508 C21.488000869750977,39.96699905395508 -11.598999977111816,-40 -11.598999977111816,-40 C-11.598999977111816,-40 -20.415000915527344,-40 -20.415000915527344,-40 C-20.415000915527344,-40 -53.516998291015625,40.04399871826172 -53.516998291015625,40.04399871826172"/></g></g><g opacity="1" transform="matrix(1,0,0,1,0,0)"><g opacity="1" transform="matrix(1,0,0,1,0,0)"><path stroke-linecap="round" stroke-linejoin="round" fill-opacity="0" class="secondary" stroke="rgb(8,168,138)" stroke-opacity="1" stroke-width="12" d="M0 0"/></g><g opacity="1" transform="matrix(1,0,0,1,0,0)"><path stroke-linecap="round" stroke-linejoin="round" fill-opacity="0" class="secondary" stroke="rgb(8,168,138)" stroke-opacity="1" stroke-width="12" d="M0 0"/></g><g opacity="1" transform="matrix(1,0,0,1,0,0)"><path stroke-linecap="round" stroke-linejoin="round" fill-opacity="0" class="secondary" stroke="rgb(8,168,138)" stroke-opacity="1" stroke-width="12" d="M0 0"/></g></g></g></g></g><clipPath id="__lottie_element_185"><path d="M0,0 L430,0 L430,430 L0,430z"/></clipPath><mask id="__lottie_element_184_1" mask-type="alpha"><use xmlns:ns1="http://www.w3.org/1999/xlink" ns1:href="#__lottie_element_184"/></mask><clipPath id="__lottie_element_537"><path d="M0,0 L430,0 L430,430 L0,430z"/></clipPath><filter id="__lottie_element_542" x="-100%" y="-100%" width="300%" height="300%"><feGaussianBlur result="filter_result_0" stdDeviation="52.5 52.5" edgeMode="wrap"/></filter><g id="__lottie_element_543"><g clip-path="url(#__lottie_element_544)" transform="matrix(1,0,0,1,0,0)" opacity="1" style="display: block;"><g transform="matrix(1,0,0,1,215,215)" opacity="1" style="display: block;"><path stroke-linecap="round" stroke-linejoin="round" fill-opacity="0" class="secondary" stroke="rgb(8,168,138)" stroke-opacity="1" stroke-width="12" d=" M65,165 C65,165 30,165 30,165 C30,165 30,125.44599914550781 30,116.6989974975586 M-65,-165 C-65,-165 -30,-165 -30,-165 C-30,-165 -30,-125.44599914550781 -30,-116.6989974975586 M-65,165 C-65,165 -30,165 -30,165 C-30,165 -30,125.44599914550781 -30,116.6989974975586 M65,-165 C65,-165 30,-165 30,-165 C30,-165 30,-125.44599914550781 30,-116.6989974975586 M-165,65 C-165,65 -165,30 -165,30 C-165,30 -125.44599914550781,30 -116.6989974975586,30 M165,-65 C165,-65 165,-30 165,-30 C165,-30 125.44599914550781,-30 116.6989974975586,-30 M-165,-65 C-165,-65 -165,-30 -165,-30 C-165,-30 -125.44599914550781,-30 -116.6989974975586,-30 M165,65 C165,65 165,30 165,30 C165,30 125.44599914550781,30 116.6989974975586,30"/><g opacity="1" transform="matrix(1,0,0,1,0,0)"/><g opacity="1" transform="matrix(1,0,0,1,0,0)"/><g opacity="1" transform="matrix(1,0,0,1,0,0)"/><g opacity="1" transform="matrix(1,0,0,1,0,0)"/></g><g transform="matrix(-1,0,0,-1,135,50)" opacity="1" style="display: block;"><path fill="rgb(255,0,0)" fill-opacity="1" d=" M-15,0 C-15,-8.28 -8.28,-15 0,-15 C8.28,-15 15,-8.28 15,0 C15,8.28 8.28,15 0,15 C-8.28,15 -15,8.28 -15,0z"/><g opacity="1" transform="matrix(0,-1,1,0,0,0)"><path stroke-linecap="butt" stroke-linejoin="miter" fill-opacity="0" stroke-miterlimit="4" class="secondary" stroke="rgb(8,168,138)" stroke-opacity="1" stroke-width="7" d=" M0,-15 C8.278499603271484,-15 15,-8.278499603271484 15,0 C15,8.278499603271484 8.278499603271484,15 0,15 C-8.278499603271484,15 -15,8.278499603271484 -15,0 C-15,-8.278499603271484 -8.278499603271484,-15 0,-15z"/></g></g><g transform="matrix(1,0,0,1,295,380)" opacity="1" style="display: block;"><path fill="rgb(255,0,0)" fill-opacity="1" d=" M-15,0 C-15,-8.28 -8.28,-15 0,-15 C8.28,-15 15,-8.28 15,0 C15,8.28 8.28,15 0,15 C-8.28,15 -15,8.28 -15,0z"/><g opacity="1" transform="matrix(0,-1,1,0,0,0)"><path stroke-linecap="butt" stroke-linejoin="miter" fill-opacity="0" stroke-miterlimit="4" class="secondary" stroke="rgb(8,168,138)" stroke-opacity="1" stroke-width="7" d=" M0,-15 C8.278499603271484,-15 15,-8.278499603271484 15,0 C15,8.278499603271484 8.278499603271484,15 0,15 C-8.278499603271484,15 -15,8.278499603271484 -15,0 C-15,-8.278499603271484 -8.278499603271484,-15 0,-15z"/></g></g><g transform="matrix(-1,0,0,-1,295,50)" opacity="1" style="display: block;"><path fill="rgb(255,0,0)" fill-opacity="1" d=" M-15,0 C-15,-8.28 -8.28,-15 0,-15 C8.28,-15 15,-8.28 15,0 C15,8.28 8.28,15 0,15 C-8.28,15 -15,8.28 -15,0z"/><g opacity="1" transform="matrix(0,-1,1,0,0,0)"><path stroke-linecap="butt" stroke-linejoin="miter" fill-opacity="0" stroke-miterlimit="4" class="secondary" stroke="rgb(8,168,138)" stroke-opacity="1" stroke-width="7" d=" M0,-15 C8.278499603271484,-15 15,-8.278499603271484 15,0 C15,8.278499603271484 8.278499603271484,15 0,15 C-8.278499603271484,15 -15,8.278499603271484 -15,0 C-15,-8.278499603271484 -8.278499603271484,-15 0,-15z"/></g></g><g transform="matrix(1,0,0,1,135,380)" opacity="1" style="display: block;"><path fill="rgb(255,0,0)" fill-opacity="1" d=" M-15,0 C-15,-8.28 -8.28,-15 0,-15 C8.28,-15 15,-8.28 15,0 C15,8.28 8.28,15 0,15 C-8.28,15 -15,8.28 -15,0z"/><g opacity="1" transform="matrix(0,-1,1,0,0,0)"><path stroke-linecap="butt" stroke-linejoin="miter" fill-opacity="0" stroke-miterlimit="4" class="secondary" stroke="rgb(8,168,138)" stroke-opacity="1" stroke-width="7" d=" M0,-15 C8.278499603271484,-15 15,-8.278499603271484 15,0 C15,8.278499603271484 8.278499603271484,15 0,15 C-8.278499603271484,15 -15,8.278499603271484 -15,0 C-15,-8.278499603271484 -8.278499603271484,-15 0,-15z"/></g></g><g transform="matrix(1,0,0,-1,380,135)" opacity="1" style="display: block;"><path fill="rgb(255,0,0)" fill-opacity="1" d=" M-15,0 C-15,-8.28 -8.28,-15 0,-15 C8.28,-15 15,-8.28 15,0 C15,8.28 8.28,15 0,15 C-8.28,15 -15,8.28 -15,0z"/><g opacity="1" transform="matrix(0,-1,1,0,0,0)"><path stroke-linecap="butt" stroke-linejoin="miter" fill-opacity="0" stroke-miterlimit="4" class="secondary" stroke="rgb(8,168,138)" stroke-opacity="1" stroke-width="7" d=" M0,-15 C8.278499603271484,-15 15,-8.278499603271484 15,0 C15,8.278499603271484 8.278499603271484,15 0,15 C-8.278499603271484,15 -15,8.278499603271484 -15,0 C-15,-8.278499603271484 -8.278499603271484,-15 0,-15z"/></g></g><g transform="matrix(-1,0,0,-1,50,295)" opacity="1" style="display: block;"><path fill="rgb(255,0,0)" fill-opacity="1" d=" M-15,0 C-15,-8.28 -8.28,-15 0,-15 C8.28,-15 15,-8.28 15,0 C15,8.28 8.28,15 0,15 C-8.28,15 -15,8.28 -15,0z"/><g opacity="1" transform="matrix(0,-1,1,0,0,0)"><path stroke-linecap="butt" stroke-linejoin="miter" fill-opacity="0" stroke-miterlimit="4" class="secondary" stroke="rgb(8,168,138)" stroke-opacity="1" stroke-width="7" d=" M0,-15 C8.278499603271484,-15 15,-8.278499603271484 15,0 C15,8.278499603271484 8.278499603271484,15 0,15 C-8.278499603271484,15 -15,8.278499603271484 -15,0 C-15,-8.278499603271484 -8.278499603271484,-15 0,-15z"/></g></g><g transform="matrix(1,0,0,-1,380,295)" opacity="1" style="display: block;"><path fill="rgb(255,0,0)" fill-opacity="1" d=" M-15,0 C-15,-8.28 -8.28,-15 0,-15 C8.28,-15 15,-8.28 15,0 C15,8.28 8.28,15 0,15 C-8.28,15 -15,8.28 -15,0z"/><g opacity="1" transform="matrix(0,-1,1,0,0,0)"><path stroke-linecap="butt" stroke-linejoin="miter" fill-opacity="0" stroke-miterlimit="4" class="secondary" stroke="rgb(8,168,138)" stroke-opacity="1" stroke-width="7" d=" M0,-15 C8.278499603271484,-15 15,-8.278499603271484 15,0 C15,8.278499603271484 8.278499603271484,15 0,15 C-8.278499603271484,15 -15,8.278499603271484 -15,0 C-15,-8.278499603271484 -8.278499603271484,-15 0,-15z"/></g></g><g transform="matrix(-1,0,0,-1,50,135)" opacity="1" style="display: block;"><path fill="rgb(255,0,0)" fill-opacity="1" d=" M-15,0 C-15,-8.28 -8.28,-15 0,-15 C8.28,-15 15,-8.28 15,0 C15,8.28 8.28,15 0,15 C-8.28,15 -15,8.28 -15,0z"/><g opacity="1" transform="matrix(0,-1,1,0,0,0)"><path stroke-linecap="butt" stroke-linejoin="miter" fill-opacity="0" stroke-miterlimit="4" class="secondary" stroke="rgb(8,168,138)" stroke-opacity="1" stroke-width="7" d=" M0,-15 C8.278499603271484,-15 15,-8.278499603271484 15,0 C15,8.278499603271484 8.278499603271484,15 0,15 C-8.278499603271484,15 -15,8.278499603271484 -15,0 C-15,-8.278499603271484 -8.278499603271484,-15 0,-15z"/></g></g><g transform="matrix(1,0,0,1,215,215.33799743652344)" opacity="1" style="display: block;"><g opacity="1" transform="matrix(1,0,0,1,0,0)"><path stroke-linecap="round" stroke-linejoin="round" fill-opacity="0" class="primary" stroke-dasharray=" 0" stroke-dashoffset="22" stroke="rgb(18,19,49)" stroke-opacity="1" stroke-width="12" d=" M115,-95 C115,-106.0459976196289 106.0459976196289,-115 95,-115 C95,-115 -95,-115 -95,-115 C-106.0459976196289,-115 -115,-106.0459976196289 -115,-95 C-115,-95 -115,95 -115,95 C-115,106.0459976196289 -106.0459976196289,115 -95,115 C-95,115 95,115 95,115 C106.0459976196289,115 115,106.0459976196289 115,95 C115,95 115,-95 115,-95z"/></g><g opacity="0" transform="matrix(1,0,0,1,0,-1.215999960899353)"><path stroke-linecap="round" stroke-linejoin="round" fill-opacity="0" class="primary" stroke-dasharray=" 0" stroke-dashoffset="22" stroke="rgb(18,19,49)" stroke-opacity="1" stroke-width="12" d=" M0,-123.7040023803711 C68.31999969482422,-123.7040023803711 123.7040023803711,-68.31999969482422 123.7040023803711,0 C123.7040023803711,68.31999969482422 68.31999969482422,123.7040023803711 0,123.7040023803711 C-68.31999969482422,123.7040023803711 -123.7040023803711,68.31999969482422 -123.7040023803711,0 C-123.7040023803711,-68.31999969482422 -68.31999969482422,-123.7040023803711 0,-123.7040023803711z"/></g></g><g transform="matrix(1,0,0,1,208.5,215)" opacity="1" style="display: block;"><g opacity="1" transform="matrix(1,0,0,1,0,0)"><path stroke-linecap="round" stroke-linejoin="round" fill-opacity="0" class="secondary" stroke="rgb(8,168,138)" stroke-opacity="1" stroke-width="12" d=" M53.5,-40 C53.5,-40 53.5,40 53.5,40"/></g><g opacity="1" transform="matrix(1,0,0,1,0,0)"><path stroke-linecap="round" stroke-linejoin="round" fill-opacity="0" class="secondary" stroke="rgb(8,168,138)" stroke-opacity="1" stroke-width="12" d=" M13.3149995803833,20.215999603271484 C13.3149995803833,20.215999603271484 -45.31800079345703,20.215999603271484 -45.31800079345703,20.215999603271484"/></g><g opacity="1" transform="matrix(1,0,0,1,0,0)"><path stroke-linecap="round" stroke-linejoin="round" fill-opacity="0" class="secondary" stroke="rgb(8,168,138)" stroke-opacity="1" stroke-width="12" d=" M21.488000869750977,39.96699905395508 C21.488000869750977,39.96699905395508 -11.598999977111816,-40 -11.598999977111816,-40 C-11.598999977111816,-40 -20.415000915527344,-40 -20.415000915527344,-40 C-20.415000915527344,-40 -53.516998291015625,40.04399871826172 -53.516998291015625,40.04399871826172"/></g></g></g></g><clipPath id="__lottie_element_544"><path d="M0,0 L430,0 L430,430 L0,430z"/></clipPath><mask id="__lottie_element_543_1" mask-type="alpha"><use xmlns:ns2="http://www.w3.org/1999/xlink" ns2:href="#__lottie_element_543"/></mask></defs><g clip-path="url(#__lottie_element_175)"><g clip-path="url(#__lottie_element_177)" transform="matrix(1,0,0,1,0,0)" opacity="1" style="display: none;"><g mask="url(#__lottie_element_184_1)" style="display: block;"><g filter="url(#__lottie_element_183)" transform="matrix(-0.1674155443906784,-2.3941538333892822,2.3941538333892822,-0.1674155443906784,271.9410095214844,220.4600067138672)" opacity="1"><g class="design" opacity="1" transform="matrix(1,0,0,1,0,0)"><path class="primary" fill="rgb(35,35,35)" fill-opacity="1" d=" M0,-250 C137.97500610351562,-250 250,-137.97500610351562 250,0 C250,137.97500610351562 137.97500610351562,250 0,250 C-137.97500610351562,250 -250,137.97500610351562 -250,0 C-250,-137.97500610351562 -137.97500610351562,-250 0,-250z"/></g><g class="design" opacity="1" transform="matrix(1,0,0,1,113.24199676513672,-118.88400268554688)"><path class="secondary" fill="rgb(197,156,244)" fill-opacity="1" d=" M0,-176.5 C97.47799682617188,-176.5 176.5,-97.47799682617188 176.5,0 C176.5,97.47799682617188 97.47799682617188,176.5 0,176.5 C-43.948001861572266,176.5 -74.39600372314453,142.4429931640625 -105.29000091552734,115.86900329589844 C-142.92100524902344,83.5 -176.5,53.53099822998047 -176.5,0 C-176.5,-97.47799682617188 -97.47799682617188,-176.5 0,-176.5z"/></g></g></g></g><g clip-path="url(#__lottie_element_537)" transform="matrix(1,0,0,1,0,0)" opacity="1" style="display: block;"><g mask="url(#__lottie_element_543_1)" style="display: block;"><g filter="url(#__lottie_element_542)" transform="matrix(-0.1674155443906784,-2.3941538333892822,2.3941538333892822,-0.1674155443906784,271.9410095214844,220.4600067138672)" opacity="1"><g class="design" opacity="1" transform="matrix(1,0,0,1,0,0)"><path class="primary" fill="rgb(35,35,35)" fill-opacity="1" d=" M0,-250 C137.97500610351562,-250 250,-137.97500610351562 250,0 C250,137.97500610351562 137.97500610351562,250 0,250 C-137.97500610351562,250 -250,137.97500610351562 -250,0 C-250,-137.97500610351562 -137.97500610351562,-250 0,-250z"/></g><g class="design" opacity="1" transform="matrix(1,0,0,1,113.24199676513672,-118.88400268554688)"><path class="secondary" fill="rgb(197,156,244)" fill-opacity="1" d=" M0,-176.5 C97.47799682617188,-176.5 176.5,-97.47799682617188 176.5,0 C176.5,97.47799682617188 97.47799682617188,176.5 0,176.5 C-43.948001861572266,176.5 -74.39600372314453,142.4429931640625 -105.29000091552734,115.86900329589844 C-142.92100524902344,83.5 -176.5,53.53099822998047 -176.5,0 C-176.5,-97.47799682617188 -97.47799682617188,-176.5 0,-176.5z"/></g></g></g></g></g></svg>
