<svg xmlns="http://www.w3.org/2000/svg" xmlns:xlink="http://www.w3.org/1999/xlink" viewBox="0 0 430 430" width="430" height="430" preserveAspectRatio="xMidYMid meet" style="width: 100%; height: 100%; transform: translate3d(0px, 0px, 0px); content-visibility: visible;"><defs><clipPath id="__lottie_element_2376"><rect width="430" height="430" x="0" y="0"/></clipPath><clipPath id="__lottie_element_2378"><path d="M0,0 L430,0 L430,430 L0,430z"/></clipPath><filter id="__lottie_element_2384" x="-100%" y="-100%" width="300%" height="300%"><feGaussianBlur result="filter_result_0" stdDeviation="52.5 52.5" edgeMode="wrap"/></filter><g id="__lottie_element_2385"><g clip-path="url(#__lottie_element_2386)" transform="matrix(1,0,0,1,0,0)" opacity="1" style="display: block;"><g transform="matrix(1,0,0,1,215,215)" opacity="1" style="display: block;"><g opacity="1" transform="matrix(1,0,0,1,0,0)"><path stroke-linecap="butt" stroke-linejoin="round" fill-opacity="0" class="secondary" stroke="rgb(18,19,49)" stroke-opacity="1" stroke-width="12" d=" M-155,-135 C-171.56900024414062,-135 -185,-121.56900024414062 -185,-105 C-185,-105 -185,105 -185,105 C-185,121.56900024414062 -171.56900024414062,135 -155,135 C-155,135 155,135 155,135 C171.56900024414062,135 185,121.56900024414062 185,105 C185,105 185,-105 185,-105 C185,-121.56900024414062 171.56900024414062,-135 155,-135 C155,-135 -155,-135 -155,-135z"/></g></g><g transform="matrix(1,0,0,1,220.2779998779297,215)" opacity="1" style="display: block;"><g opacity="1" transform="matrix(1,0,0,1,0,0)"><path stroke-linecap="round" stroke-linejoin="round" fill-opacity="0" class="primary" stroke="rgb(8,168,138)" stroke-opacity="1" stroke-width="12" d="M0 0"/></g><g opacity="1" transform="matrix(1,0,0,1,0,0)"><g opacity="1" transform="matrix(1,0,0,1,0,0)"><path stroke-linecap="round" stroke-linejoin="round" fill-opacity="0" class="primary" stroke="rgb(8,168,138)" stroke-opacity="1" stroke-width="12" d="M0 0"/></g><g opacity="1" transform="matrix(1,0,0,1,0,0)"><path stroke-linecap="round" stroke-linejoin="round" fill-opacity="0" class="primary" stroke="rgb(8,168,138)" stroke-opacity="1" stroke-width="12" d="M0 0"/></g></g></g><g transform="matrix(1,0,0,1,220.2779998779297,215)" opacity="1" style="display: block;"><g opacity="1" transform="matrix(1,0,0,1,0,0)"><path stroke-linecap="round" stroke-linejoin="round" fill-opacity="0" class="primary" stroke="rgb(8,168,138)" stroke-opacity="1" stroke-width="12" d=" M45,50 C45,50 45,5.556000232696533 45,5.556000232696533 M85.27799987792969,-50 C85.27799987792969,-50 45,5.556000232696533 45,5.556000232696533 M4.7220001220703125,-50 C4.7220001220703125,-50 45,5.556000232696533 45,5.556000232696533"/></g><g opacity="1" transform="matrix(1,0,0,1,0,0)"><g opacity="1" transform="matrix(1,0,0,1,0,0)"><path stroke-linecap="round" stroke-linejoin="round" fill-opacity="0" class="primary" stroke="rgb(8,168,138)" stroke-opacity="1" stroke-width="12" d=" M-85.27799987792969,50 C-85.27799987792969,50 -85.27799987792969,15.277999877929688 -85.27799987792969,15.277999877929688"/></g><g opacity="1" transform="matrix(1,0,0,1,0,0)"><path stroke-linecap="round" stroke-linejoin="round" fill-opacity="0" class="primary" stroke="rgb(8,168,138)" stroke-opacity="1" stroke-width="12" d=" M-85.27799987792969,15.277999877929688 C-85.27799987792969,15.277999877929688 -85.27799987792969,-50 -85.27799987792969,-50 C-85.27799987792969,-50 -46.388999938964844,-50 -46.388999938964844,-50 C-31.04800033569336,-50 -18.611000061035156,-37.5629997253418 -18.611000061035156,-22.222000122070312 C-18.611000061035156,-22.222000122070312 -18.611000061035156,-12.5 -18.611000061035156,-12.5 C-18.611000061035156,2.8410000801086426 -31.04800033569336,15.277999877929688 -46.388999938964844,15.277999877929688 C-46.388999938964844,15.277999877929688 -85.27799987792969,15.277999877929688 -85.27799987792969,15.277999877929688z"/></g></g></g></g></g><clipPath id="__lottie_element_2386"><path d="M0,0 L430,0 L430,430 L0,430z"/></clipPath><mask id="__lottie_element_2385_1" mask-type="alpha"><use xmlns:ns1="http://www.w3.org/1999/xlink" ns1:href="#__lottie_element_2385"/></mask></defs><g clip-path="url(#__lottie_element_2376)"><g clip-path="url(#__lottie_element_2378)" transform="matrix(1,0,0,1,0,0)" opacity="1" style="display: block;"><g mask="url(#__lottie_element_2385_1)" style="display: block;"><g filter="url(#__lottie_element_2384)" transform="matrix(-0.1674155443906784,-2.3941538333892822,2.3941538333892822,-0.1674155443906784,271.9410095214844,220.4600067138672)" opacity="1"><g class="design" opacity="1" transform="matrix(1,0,0,1,0,0)"><path class="primary" fill="rgb(35,35,35)" fill-opacity="1" d=" M0,-250 C137.97500610351562,-250 250,-137.97500610351562 250,0 C250,137.97500610351562 137.97500610351562,250 0,250 C-137.97500610351562,250 -250,137.97500610351562 -250,0 C-250,-137.97500610351562 -137.97500610351562,-250 0,-250z"/></g><g class="design" opacity="1" transform="matrix(1,0,0,1,113.24199676513672,-118.88400268554688)"><path class="secondary" fill="rgb(197,156,244)" fill-opacity="1" d=" M0,-176.5 C97.47799682617188,-176.5 176.5,-97.47799682617188 176.5,0 C176.5,97.47799682617188 97.47799682617188,176.5 0,176.5 C-43.948001861572266,176.5 -74.39600372314453,142.4429931640625 -105.29000091552734,115.86900329589844 C-142.92100524902344,83.5 -176.5,53.53099822998047 -176.5,0 C-176.5,-97.47799682617188 -97.47799682617188,-176.5 0,-176.5z"/></g></g></g></g></g></svg>