<svg xmlns="http://www.w3.org/2000/svg" xmlns:xlink="http://www.w3.org/1999/xlink" viewBox="0 0 430 430" width="430" height="430" preserveAspectRatio="xMidYMid meet" style="width: 100%; height: 100%; transform: translate3d(0px, 0px, 0px); content-visibility: visible;"><defs><clipPath id="__lottie_element_274"><rect width="430" height="430" x="0" y="0"/></clipPath><clipPath id="__lottie_element_276"><path d="M0,0 L430,0 L430,430 L0,430z"/></clipPath><filter id="__lottie_element_282" x="-100%" y="-100%" width="300%" height="300%"><feGaussianBlur result="filter_result_0" stdDeviation="52.5 52.5" edgeMode="wrap"/></filter><g id="__lottie_element_283"><g clip-path="url(#__lottie_element_284)" transform="matrix(1,0,0,1,0,0)" opacity="1" style="display: block;"><g transform="matrix(1,0,0,1,201,212.5)" opacity="1" style="display: none;"><g opacity="1" transform="matrix(1,0,0,1,0,0)"><path stroke-linecap="round" stroke-linejoin="miter" fill-opacity="0" stroke-miterlimit="4" class="primary" stroke="rgb(18,19,49)" stroke-opacity="1" stroke-width="12" d=" M-81.26300048828125,123.44499969482422 C-79.72599792480469,124.4530029296875 -78.16799926757812,125.43299865722656 -76.59100341796875,126.38500213623047"/></g></g><g transform="matrix(1,0,0,1,201,212.5)" opacity="1" style="display: block;"><g opacity="1" transform="matrix(1,0,0,1,0,0)"><path stroke-linecap="round" stroke-linejoin="miter" fill-opacity="0" stroke-miterlimit="4" class="primary" stroke="rgb(18,19,49)" stroke-opacity="1" stroke-width="12" d=" M153.93699645996094,147.4949951171875 C177.09500122070312,147.49400329589844 195.75100708007812,147.4929962158203 203.23800659179688,147.4929962158203"/></g></g><g transform="matrix(-1,0,0,-1,392.5,360)" opacity="1" style="display: block;"><g opacity="1" transform="matrix(0,-1,1,0,0,0)"><path stroke-linecap="round" stroke-linejoin="round" fill-opacity="0" class="primary" stroke="rgb(18,19,49)" stroke-opacity="1" stroke-width="12" d=" M14.480632781982422,-1.879402756690979 C14.480632781982422,-1.879402756690979 -0.5699824094772339,-16.930017471313477 -0.5699824094772339,-16.930017471313477 C-0.5699824094772339,-16.930017471313477 -15.620596885681152,-1.879402756690979 -15.620596885681152,-1.879402756690979"/></g></g><g transform="matrix(1,0,0,1,201,212.5)" opacity="1" style="display: block;"><g opacity="1" transform="matrix(1,0,0,1,0,0)"><path stroke-linecap="round" stroke-linejoin="miter" fill-opacity="0" stroke-miterlimit="4" class="secondary" stroke="rgb(8,168,138)" stroke-opacity="1" stroke-width="12" d=" M-125.48899841308594,-78.35600280761719 C-139.7519989013672,-55.65299987792969 -148,-28.790000915527344 -148,0 C-148,53.67100143432617 -119.33399963378906,100.64700317382812 -76.47799682617188,126.4530029296875"/></g></g><g transform="matrix(1,0,0,1,201,212.5)" opacity="1" style="display: block;"><g opacity="1" transform="matrix(1,0,0,1,0,0)"><path stroke-linecap="round" stroke-linejoin="miter" fill-opacity="0" stroke-miterlimit="4" class="primary" stroke="rgb(18,19,49)" stroke-opacity="1" stroke-width="12" d=" M77.10199737548828,-125.45999908447266 C54.560001373291016,-139.43299865722656 27.972000122070312,-147.5 -0.5,-147.5 C-43.92399978637695,-147.5 -82.96499633789062,-128.73500061035156 -109.95700073242188,-98.87200164794922"/></g></g><g transform="matrix(1,0,0,1,201,212.5)" opacity="1" style="display: block;"><g opacity="1" transform="matrix(1,0,0,1,0,0)"><path stroke-linecap="round" stroke-linejoin="miter" fill-opacity="0" stroke-miterlimit="4" class="secondary" stroke="rgb(8,168,138)" stroke-opacity="1" stroke-width="12" d=" M78.68199920654297,124.46700286865234 C119.75700378417969,98.28099822998047 147,52.321998596191406 147,0 C147,-42.702999114990234 128.85299682617188,-81.16799926757812 99.8499984741211,-108.10399627685547"/></g></g><g transform="matrix(1,0,0,1,201,212.5)" opacity="1" style="display: block;"><g opacity="1" transform="matrix(1,0,0,1,0,0)"><path stroke-linecap="round" stroke-linejoin="miter" fill-opacity="0" stroke-miterlimit="4" class="primary" stroke="rgb(18,19,49)" stroke-opacity="1" stroke-width="12" d=" M-180.875,147.5 C-180.99000549316406,147.5 -0.27000001072883606,147.5 -0.15600000321865082,147.5 C9.734000205993652,147.4770050048828 19.395000457763672,146.48199462890625 28.736000061035156,144.60299682617188"/></g></g><g transform="matrix(-0.7095609903335571,-0.7046440243721008,0.7046440243721008,-0.7095609903335571,91.49280548095703,309.3152160644531)" opacity="1" style="display: none;"><g opacity="1" transform="matrix(0,-1,1,0,0,0)"><path stroke-linecap="round" stroke-linejoin="round" fill-opacity="0" class="secondary" stroke="rgb(8,168,138)" stroke-opacity="1" stroke-width="12" d=" M24.420278549194336,6.627326011657715 C24.420278549194336,6.627326011657715 0.5301801562309265,-17.262771606445312 0.5301801562309265,-17.262771606445312 C0.5301801562309265,-17.262771606445312 -23.35991859436035,6.627326011657715 -23.35991859436035,6.627326011657715"/></g></g><g transform="matrix(-0.9924835562705994,0.12237822264432907,-0.12237822264432907,-0.9924835562705994,217.0565643310547,358.6395568847656)" opacity="1" style="display: block;"><g opacity="1" transform="matrix(0,-1,1,0,0,0)"><path stroke-linecap="round" stroke-linejoin="round" fill-opacity="0" class="primary" stroke="rgb(18,19,49)" stroke-opacity="1" stroke-width="12" d=" M35,17.5 C35,17.5 0,-17.5 0,-17.5 C0,-17.5 -35,17.5 -35,17.5"/></g></g><g transform="matrix(0.6516090631484985,-0.7585549354553223,0.7585549354553223,0.6516090631484985,98.22723388671875,103.78302001953125)" opacity="1" style="display: block;"><g opacity="1" transform="matrix(0,-1,1,0,0,0)"><path stroke-linecap="round" stroke-linejoin="round" fill-opacity="0" class="primary" stroke="rgb(18,19,49)" stroke-opacity="1" stroke-width="12" d=" M35,17.5 C35,17.5 0,-17.5 0,-17.5 C0,-17.5 -35,17.5 -35,17.5"/></g></g><g transform="matrix(0.7585549354553223,0.6516090631484985,-0.6516090631484985,0.7585549354553223,308.90106201171875,111.8884048461914)" opacity="1" style="display: block;"><g opacity="1" transform="matrix(0,-1,1,0,0,0)"><path stroke-linecap="round" stroke-linejoin="round" fill-opacity="0" class="secondary" stroke="rgb(8,168,138)" stroke-opacity="1" stroke-width="12" d=" M35,17.5 C35,17.5 0,-17.5 0,-17.5 C0,-17.5 -35,17.5 -35,17.5"/></g></g></g></g><clipPath id="__lottie_element_284"><path d="M0,0 L430,0 L430,430 L0,430z"/></clipPath><mask id="__lottie_element_283_1" mask-type="alpha"><use xmlns:ns1="http://www.w3.org/1999/xlink" ns1:href="#__lottie_element_283"/></mask></defs><g clip-path="url(#__lottie_element_274)"><g clip-path="url(#__lottie_element_276)" transform="matrix(1,0,0,1,0,0)" opacity="1" style="display: block;"><g mask="url(#__lottie_element_283_1)" style="display: block;"><g filter="url(#__lottie_element_282)" transform="matrix(1.4888451099395752,-1.8823764324188232,1.8823764324188232,1.4888451099395752,271.9410095214844,220.4600067138672)" opacity="1"><g class="design" opacity="1" transform="matrix(1,0,0,1,0,0)"><path class="primary" fill="rgb(35,35,35)" fill-opacity="1" d=" M0,-250 C137.97500610351562,-250 250,-137.97500610351562 250,0 C250,137.97500610351562 137.97500610351562,250 0,250 C-137.97500610351562,250 -250,137.97500610351562 -250,0 C-250,-137.97500610351562 -137.97500610351562,-250 0,-250z"/></g><g class="design" opacity="1" transform="matrix(1,0,0,1,113.24199676513672,-118.88400268554688)"><path class="secondary" fill="rgb(197,156,244)" fill-opacity="1" d=" M0,-176.5 C97.47799682617188,-176.5 176.5,-97.47799682617188 176.5,0 C176.5,97.47799682617188 97.47799682617188,176.5 0,176.5 C-43.948001861572266,176.5 -74.39600372314453,142.4429931640625 -105.29000091552734,115.86900329589844 C-142.92100524902344,83.5 -176.5,53.53099822998047 -176.5,0 C-176.5,-97.47799682617188 -97.47799682617188,-176.5 0,-176.5z"/></g></g></g></g></g></svg>