<svg xmlns="http://www.w3.org/2000/svg" xmlns:xlink="http://www.w3.org/1999/xlink" viewBox="0 0 430 430" width="430" height="430" preserveAspectRatio="xMidYMid meet" style="width: 100%; height: 100%; transform: translate3d(0px, 0px, 0px); content-visibility: visible;"><defs><clipPath id="__lottie_element_1876"><rect width="430" height="430" x="0" y="0"/></clipPath><clipPath id="__lottie_element_1878"><path d="M0,0 L430,0 L430,430 L0,430z"/></clipPath><filter id="__lottie_element_1884" x="-100%" y="-100%" width="300%" height="300%"><feGaussianBlur result="filter_result_0" stdDeviation="52.5 52.5" edgeMode="wrap"/></filter><g id="__lottie_element_1885"><g clip-path="url(#__lottie_element_1886)" transform="matrix(1,0,0,1,0,0)" opacity="1" style="display: block;"><g transform="matrix(1,0,0,1,-35.503997802734375,-34.45001220703125)" opacity="1" style="display: block;"><g opacity="1" transform="matrix(1,0,0,1,0,0)"><g opacity="1" transform="matrix(1,0,0,1,287.7749938964844,118.20800018310547)"><path stroke-linecap="round" stroke-linejoin="round" fill-opacity="0" class="secondary" stroke="rgb(8,168,138)" stroke-opacity="1" stroke-width="12" d=" M-81.69400024414062,28.882999420166016 C-81.69400024414062,37.847999572753906 -74.427001953125,45.1150016784668 -65.46199798583984,45.1150016784668 C-56.49700164794922,45.1150016784668 -49.229000091552734,37.847999572753906 -49.229000091552734,28.882999420166016 C-49.229000091552734,19.917999267578125 -56.49700164794922,12.649999618530273 -65.46199798583984,12.649999618530273 C-74.427001953125,12.649999618530273 -81.69400024414062,19.917999267578125 -81.69400024414062,28.882999420166016z M40.334999084472656,55.32500076293945 C37.14500045776367,49.814998626708984 31.174999237060547,46.1150016784668 24.354999542236328,46.1150016784668 C14.164999961853027,46.1150016784668 5.894999980926514,54.3849983215332 5.894999980926514,64.58499908447266 C5.894999980926514,74.78500366210938 14.164999961853027,83.05500030517578 24.354999542236328,83.05500030517578 C28.395000457763672,83.05500030517578 32.125,81.75499725341797 35.165000915527344,79.55500030517578 M28.094999313354492,6.84499979019165 C23.985000610351562,17.864999771118164 13.364999771118164,25.71500015258789 0.9150000214576721,25.71500015258789 C-15.104999542236328,25.71500015258789 -28.094999313354492,12.725000381469727 -28.094999313354492,-3.2950000762939453 C-28.094999313354492,-12.335000038146973 -23.954999923706055,-20.405000686645508 -17.475000381469727,-25.71500015258789"/></g></g><g opacity="1" transform="matrix(1,0,0,1,250.00900268554688,347.9129943847656)"><path stroke-linecap="round" stroke-linejoin="round" fill-opacity="0" class="primary" stroke="rgb(18,19,49)" stroke-opacity="1" stroke-width="12" d=" M55.24700164794922,-50.51599884033203 C55.24700164794922,-50.51599884033203 79.41400146484375,-137.41299438476562 79.41400146484375,-181.14599609375 C79.41400146484375,-223.60499572753906 44.30699920654297,-258.0320129394531 1,-258.0320129394531 C1,-258.0320129394531 -0.008999999612569809,-258.0320129394531 -0.008999999612569809,-258.0320129394531 C-43.316001892089844,-258.0320129394531 -78.4219970703125,-223.60499572753906 -78.4219970703125,-181.14599609375 C-78.4219970703125,-137.41299438476562 -54.25600051879883,-50.51599884033203 -54.25600051879883,-50.51599884033203 M-29.55500030517578,9.319999694824219 C-29.55500030517578,9.319999694824219 -29.55500030517578,9.3100004196167 -29.55500030517578,9.3100004196167 C-24.121999740600586,-1.7200000286102295 -12.503000259399414,-9.350000381469727 0.9649999737739563,-9.350000381469727 C14.432999610900879,-9.350000381469727 26.072999954223633,-1.7200000286102295 31.485000610351562,9.329999923706055 C31.485000610351562,9.34000015258789 31.496000289916992,9.34000015258789 31.496000289916992,9.350000381469727"/></g><g opacity="1" transform="matrix(1,0,0,1,0,0)"><g opacity="1" transform="matrix(1,0,0,1,229.35699462890625,242.5760040283203)"><path stroke-linecap="round" stroke-linejoin="round" fill-opacity="0" class="primary" stroke="rgb(18,19,49)" stroke-opacity="1" stroke-width="12" d=" M41.27899932861328,0 C41.27899932861328,0 41.27899932861328,0 41.27899932861328,0 M0,0 C0,0 0,0 0,0"/></g></g></g><g transform="matrix(1,0,0,1,115.58000183105469,244.81698608398438)" opacity="1" style="display: block;"><g opacity="1" transform="matrix(1,0,0,1,0,0)"><path stroke-linecap="round" stroke-linejoin="round" fill-opacity="0" class="primary" stroke="rgb(18,19,49)" stroke-opacity="1" stroke-width="12" d=" M40.38399887084961,3.509999990463257 C35.78099822998047,6.535999774932861 33.39500045776367,7.920000076293945 29.698999404907227,9.3100004196167 C13.958999633789062,15.204000473022461 -5.120999813079834,14.288000106811523 -14.789999961853027,0.5389999747276306 C-22.527000427246094,-10.460000038146973 -19.885000228881836,-25.648000717163086 -8.88599967956543,-33.3849983215332 C-8.79699993133545,-33.444000244140625 -8.708999633789062,-33.513999938964844 -8.619999885559082,-33.573001861572266 C-4.125999927520752,-36.60900115966797 -6.669000148773193,-43.60599899291992 -12.0600004196167,-43.005001068115234 C-17.993000030517578,-42.345001220703125 -23.847999572753906,-40.29499816894531 -28.746000289916992,-36.845001220703125 C-47.78799819946289,-23.44099998474121 -52.37099838256836,2.8550000190734863 -38.96699905395508,21.9060001373291 C-22.211999893188477,45.70800018310547 10.815999984741211,47.28499984741211 38.07699966430664,37.08399963378906 C40.74800109863281,36.0890007019043 43.625999450683594,34.77799987792969 46.652000427246094,33.22100067138672"/></g></g><g transform="matrix(-1,0,0,1,314.4200134277344,244.81698608398438)" opacity="1" style="display: block;"><g opacity="1" transform="matrix(1,0,0,1,0,0)"><path stroke-linecap="round" stroke-linejoin="round" fill-opacity="0" class="primary" stroke="rgb(18,19,49)" stroke-opacity="1" stroke-width="12" d=" M40.38399887084961,3.509999990463257 C35.78099822998047,6.535999774932861 33.39500045776367,7.920000076293945 29.698999404907227,9.3100004196167 C13.958999633789062,15.204000473022461 -5.120999813079834,14.288000106811523 -14.789999961853027,0.5389999747276306 C-22.527000427246094,-10.460000038146973 -19.885000228881836,-25.648000717163086 -8.88599967956543,-33.3849983215332 C-8.79699993133545,-33.444000244140625 -8.708999633789062,-33.513999938964844 -8.619999885559082,-33.573001861572266 C-4.125999927520752,-36.60900115966797 -6.669000148773193,-43.60599899291992 -12.0600004196167,-43.005001068115234 C-17.993000030517578,-42.345001220703125 -23.847999572753906,-40.29499816894531 -28.746000289916992,-36.845001220703125 C-47.78799819946289,-23.44099998474121 -52.37099838256836,2.8550000190734863 -38.96699905395508,21.9060001373291 C-22.211999893188477,45.70800018310547 10.815999984741211,47.28499984741211 38.07699966430664,37.08399963378906 C40.74800109863281,36.0890007019043 43.625999450683594,34.77799987792969 46.652000427246094,33.22100067138672"/></g></g><g mask="url(#__lottie_element_1902_2)" style="display: block;"><g transform="matrix(-1,0,0,1,292.23199462890625,318.8799743652344)" opacity="1"><g opacity="1" transform="matrix(1,0,0,1,0,0)"><path stroke-linecap="round" stroke-linejoin="round" fill-opacity="0" class="primary" stroke="rgb(18,19,49)" stroke-opacity="1" stroke-width="12" d=" M54.29100036621094,-56.483001708984375 C55.231998443603516,86.62000274658203 -58.768001556396484,76.12000274658203 -54.03499984741211,9.029000282287598 C-53.612998962402344,3.053999900817871 -50.86199951171875,-2.63100004196167 -47.362998962402344,-7.460000038146973 C-44.18000030517578,-11.855999946594238 -37.29999923706055,-9.027000427246094 -38.069000244140625,-3.6559998989105225 C-38.0890007019043,-3.5480000972747803 -38.097999572753906,-3.438999891281128 -38.11800003051758,-3.3399999141693115 C-38.768001556396484,42.869998931884766 37.231998443603516,34.369998931884766 22.98900032043457,-56.483001708984375"/></g></g></g><g transform="matrix(1,0,0,1,137.7689971923828,318.8799743652344)" opacity="1" style="display: block;"><g opacity="1" transform="matrix(1,0,0,1,0,0)"><path stroke-linecap="round" stroke-linejoin="round" fill-opacity="0" class="primary" stroke="rgb(18,19,49)" stroke-opacity="1" stroke-width="12" d=" M54.29100036621094,-56.483001708984375 C55.231998443603516,86.62000274658203 -58.768001556396484,76.12000274658203 -54.03499984741211,9.029000282287598 C-53.612998962402344,3.053999900817871 -50.86199951171875,-2.63100004196167 -47.362998962402344,-7.460000038146973 C-44.18000030517578,-11.855999946594238 -37.29999923706055,-9.027000427246094 -38.069000244140625,-3.6559998989105225 C-38.0890007019043,-3.5480000972747803 -38.097999572753906,-3.438999891281128 -38.11800003051758,-3.3399999141693115 C-38.768001556396484,42.869998931884766 37.231998443603516,34.369998931884766 22.98900032043457,-56.483001708984375"/></g></g></g></g><clipPath id="__lottie_element_1886"><path d="M0,0 L430,0 L430,430 L0,430z"/></clipPath><mask id="__lottie_element_1885_1" mask-type="alpha"><use xmlns:ns1="http://www.w3.org/1999/xlink" ns1:href="#__lottie_element_1885"/></mask><g id="__lottie_element_1902"><g transform="matrix(1,0,0,1,137.7689971923828,318.8799743652344)" opacity="1" style="display: block;"><path fill="rgb(255,0,0)" fill-opacity="1" d=" M54.29100036621094,-56.483001708984375 C55.231998443603516,86.62000274658203 -58.768001556396484,76.12000274658203 -54.03499984741211,9.029000282287598 C-53.612998962402344,3.053999900817871 -50.86199951171875,-2.63100004196167 -47.362998962402344,-7.460000038146973 C-44.18000030517578,-11.855999946594238 -37.29999923706055,-9.027000427246094 -38.069000244140625,-3.6559998989105225 C-38.0890007019043,-3.5480000972747803 -38.097999572753906,-3.438999891281128 -38.11800003051758,-3.3399999141693115 C-38.768001556396484,42.869998931884766 37.231998443603516,34.369998931884766 22.98900032043457,-56.483001708984375"/><g opacity="1" transform="matrix(1,0,0,1,0,0)"/></g></g><filter id="__lottie_element_1908" filterUnits="objectBoundingBox" x="0%" y="0%" width="100%" height="100%"><feComponentTransfer in="SourceGraphic"><feFuncA type="table" tableValues="1.0 0.0"/></feComponentTransfer></filter><mask id="__lottie_element_1902_2" mask-type="alpha"><g filter="url(#__lottie_element_1908)"><rect width="430" height="430" x="0" y="0" fill="#ffffff" opacity="0"/><use xmlns:ns2="http://www.w3.org/1999/xlink" ns2:href="#__lottie_element_1902"/></g></mask></defs><g clip-path="url(#__lottie_element_1876)"><g clip-path="url(#__lottie_element_1878)" transform="matrix(1,0,0,1,0,0)" opacity="1" style="display: block;"><g mask="url(#__lottie_element_1885_1)" style="display: block;"><g filter="url(#__lottie_element_1884)" transform="matrix(-0.1674155443906784,-2.3941538333892822,2.3941538333892822,-0.1674155443906784,271.9410095214844,190.4600067138672)" opacity="1"><g class="design" opacity="1" transform="matrix(1,0,0,1,0,0)"><path class="primary" fill="rgb(162,156,244)" fill-opacity="1" d=" M0,-250 C137.97500610351562,-250 250,-137.97500610351562 250,0 C250,137.97500610351562 137.97500610351562,250 0,250 C-137.97500610351562,250 -250,137.97500610351562 -250,0 C-250,-137.97500610351562 -137.97500610351562,-250 0,-250z"/></g><g class="design" opacity="1" transform="matrix(1,0,0,1,113.24199676513672,-118.88400268554688)"><path class="secondary" fill="rgb(35,35,35)" fill-opacity="1" d=" M0,-176.5 C97.47799682617188,-176.5 176.5,-97.47799682617188 176.5,0 C176.5,97.47799682617188 97.47799682617188,176.5 0,176.5 C-43.948001861572266,176.5 -74.39600372314453,142.4429931640625 -105.29000091552734,115.86900329589844 C-142.92100524902344,83.5 -176.5,53.53099822998047 -176.5,0 C-176.5,-97.47799682617188 -97.47799682617188,-176.5 0,-176.5z"/></g></g></g></g></g></svg>