<svg xmlns="http://www.w3.org/2000/svg" xmlns:xlink="http://www.w3.org/1999/xlink" viewBox="0 0 430 430" width="430" height="430" preserveAspectRatio="xMidYMid meet" style="width: 100%; height: 100%; transform: translate3d(0px, 0px, 0px); content-visibility: visible;"><defs><clipPath id="__lottie_element_3837"><rect width="430" height="430" x="0" y="0"/></clipPath><clipPath id="__lottie_element_3839"><path d="M0,0 L430,0 L430,430 L0,430z"/></clipPath><filter id="__lottie_element_3845" x="-100%" y="-100%" width="300%" height="300%"><feGaussianBlur result="filter_result_0" stdDeviation="52.5 52.5" edgeMode="wrap"/></filter><g id="__lottie_element_3846"><g clip-path="url(#__lottie_element_3847)" transform="matrix(1,0,0,1,0,0)" opacity="1" style="display: block;"><g transform="matrix(1,0,0,1,-35,-35)" opacity="1" style="display: block;"><g opacity="1" transform="matrix(1,0,0,1,268.5220031738281,250)"><path stroke-linecap="round" stroke-linejoin="round" fill-opacity="0" class="secondary" stroke="rgb(8,168,138)" stroke-opacity="1" stroke-width="12" d=" M-18.55299949645996,26.68600082397461 C-18.55299949645996,26.68600082397461 -18.55299949645996,-26.684999465942383 -18.55299949645996,-26.684999465942383 C-18.55299949645996,-26.684999465942383 -18.551000595092773,-26.68600082397461 -18.551000595092773,-26.68600082397461 C-18.551000595092773,-26.68600082397461 1.4220000505447388,-26.68600082397461 1.4220000505447388,-26.68600082397461 C10.883000373840332,-26.68600082397461 18.55299949645996,-19.016000747680664 18.55299949645996,-9.555000305175781 C18.55299949645996,-9.555000305175781 18.55299949645996,-9.555000305175781 18.55299949645996,-9.555000305175781 C18.55299949645996,-0.09399999678134918 10.883000373840332,7.576000213623047 1.4220000505447388,7.576000213623047 C1.4220000505447388,7.576000213623047 -18.551000595092773,7.576000213623047 -18.551000595092773,7.576000213623047"/></g><g opacity="1" transform="matrix(1,0,0,1,310.2619934082031,250.0489959716797)"><path stroke-linecap="round" stroke-linejoin="round" fill-opacity="0" class="secondary" stroke="rgb(8,168,138)" stroke-opacity="1" stroke-width="12" d=" M0,26.63800048828125 C0,26.63800048828125 0,-26.63800048828125 0,-26.63800048828125"/></g><g opacity="1" transform="matrix(1,0,0,1,0,0)"><g opacity="1" transform="matrix(1,0,0,1,204.56100463867188,250)"><path stroke-linecap="round" stroke-linejoin="round" fill-opacity="0" class="secondary" stroke="rgb(8,168,138)" stroke-opacity="1" stroke-width="12" d=" M22.572999954223633,26.687000274658203 C22.572999954223633,26.687000274658203 8.914999961853027,-26.687000274658203 8.914999961853027,-26.687000274658203 C8.914999961853027,-26.687000274658203 -7.239999771118164,-26.687000274658203 -7.239999771118164,-26.687000274658203 C-7.239999771118164,-26.687000274658203 -22.572999954223633,26.687000274658203 -22.572999954223633,26.687000274658203"/></g><g opacity="1" transform="matrix(1,0,0,1,204.75799560546875,264.1520080566406)"><path stroke-linecap="round" stroke-linejoin="round" fill-opacity="0" class="secondary" stroke="rgb(8,168,138)" stroke-opacity="1" stroke-width="12" d=" M-18.889999389648438,0 C-18.889999389648438,0 18.889999389648438,0 18.889999389648438,0"/></g></g></g><g transform="matrix(1,0,0,1,215,215)" opacity="1" style="display: block;"><g opacity="1" transform="matrix(1,0,0,1,0,0)"><path stroke-linecap="round" stroke-linejoin="round" fill-opacity="0" class="primary" stroke="rgb(18,19,49)" stroke-opacity="1" stroke-width="12" d=" M0,-106.74600219726562 C58.95399856567383,-106.74600219726562 106.74600219726562,-58.95399856567383 106.74600219726562,0 C106.74600219726562,58.95399856567383 58.95399856567383,106.74600219726562 0,106.74600219726562 C-58.95399856567383,106.74600219726562 -106.74600219726562,58.95399856567383 -106.74600219726562,0 C-106.74600219726562,-58.95399856567383 -58.95399856567383,-106.74600219726562 0,-106.74600219726562z"/></g></g><g transform="matrix(0.8990152478218079,0.042090095579624176,-0.042090095579624176,0.8990152478218079,215,215)" opacity="1" style="display: block;"><g opacity="1" transform="matrix(1,0,0,1,0,0)"><path stroke-linecap="round" stroke-linejoin="round" fill-opacity="0" class="primary" stroke="rgb(18,19,49)" stroke-opacity="1" stroke-width="13.3" d=" M167.38099670410156,33.77899932861328 C167.38099670410156,33.77899932861328 157.6490020751953,28.15999984741211 157.6490020751953,28.15999984741211 C159.27099609375,19.01799964904785 160.11900329589844,9.607999801635742 160.11900329589844,0 C160.11900329589844,-9.607999801635742 159.27099609375,-19.01799964904785 157.6490020751953,-28.15999984741211 C157.6490020751953,-28.15999984741211 167.38099670410156,-33.77899932861328 167.38099670410156,-33.77899932861328 C179.27999877929688,-40.64899826049805 183.35699462890625,-55.86399841308594 176.48699951171875,-67.76300048828125 C176.48699951171875,-67.76300048828125 146.92799377441406,-118.95999908447266 146.92799377441406,-118.95999908447266 C140.05799865722656,-130.85800170898438 124.84300231933594,-134.93499755859375 112.94400024414062,-128.0659942626953 C112.94400024414062,-128.0659942626953 103.18199920654297,-122.43000030517578 103.18199920654297,-122.43000030517578 C88.86199951171875,-134.51100158691406 72.39900207519531,-144.1280059814453 54.4370002746582,-150.62100219726562 C54.4370002746582,-150.62100219726562 54.4370002746582,-161.84500122070312 54.4370002746582,-161.84500122070312 C54.4370002746582,-175.5850067138672 43.29899978637695,-186.72300720214844 29.55900001525879,-186.72300720214844 C29.55900001525879,-186.72300720214844 -29.55900001525879,-186.72300720214844 -29.55900001525879,-186.72300720214844 C-43.29899978637695,-186.72300720214844 -54.4370002746582,-175.5850067138672 -54.4370002746582,-161.84500122070312 C-54.4370002746582,-161.84500122070312 -54.4370002746582,-150.62100219726562 -54.4370002746582,-150.62100219726562 C-72.39900207519531,-144.1280059814453 -88.86199951171875,-134.51100158691406 -103.18199920654297,-122.43000030517578 C-103.18199920654297,-122.43000030517578 -112.94400024414062,-128.0659942626953 -112.94400024414062,-128.0659942626953 C-124.84300231933594,-134.93499755859375 -140.05799865722656,-130.85800170898438 -146.92799377441406,-118.95999908447266 C-146.92799377441406,-118.95999908447266 -176.48699951171875,-67.76300048828125 -176.48699951171875,-67.76300048828125 C-183.35699462890625,-55.86399841308594 -179.27999877929688,-40.64899826049805 -167.38099670410156,-33.77899932861328 C-167.38099670410156,-33.77899932861328 -157.6490020751953,-28.15999984741211 -157.6490020751953,-28.15999984741211 C-159.27099609375,-19.01799964904785 -160.11900329589844,-9.607999801635742 -160.11900329589844,0 C-160.11900329589844,9.607999801635742 -159.27099609375,19.01799964904785 -157.6490020751953,28.15999984741211 C-157.6490020751953,28.15999984741211 -167.38099670410156,33.77899932861328 -167.38099670410156,33.77899932861328 C-179.27999877929688,40.64899826049805 -183.35699462890625,55.86399841308594 -176.48699951171875,67.76300048828125 C-176.48699951171875,67.76300048828125 -146.92799377441406,118.95999908447266 -146.92799377441406,118.95999908447266 C-140.05799865722656,130.85899353027344 -124.84300231933594,134.93600463867188 -112.94400024414062,128.0659942626953 C-112.94400024414062,128.0659942626953 -103.18199920654297,122.43000030517578 -103.18199920654297,122.43000030517578 C-88.86199951171875,134.51100158691406 -72.39900207519531,144.1280059814453 -54.4370002746582,150.62100219726562 C-54.4370002746582,150.62100219726562 -54.4370002746582,161.84500122070312 -54.4370002746582,161.84500122070312 C-54.4370002746582,175.5850067138672 -43.29899978637695,186.72300720214844 -29.55900001525879,186.72300720214844 C-29.55900001525879,186.72300720214844 29.55900001525879,186.72300720214844 29.55900001525879,186.72300720214844 C43.29899978637695,186.72300720214844 54.4370002746582,175.5850067138672 54.4370002746582,161.84500122070312 C54.4370002746582,161.84500122070312 54.4370002746582,150.62100219726562 54.4370002746582,150.62100219726562 C72.39900207519531,144.1280059814453 88.86199951171875,134.51100158691406 103.18199920654297,122.43000030517578 C103.18199920654297,122.43000030517578 112.94400024414062,128.0659942626953 112.94400024414062,128.0659942626953 C124.84300231933594,134.93600463867188 140.05799865722656,130.85899353027344 146.92799377441406,118.95999908447266 C146.92799377441406,118.95999908447266 176.48699951171875,67.76300048828125 176.48699951171875,67.76300048828125 C183.35699462890625,55.86399841308594 179.27999877929688,40.64899826049805 167.38099670410156,33.77899932861328z"/></g></g></g></g><clipPath id="__lottie_element_3847"><path d="M0,0 L430,0 L430,430 L0,430z"/></clipPath><mask id="__lottie_element_3846_1" mask-type="alpha"><use xmlns:ns1="http://www.w3.org/1999/xlink" ns1:href="#__lottie_element_3846"/></mask><clipPath id="__lottie_element_3983"><path d="M0,0 L430,0 L430,430 L0,430z"/></clipPath><filter id="__lottie_element_3988" x="-100%" y="-100%" width="300%" height="300%"><feGaussianBlur result="filter_result_0" stdDeviation="52.5 52.5" edgeMode="wrap"/></filter><g id="__lottie_element_3989"><g clip-path="url(#__lottie_element_3990)" transform="matrix(1,0,0,1,0,0)" opacity="1" style="display: block;"><g transform="matrix(1,0,0,1,-35,-35)" opacity="1" style="display: block;"><g opacity="1" transform="matrix(1,0,0,1,268.5220031738281,250)"><path stroke-linecap="round" stroke-linejoin="round" fill-opacity="0" class="secondary" stroke="rgb(8,168,138)" stroke-opacity="1" stroke-width="12" d=" M-18.55299949645996,26.68600082397461 C-18.55299949645996,26.68600082397461 -18.55299949645996,-26.684999465942383 -18.55299949645996,-26.684999465942383 C-18.55299949645996,-26.684999465942383 -18.551000595092773,-26.68600082397461 -18.551000595092773,-26.68600082397461 C-18.551000595092773,-26.68600082397461 1.4220000505447388,-26.68600082397461 1.4220000505447388,-26.68600082397461 C10.883000373840332,-26.68600082397461 18.55299949645996,-19.016000747680664 18.55299949645996,-9.555000305175781 C18.55299949645996,-9.555000305175781 18.55299949645996,-9.555000305175781 18.55299949645996,-9.555000305175781 C18.55299949645996,-0.09399999678134918 10.883000373840332,7.576000213623047 1.4220000505447388,7.576000213623047 C1.4220000505447388,7.576000213623047 -18.551000595092773,7.576000213623047 -18.551000595092773,7.576000213623047"/></g><g opacity="1" transform="matrix(1,0,0,1,310.2619934082031,250.0489959716797)"><path stroke-linecap="round" stroke-linejoin="round" fill-opacity="0" class="secondary" stroke="rgb(8,168,138)" stroke-opacity="1" stroke-width="12" d=" M0,26.63800048828125 C0,26.63800048828125 0,-26.63800048828125 0,-26.63800048828125"/></g><g opacity="1" transform="matrix(1,0,0,1,0,0)"><g opacity="1" transform="matrix(1,0,0,1,204.56100463867188,250)"><path stroke-linecap="round" stroke-linejoin="round" fill-opacity="0" class="secondary" stroke="rgb(8,168,138)" stroke-opacity="1" stroke-width="12" d=" M22.572999954223633,26.687000274658203 C22.572999954223633,26.687000274658203 8.914999961853027,-26.687000274658203 8.914999961853027,-26.687000274658203 C8.914999961853027,-26.687000274658203 -7.239999771118164,-26.687000274658203 -7.239999771118164,-26.687000274658203 C-7.239999771118164,-26.687000274658203 -22.572999954223633,26.687000274658203 -22.572999954223633,26.687000274658203"/></g><g opacity="1" transform="matrix(1,0,0,1,204.75799560546875,264.1520080566406)"><path stroke-linecap="round" stroke-linejoin="round" fill-opacity="0" class="secondary" stroke="rgb(8,168,138)" stroke-opacity="1" stroke-width="12" d=" M-18.889999389648438,0 C-18.889999389648438,0 18.889999389648438,0 18.889999389648438,0"/></g></g></g><g transform="matrix(1,0,0,1,215,215)" opacity="1" style="display: block;"><g opacity="1" transform="matrix(1,0,0,1,0,0)"><path stroke-linecap="round" stroke-linejoin="round" fill-opacity="0" class="primary" stroke="rgb(18,19,49)" stroke-opacity="1" stroke-width="12" d=" M0,-106.74600219726562 C58.95399856567383,-106.74600219726562 106.74600219726562,-58.95399856567383 106.74600219726562,0 C106.74600219726562,58.95399856567383 58.95399856567383,106.74600219726562 0,106.74600219726562 C-58.95399856567383,106.74600219726562 -106.74600219726562,58.95399856567383 -106.74600219726562,0 C-106.74600219726562,-58.95399856567383 -58.95399856567383,-106.74600219726562 0,-106.74600219726562z"/></g></g><g transform="matrix(0.8994495272636414,0.0314723402261734,-0.0314723402261734,0.8994495272636414,215,215)" opacity="1" style="display: block;"><g opacity="1" transform="matrix(1,0,0,1,0,0)"><path stroke-linecap="round" stroke-linejoin="round" fill-opacity="0" class="primary" stroke="rgb(18,19,49)" stroke-opacity="1" stroke-width="13.3" d=" M167.38099670410156,33.77899932861328 C167.38099670410156,33.77899932861328 157.6490020751953,28.15999984741211 157.6490020751953,28.15999984741211 C159.27099609375,19.01799964904785 160.11900329589844,9.607999801635742 160.11900329589844,0 C160.11900329589844,-9.607999801635742 159.27099609375,-19.01799964904785 157.6490020751953,-28.15999984741211 C157.6490020751953,-28.15999984741211 167.38099670410156,-33.77899932861328 167.38099670410156,-33.77899932861328 C179.27999877929688,-40.64899826049805 183.35699462890625,-55.86399841308594 176.48699951171875,-67.76300048828125 C176.48699951171875,-67.76300048828125 146.92799377441406,-118.95999908447266 146.92799377441406,-118.95999908447266 C140.05799865722656,-130.85800170898438 124.84300231933594,-134.93499755859375 112.94400024414062,-128.0659942626953 C112.94400024414062,-128.0659942626953 103.18199920654297,-122.43000030517578 103.18199920654297,-122.43000030517578 C88.86199951171875,-134.51100158691406 72.39900207519531,-144.1280059814453 54.4370002746582,-150.62100219726562 C54.4370002746582,-150.62100219726562 54.4370002746582,-161.84500122070312 54.4370002746582,-161.84500122070312 C54.4370002746582,-175.5850067138672 43.29899978637695,-186.72300720214844 29.55900001525879,-186.72300720214844 C29.55900001525879,-186.72300720214844 -29.55900001525879,-186.72300720214844 -29.55900001525879,-186.72300720214844 C-43.29899978637695,-186.72300720214844 -54.4370002746582,-175.5850067138672 -54.4370002746582,-161.84500122070312 C-54.4370002746582,-161.84500122070312 -54.4370002746582,-150.62100219726562 -54.4370002746582,-150.62100219726562 C-72.39900207519531,-144.1280059814453 -88.86199951171875,-134.51100158691406 -103.18199920654297,-122.43000030517578 C-103.18199920654297,-122.43000030517578 -112.94400024414062,-128.0659942626953 -112.94400024414062,-128.0659942626953 C-124.84300231933594,-134.93499755859375 -140.05799865722656,-130.85800170898438 -146.92799377441406,-118.95999908447266 C-146.92799377441406,-118.95999908447266 -176.48699951171875,-67.76300048828125 -176.48699951171875,-67.76300048828125 C-183.35699462890625,-55.86399841308594 -179.27999877929688,-40.64899826049805 -167.38099670410156,-33.77899932861328 C-167.38099670410156,-33.77899932861328 -157.6490020751953,-28.15999984741211 -157.6490020751953,-28.15999984741211 C-159.27099609375,-19.01799964904785 -160.11900329589844,-9.607999801635742 -160.11900329589844,0 C-160.11900329589844,9.607999801635742 -159.27099609375,19.01799964904785 -157.6490020751953,28.15999984741211 C-157.6490020751953,28.15999984741211 -167.38099670410156,33.77899932861328 -167.38099670410156,33.77899932861328 C-179.27999877929688,40.64899826049805 -183.35699462890625,55.86399841308594 -176.48699951171875,67.76300048828125 C-176.48699951171875,67.76300048828125 -146.92799377441406,118.95999908447266 -146.92799377441406,118.95999908447266 C-140.05799865722656,130.85899353027344 -124.84300231933594,134.93600463867188 -112.94400024414062,128.0659942626953 C-112.94400024414062,128.0659942626953 -103.18199920654297,122.43000030517578 -103.18199920654297,122.43000030517578 C-88.86199951171875,134.51100158691406 -72.39900207519531,144.1280059814453 -54.4370002746582,150.62100219726562 C-54.4370002746582,150.62100219726562 -54.4370002746582,161.84500122070312 -54.4370002746582,161.84500122070312 C-54.4370002746582,175.5850067138672 -43.29899978637695,186.72300720214844 -29.55900001525879,186.72300720214844 C-29.55900001525879,186.72300720214844 29.55900001525879,186.72300720214844 29.55900001525879,186.72300720214844 C43.29899978637695,186.72300720214844 54.4370002746582,175.5850067138672 54.4370002746582,161.84500122070312 C54.4370002746582,161.84500122070312 54.4370002746582,150.62100219726562 54.4370002746582,150.62100219726562 C72.39900207519531,144.1280059814453 88.86199951171875,134.51100158691406 103.18199920654297,122.43000030517578 C103.18199920654297,122.43000030517578 112.94400024414062,128.0659942626953 112.94400024414062,128.0659942626953 C124.84300231933594,134.93600463867188 140.05799865722656,130.85899353027344 146.92799377441406,118.95999908447266 C146.92799377441406,118.95999908447266 176.48699951171875,67.76300048828125 176.48699951171875,67.76300048828125 C183.35699462890625,55.86399841308594 179.27999877929688,40.64899826049805 167.38099670410156,33.77899932861328z"/></g></g></g></g><clipPath id="__lottie_element_3990"><path d="M0,0 L430,0 L430,430 L0,430z"/></clipPath><mask id="__lottie_element_3989_1" mask-type="alpha"><use xmlns:ns2="http://www.w3.org/1999/xlink" ns2:href="#__lottie_element_3989"/></mask><clipPath id="__lottie_element_4115"><path d="M0,0 L430,0 L430,430 L0,430z"/></clipPath><filter id="__lottie_element_4120" x="-100%" y="-100%" width="300%" height="300%"><feGaussianBlur result="filter_result_0" stdDeviation="52.5 52.5" edgeMode="wrap"/></filter><g id="__lottie_element_4121"><g clip-path="url(#__lottie_element_4122)" transform="matrix(1,0,0,1,0,0)" opacity="1" style="display: block;"><g transform="matrix(1,0,0,1,-35,-35)" opacity="1" style="display: block;"><g opacity="1" transform="matrix(1,0,0,1,268.5220031738281,250)"><path stroke-linecap="round" stroke-linejoin="round" fill-opacity="0" class="secondary" stroke="rgb(8,168,138)" stroke-opacity="1" stroke-width="12" d=" M-18.55299949645996,26.68600082397461 C-18.55299949645996,26.68600082397461 -18.55299949645996,-26.684999465942383 -18.55299949645996,-26.684999465942383 C-18.55299949645996,-26.684999465942383 -18.551000595092773,-26.68600082397461 -18.551000595092773,-26.68600082397461 C-18.551000595092773,-26.68600082397461 1.4220000505447388,-26.68600082397461 1.4220000505447388,-26.68600082397461 C10.883000373840332,-26.68600082397461 18.55299949645996,-19.016000747680664 18.55299949645996,-9.555000305175781 C18.55299949645996,-9.555000305175781 18.55299949645996,-9.555000305175781 18.55299949645996,-9.555000305175781 C18.55299949645996,-0.09399999678134918 10.883000373840332,7.576000213623047 1.4220000505447388,7.576000213623047 C1.4220000505447388,7.576000213623047 -18.551000595092773,7.576000213623047 -18.551000595092773,7.576000213623047"/></g><g opacity="1" transform="matrix(1,0,0,1,310.2619934082031,250.0489959716797)"><path stroke-linecap="round" stroke-linejoin="round" fill-opacity="0" class="secondary" stroke="rgb(8,168,138)" stroke-opacity="1" stroke-width="12" d=" M0,26.63800048828125 C0,26.63800048828125 0,-26.63800048828125 0,-26.63800048828125"/></g><g opacity="1" transform="matrix(1,0,0,1,0,0)"><g opacity="1" transform="matrix(1,0,0,1,204.56100463867188,250)"><path stroke-linecap="round" stroke-linejoin="round" fill-opacity="0" class="secondary" stroke="rgb(8,168,138)" stroke-opacity="1" stroke-width="12" d=" M22.572999954223633,26.687000274658203 C22.572999954223633,26.687000274658203 8.914999961853027,-26.687000274658203 8.914999961853027,-26.687000274658203 C8.914999961853027,-26.687000274658203 -7.239999771118164,-26.687000274658203 -7.239999771118164,-26.687000274658203 C-7.239999771118164,-26.687000274658203 -22.572999954223633,26.687000274658203 -22.572999954223633,26.687000274658203"/></g><g opacity="1" transform="matrix(1,0,0,1,204.75799560546875,264.1520080566406)"><path stroke-linecap="round" stroke-linejoin="round" fill-opacity="0" class="secondary" stroke="rgb(8,168,138)" stroke-opacity="1" stroke-width="12" d=" M-18.889999389648438,0 C-18.889999389648438,0 18.889999389648438,0 18.889999389648438,0"/></g></g></g><g transform="matrix(1,0,0,1,215,215)" opacity="1" style="display: block;"><g opacity="1" transform="matrix(1,0,0,1,0,0)"><path stroke-linecap="round" stroke-linejoin="round" fill-opacity="0" class="primary" stroke="rgb(18,19,49)" stroke-opacity="1" stroke-width="12" d=" M0,-106.74600219726562 C58.95399856567383,-106.74600219726562 106.74600219726562,-58.95399856567383 106.74600219726562,0 C106.74600219726562,58.95399856567383 58.95399856567383,106.74600219726562 0,106.74600219726562 C-58.95399856567383,106.74600219726562 -106.74600219726562,58.95399856567383 -106.74600219726562,0 C-106.74600219726562,-58.95399856567383 -58.95399856567383,-106.74600219726562 0,-106.74600219726562z"/></g></g><g transform="matrix(-0.899943470954895,0.01008533127605915,-0.01008533127605915,-0.899943470954895,215,215)" opacity="1" style="display: block;"><g opacity="1" transform="matrix(1,0,0,1,0,0)"><path stroke-linecap="round" stroke-linejoin="round" fill-opacity="0" class="primary" stroke="rgb(18,19,49)" stroke-opacity="1" stroke-width="13.3" d=" M167.38099670410156,33.77899932861328 C167.38099670410156,33.77899932861328 157.6490020751953,28.15999984741211 157.6490020751953,28.15999984741211 C159.27099609375,19.01799964904785 160.11900329589844,9.607999801635742 160.11900329589844,0 C160.11900329589844,-9.607999801635742 159.27099609375,-19.01799964904785 157.6490020751953,-28.15999984741211 C157.6490020751953,-28.15999984741211 167.38099670410156,-33.77899932861328 167.38099670410156,-33.77899932861328 C179.27999877929688,-40.64899826049805 183.35699462890625,-55.86399841308594 176.48699951171875,-67.76300048828125 C176.48699951171875,-67.76300048828125 146.92799377441406,-118.95999908447266 146.92799377441406,-118.95999908447266 C140.05799865722656,-130.85800170898438 124.84300231933594,-134.93499755859375 112.94400024414062,-128.0659942626953 C112.94400024414062,-128.0659942626953 103.18199920654297,-122.43000030517578 103.18199920654297,-122.43000030517578 C88.86199951171875,-134.51100158691406 72.39900207519531,-144.1280059814453 54.4370002746582,-150.62100219726562 C54.4370002746582,-150.62100219726562 54.4370002746582,-161.84500122070312 54.4370002746582,-161.84500122070312 C54.4370002746582,-175.5850067138672 43.29899978637695,-186.72300720214844 29.55900001525879,-186.72300720214844 C29.55900001525879,-186.72300720214844 -29.55900001525879,-186.72300720214844 -29.55900001525879,-186.72300720214844 C-43.29899978637695,-186.72300720214844 -54.4370002746582,-175.5850067138672 -54.4370002746582,-161.84500122070312 C-54.4370002746582,-161.84500122070312 -54.4370002746582,-150.62100219726562 -54.4370002746582,-150.62100219726562 C-72.39900207519531,-144.1280059814453 -88.86199951171875,-134.51100158691406 -103.18199920654297,-122.43000030517578 C-103.18199920654297,-122.43000030517578 -112.94400024414062,-128.0659942626953 -112.94400024414062,-128.0659942626953 C-124.84300231933594,-134.93499755859375 -140.05799865722656,-130.85800170898438 -146.92799377441406,-118.95999908447266 C-146.92799377441406,-118.95999908447266 -176.48699951171875,-67.76300048828125 -176.48699951171875,-67.76300048828125 C-183.35699462890625,-55.86399841308594 -179.27999877929688,-40.64899826049805 -167.38099670410156,-33.77899932861328 C-167.38099670410156,-33.77899932861328 -157.6490020751953,-28.15999984741211 -157.6490020751953,-28.15999984741211 C-159.27099609375,-19.01799964904785 -160.11900329589844,-9.607999801635742 -160.11900329589844,0 C-160.11900329589844,9.607999801635742 -159.27099609375,19.01799964904785 -157.6490020751953,28.15999984741211 C-157.6490020751953,28.15999984741211 -167.38099670410156,33.77899932861328 -167.38099670410156,33.77899932861328 C-179.27999877929688,40.64899826049805 -183.35699462890625,55.86399841308594 -176.48699951171875,67.76300048828125 C-176.48699951171875,67.76300048828125 -146.92799377441406,118.95999908447266 -146.92799377441406,118.95999908447266 C-140.05799865722656,130.85899353027344 -124.84300231933594,134.93600463867188 -112.94400024414062,128.0659942626953 C-112.94400024414062,128.0659942626953 -103.18199920654297,122.43000030517578 -103.18199920654297,122.43000030517578 C-88.86199951171875,134.51100158691406 -72.39900207519531,144.1280059814453 -54.4370002746582,150.62100219726562 C-54.4370002746582,150.62100219726562 -54.4370002746582,161.84500122070312 -54.4370002746582,161.84500122070312 C-54.4370002746582,175.5850067138672 -43.29899978637695,186.72300720214844 -29.55900001525879,186.72300720214844 C-29.55900001525879,186.72300720214844 29.55900001525879,186.72300720214844 29.55900001525879,186.72300720214844 C43.29899978637695,186.72300720214844 54.4370002746582,175.5850067138672 54.4370002746582,161.84500122070312 C54.4370002746582,161.84500122070312 54.4370002746582,150.62100219726562 54.4370002746582,150.62100219726562 C72.39900207519531,144.1280059814453 88.86199951171875,134.51100158691406 103.18199920654297,122.43000030517578 C103.18199920654297,122.43000030517578 112.94400024414062,128.0659942626953 112.94400024414062,128.0659942626953 C124.84300231933594,134.93600463867188 140.05799865722656,130.85899353027344 146.92799377441406,118.95999908447266 C146.92799377441406,118.95999908447266 176.48699951171875,67.76300048828125 176.48699951171875,67.76300048828125 C183.35699462890625,55.86399841308594 179.27999877929688,40.64899826049805 167.38099670410156,33.77899932861328z"/></g></g></g></g><clipPath id="__lottie_element_4122"><path d="M0,0 L430,0 L430,430 L0,430z"/></clipPath><mask id="__lottie_element_4121_1" mask-type="alpha"><use xmlns:ns3="http://www.w3.org/1999/xlink" ns3:href="#__lottie_element_4121"/></mask><clipPath id="__lottie_element_4247"><path d="M0,0 L430,0 L430,430 L0,430z"/></clipPath><filter id="__lottie_element_4272" x="-100%" y="-100%" width="300%" height="300%"><feGaussianBlur result="filter_result_0" stdDeviation="52.5 52.5" edgeMode="wrap"/></filter><g id="__lottie_element_4273"><g clip-path="url(#__lottie_element_4274)" transform="matrix(1,0,0,1,0,0)" opacity="1" style="display: block;"><g transform="matrix(1.000022053718567,0,0,1.000022053718567,-35.00543212890625,-35.00550842285156)" opacity="1" style="display: block;"><g opacity="1" transform="matrix(1,0,0,1,310.2619934082031,250.0489959716797)"><path stroke-linecap="round" stroke-linejoin="round" fill-opacity="0" class="secondary" stroke="rgb(8,168,138)" stroke-opacity="1" stroke-width="11.96657627118637" d=" M0,26.63800048828125 C0,26.63800048828125 0,-26.63800048828125 0,-26.63800048828125"/></g><g opacity="1" transform="matrix(1,0,0,1,268.5220031738281,250)"><path stroke-linecap="round" stroke-linejoin="round" fill-opacity="0" class="secondary" stroke="rgb(8,168,138)" stroke-opacity="1" stroke-width="11.96657627118637" d=" M-18.55299949645996,26.68600082397461 C-18.55299949645996,26.68600082397461 -18.55299949645996,-26.684999465942383 -18.55299949645996,-26.684999465942383 C-18.55299949645996,-26.684999465942383 -18.551000595092773,-26.68600082397461 -18.551000595092773,-26.68600082397461 C-18.551000595092773,-26.68600082397461 1.4220000505447388,-26.68600082397461 1.4220000505447388,-26.68600082397461 C10.883000373840332,-26.68600082397461 18.55299949645996,-19.016000747680664 18.55299949645996,-9.555000305175781 C18.55299949645996,-9.555000305175781 18.55299949645996,-9.555000305175781 18.55299949645996,-9.555000305175781 C18.55299949645996,-0.09399999678134918 10.883000373840332,7.576000213623047 1.4220000505447388,7.576000213623047 C1.4220000505447388,7.576000213623047 -18.551000595092773,7.576000213623047 -18.551000595092773,7.576000213623047"/></g><g opacity="1" transform="matrix(1,0,0,1,0,0)"><g opacity="1" transform="matrix(1,0,0,1,204.56100463867188,250)"><path stroke-linecap="round" stroke-linejoin="round" fill-opacity="0" class="secondary" stroke="rgb(8,168,138)" stroke-opacity="1" stroke-width="11.96657627118637" d=" M22.572999954223633,26.687000274658203 C22.572999954223633,26.687000274658203 8.914999961853027,-26.687000274658203 8.914999961853027,-26.687000274658203 C8.914999961853027,-26.687000274658203 -7.239999771118164,-26.687000274658203 -7.239999771118164,-26.687000274658203 C-7.239999771118164,-26.687000274658203 -22.572999954223633,26.687000274658203 -22.572999954223633,26.687000274658203"/></g><g opacity="1" transform="matrix(1,0,0,1,204.75799560546875,264.1520080566406)"><path stroke-linecap="round" stroke-linejoin="round" fill-opacity="0" class="secondary" stroke="rgb(8,168,138)" stroke-opacity="1" stroke-width="11.96657627118637" d=" M-18.889999389648438,0 C-18.889999389648438,0 18.889999389648438,0 18.889999389648438,0"/></g></g></g><g transform="matrix(1,0,0,1,215,215)" opacity="1" style="display: block;"><g opacity="1" transform="matrix(1,0,0,1,0,0)"><path stroke-linecap="round" stroke-linejoin="round" fill-opacity="0" class="primary" stroke="rgb(18,19,49)" stroke-opacity="1" stroke-width="11.996407573480756" d=" M0,-106.76058959960938 C58.962059020996094,-106.76058959960938 106.76058959960938,-58.962059020996094 106.76058959960938,0 C106.76058959960938,58.962059020996094 58.962059020996094,106.76058959960938 0,106.76058959960938 C-58.962059020996094,106.76058959960938 -106.76058959960938,58.962059020996094 -106.76058959960938,0 C-106.76058959960938,-58.962059020996094 -58.962059020996094,-106.76058959960938 0,-106.76058959960938z"/></g></g><g transform="matrix(-0.9000440835952759,0.0005056358058936894,-0.0005056358058936894,-0.9000440835952759,215,215)" opacity="1" style="display: block;"><g opacity="1" transform="matrix(1,0,0,1,0,0)"><path stroke-linecap="round" stroke-linejoin="round" fill-opacity="0" class="primary" stroke="rgb(18,19,49)" stroke-opacity="1" stroke-width="13.24485084745751" d=" M167.38099670410156,33.77899932861328 C167.38099670410156,33.77899932861328 157.6490020751953,28.15999984741211 157.6490020751953,28.15999984741211 C159.27099609375,19.01799964904785 160.11900329589844,9.607999801635742 160.11900329589844,0 C160.11900329589844,-9.607999801635742 159.27099609375,-19.01799964904785 157.6490020751953,-28.15999984741211 C157.6490020751953,-28.15999984741211 167.38099670410156,-33.77899932861328 167.38099670410156,-33.77899932861328 C179.27999877929688,-40.64899826049805 183.35699462890625,-55.86399841308594 176.48699951171875,-67.76300048828125 C176.48699951171875,-67.76300048828125 146.92799377441406,-118.95999908447266 146.92799377441406,-118.95999908447266 C140.05799865722656,-130.85800170898438 124.84300231933594,-134.93499755859375 112.94400024414062,-128.0659942626953 C112.94400024414062,-128.0659942626953 103.18199920654297,-122.43000030517578 103.18199920654297,-122.43000030517578 C88.86199951171875,-134.51100158691406 72.39900207519531,-144.1280059814453 54.4370002746582,-150.62100219726562 C54.4370002746582,-150.62100219726562 54.375999450683594,-162.34500122070312 54.375999450683594,-162.34500122070312 C54.375999450683594,-176.0850067138672 43.23899841308594,-187.22300720214844 29.499000549316406,-187.22300720214844 C29.499000549316406,-187.22300720214844 -29.618999481201172,-187.22300720214844 -29.618999481201172,-187.22300720214844 C-43.35900115966797,-187.22300720214844 -54.49700164794922,-176.0850067138672 -54.49700164794922,-162.34500122070312 C-54.49700164794922,-162.34500122070312 -54.4370002746582,-150.62100219726562 -54.4370002746582,-150.62100219726562 C-72.39900207519531,-144.1280059814453 -88.86199951171875,-134.51100158691406 -103.18199920654297,-122.43000030517578 C-103.18199920654297,-122.43000030517578 -112.94400024414062,-128.0659942626953 -112.94400024414062,-128.0659942626953 C-124.84300231933594,-134.93499755859375 -140.05799865722656,-130.85800170898438 -146.92799377441406,-118.95999908447266 C-146.92799377441406,-118.95999908447266 -176.48699951171875,-67.76300048828125 -176.48699951171875,-67.76300048828125 C-183.35699462890625,-55.86399841308594 -179.27999877929688,-40.64899826049805 -167.38099670410156,-33.77899932861328 C-167.38099670410156,-33.77899932861328 -157.6490020751953,-28.15999984741211 -157.6490020751953,-28.15999984741211 C-159.27099609375,-19.01799964904785 -160.11900329589844,-9.607999801635742 -160.11900329589844,0 C-160.11900329589844,9.607999801635742 -159.27099609375,19.01799964904785 -157.6490020751953,28.15999984741211 C-157.6490020751953,28.15999984741211 -167.38099670410156,33.77899932861328 -167.38099670410156,33.77899932861328 C-179.27999877929688,40.64899826049805 -183.35699462890625,55.86399841308594 -176.48699951171875,67.76300048828125 C-176.48699951171875,67.76300048828125 -146.92799377441406,118.95999908447266 -146.92799377441406,118.95999908447266 C-140.05799865722656,130.85899353027344 -124.84300231933594,134.93600463867188 -112.94400024414062,128.0659942626953 C-112.94400024414062,128.0659942626953 -103.18199920654297,122.43000030517578 -103.18199920654297,122.43000030517578 C-88.86199951171875,134.51100158691406 -72.39900207519531,144.1280059814453 -54.4370002746582,150.62100219726562 C-54.4370002746582,150.62100219726562 -54.4370002746582,161.84500122070312 -54.4370002746582,161.84500122070312 C-54.4370002746582,175.5850067138672 -43.29899978637695,186.72300720214844 -29.55900001525879,186.72300720214844 C-29.55900001525879,186.72300720214844 29.55900001525879,186.72300720214844 29.55900001525879,186.72300720214844 C43.29899978637695,186.72300720214844 54.4370002746582,175.5850067138672 54.4370002746582,161.84500122070312 C54.4370002746582,161.84500122070312 54.4370002746582,150.62100219726562 54.4370002746582,150.62100219726562 C72.39900207519531,144.1280059814453 88.86199951171875,134.51100158691406 103.18199920654297,122.43000030517578 C103.18199920654297,122.43000030517578 112.94400024414062,128.0659942626953 112.94400024414062,128.0659942626953 C124.84300231933594,134.93600463867188 140.05799865722656,130.85899353027344 146.92799377441406,118.95999908447266 C146.92799377441406,118.95999908447266 176.48699951171875,67.76300048828125 176.48699951171875,67.76300048828125 C183.35699462890625,55.86399841308594 179.27999877929688,40.64899826049805 167.38099670410156,33.77899932861328z"/></g></g></g></g><clipPath id="__lottie_element_4274"><path d="M0,0 L430,0 L430,430 L0,430z"/></clipPath><mask id="__lottie_element_4273_1" mask-type="alpha"><use xmlns:ns4="http://www.w3.org/1999/xlink" ns4:href="#__lottie_element_4273"/></mask></defs><g clip-path="url(#__lottie_element_3837)"><g clip-path="url(#__lottie_element_3983)" transform="matrix(1,0,0,1,0,0)" opacity="1" style="display: none;"><g mask="url(#__lottie_element_3989_1)" style="display: block;"><g filter="url(#__lottie_element_3988)" transform="matrix(0.33501094579696655,-2.3765032291412354,2.3765032291412354,0.33501094579696655,269.9410095214844,220.4600067138672)" opacity="1"><g class="design" opacity="1" transform="matrix(1,0,0,1,0,0)"><path class="primary" fill="rgb(35,35,35)" fill-opacity="1" d=" M0,-250 C137.97500610351562,-250 250,-137.97500610351562 250,0 C250,137.97500610351562 137.97500610351562,250 0,250 C-137.97500610351562,250 -250,137.97500610351562 -250,0 C-250,-137.97500610351562 -137.97500610351562,-250 0,-250z"/></g><g class="design" opacity="1" transform="matrix(1,0,0,1,113.24199676513672,-118.88400268554688)"><path class="secondary" fill="rgb(197,156,244)" fill-opacity="1" d=" M0,-176.5 C97.47799682617188,-176.5 176.5,-97.47799682617188 176.5,0 C176.5,97.47799682617188 97.47799682617188,176.5 0,176.5 C-43.948001861572266,176.5 -74.39600372314453,142.4429931640625 -105.29000091552734,115.86900329589844 C-142.92100524902344,83.5 -176.5,53.53099822998047 -176.5,0 C-176.5,-97.47799682617188 -97.47799682617188,-176.5 0,-176.5z"/></g></g></g></g><g clip-path="url(#__lottie_element_4115)" transform="matrix(1,0,0,1,0,0)" opacity="1" style="display: none;"><g mask="url(#__lottie_element_4121_1)" style="display: block;"><g filter="url(#__lottie_element_4120)" transform="matrix(-0.21825367212295532,-2.3900556564331055,2.3900556564331055,-0.21825367212295532,271.9410095214844,220.4600067138672)" opacity="1"><g class="design" opacity="1" transform="matrix(1,0,0,1,0,0)"><path class="primary" fill="rgb(35,35,35)" fill-opacity="1" d=" M0,-250 C137.97500610351562,-250 250,-137.97500610351562 250,0 C250,137.97500610351562 137.97500610351562,250 0,250 C-137.97500610351562,250 -250,137.97500610351562 -250,0 C-250,-137.97500610351562 -137.97500610351562,-250 0,-250z"/></g><g class="design" opacity="1" transform="matrix(1,0,0,1,113.24199676513672,-118.88400268554688)"><path class="secondary" fill="rgb(197,156,244)" fill-opacity="1" d=" M0,-176.5 C97.47799682617188,-176.5 176.5,-97.47799682617188 176.5,0 C176.5,97.47799682617188 97.47799682617188,176.5 0,176.5 C-43.948001861572266,176.5 -74.39600372314453,142.4429931640625 -105.29000091552734,115.86900329589844 C-142.92100524902344,83.5 -176.5,53.53099822998047 -176.5,0 C-176.5,-97.47799682617188 -97.47799682617188,-176.5 0,-176.5z"/></g></g></g></g><g clip-path="url(#__lottie_element_3839)" transform="matrix(1,0,0,1,0,0)" opacity="1" style="display: block;"><g mask="url(#__lottie_element_3846_1)" style="display: block;"><g filter="url(#__lottie_element_3845)" transform="matrix(-0.15531422197818756,-2.3949692249298096,2.3949692249298096,-0.15531422197818756,271.9410095214844,220.4600067138672)" opacity="1"><g class="design" opacity="1" transform="matrix(1,0,0,1,0,0)"><path class="primary" fill="rgb(35,35,35)" fill-opacity="1" d=" M0,-250 C137.97500610351562,-250 250,-137.97500610351562 250,0 C250,137.97500610351562 137.97500610351562,250 0,250 C-137.97500610351562,250 -250,137.97500610351562 -250,0 C-250,-137.97500610351562 -137.97500610351562,-250 0,-250z"/></g><g class="design" opacity="1" transform="matrix(1,0,0,1,113.24199676513672,-118.88400268554688)"><path class="secondary" fill="rgb(197,156,244)" fill-opacity="1" d=" M0,-176.5 C97.47799682617188,-176.5 176.5,-97.47799682617188 176.5,0 C176.5,97.47799682617188 97.47799682617188,176.5 0,176.5 C-43.948001861572266,176.5 -74.39600372314453,142.4429931640625 -105.29000091552734,115.86900329589844 C-142.92100524902344,83.5 -176.5,53.53099822998047 -176.5,0 C-176.5,-97.47799682617188 -97.47799682617188,-176.5 0,-176.5z"/></g></g></g></g><g clip-path="url(#__lottie_element_4247)" transform="matrix(1,0,0,1,0,0)" opacity="1" style="display: none;"><g mask="url(#__lottie_element_4273_1)" style="display: block;"><g filter="url(#__lottie_element_4272)" transform="matrix(-0.17429083585739136,-2.393663167953491,2.393663167953491,-0.17429083585739136,271.9410095214844,220.4600067138672)" opacity="1"><g class="design" opacity="1" transform="matrix(1,0,0,1,0,0)"><path class="primary" fill="rgb(35,35,35)" fill-opacity="1" d=" M0,-250 C137.97500610351562,-250 250,-137.97500610351562 250,0 C250,137.97500610351562 137.97500610351562,250 0,250 C-137.97500610351562,250 -250,137.97500610351562 -250,0 C-250,-137.97500610351562 -137.97500610351562,-250 0,-250z"/></g><g class="design" opacity="1" transform="matrix(1,0,0,1,113.24199676513672,-118.88400268554688)"><path class="secondary" fill="rgb(197,156,244)" fill-opacity="1" d=" M0,-176.5 C97.47799682617188,-176.5 176.5,-97.47799682617188 176.5,0 C176.5,97.47799682617188 97.47799682617188,176.5 0,176.5 C-43.948001861572266,176.5 -74.39600372314453,142.4429931640625 -105.29000091552734,115.86900329589844 C-142.92100524902344,83.5 -176.5,53.53099822998047 -176.5,0 C-176.5,-97.47799682617188 -97.47799682617188,-176.5 0,-176.5z"/></g></g></g></g></g></svg>