<svg xmlns="http://www.w3.org/2000/svg" xmlns:xlink="http://www.w3.org/1999/xlink" viewBox="0 0 430 430" width="430" height="430" preserveAspectRatio="xMidYMid meet" style="width: 100%; height: 100%; transform: translate3d(0px, 0px, 0px); content-visibility: visible;"><defs><clipPath id="__lottie_element_1385"><rect width="430" height="430" x="0" y="0"/></clipPath><clipPath id="__lottie_element_1387"><path d="M0,0 L430,0 L430,430 L0,430z"/></clipPath><filter id="__lottie_element_1393" x="-100%" y="-100%" width="300%" height="300%"><feGaussianBlur result="filter_result_0" stdDeviation="52.5 52.5" edgeMode="wrap"/></filter><g id="__lottie_element_1394"><g clip-path="url(#__lottie_element_1395)" transform="matrix(1,0,0,1,0,0)" opacity="1" style="display: block;"><g transform="matrix(1,0,0,1,215.00100708007812,337.3710021972656)" opacity="1" style="display: block;"><g opacity="1" transform="matrix(1,0,0,1,0,0)"><path stroke-linecap="round" stroke-linejoin="round" fill-opacity="0" class="primary" stroke="rgb(18,19,49)" stroke-opacity="1" stroke-width="12" d=" M0,-61.47700119018555 C0,-61.47700119018555 0,61.47700119018555 0,61.47700119018555"/></g></g><g transform="matrix(1,0,0,1,215.00100708007812,168.31800842285156)" opacity="1" style="display: block;"><g opacity="1" transform="matrix(1,0,0,1,0,0)"><path stroke-linecap="round" stroke-linejoin="round" fill-opacity="0" class="primary" stroke="rgb(18,19,49)" stroke-opacity="1" stroke-width="12" d=" M0,-20.81100082397461 C0,-20.81100082397461 0,21.56100082397461 0,21.56100082397461"/></g></g><g transform="matrix(1,0,0,1,215.00100708007812,45.3699951171875)" opacity="1" style="display: block;"><g opacity="1" transform="matrix(1,0,0,1,0,0)"><path stroke-linecap="round" stroke-linejoin="round" fill-opacity="0" class="primary" stroke="rgb(18,19,49)" stroke-opacity="1" stroke-width="12" d=" M0,-15.371000289916992 C0,-15.371000289916992 0,13.621000289916992 0,13.621000289916992"/></g></g><g transform="matrix(1,0,0,1,191.07901000976562,232.88699340820312)" opacity="1" style="display: block;"><g opacity="1" transform="matrix(1,0,0,1,0,0)"><path stroke-linecap="round" stroke-linejoin="round" fill-opacity="0" class="secondary" stroke="rgb(8,168,138)" stroke-opacity="1" stroke-width="12" d=" M-15.23799991607666,0 C-15.23799991607666,0 -52.106998443603516,0 -52.106998443603516,0 M98.72000122070312,0 C98.72000122070312,0 19.315000534057617,0 19.315000534057617,0 M-92.31600189208984,43.007999420166016 C-92.31600189208984,43.007999420166016 -139.83900451660156,0 -139.83900451660156,0 C-139.83900451660156,0 -92.31600189208984,-43.007999420166016 -92.31600189208984,-43.007999420166016 C-92.31600189208984,-43.007999420166016 139.83900451660156,-43.007999420166016 139.83900451660156,-43.007999420166016 C139.83900451660156,-43.007999420166016 139.83900451660156,43.007999420166016 139.83900451660156,43.007999420166016 C139.83900451660156,43.007999420166016 -92.31600189208984,43.007999420166016 -92.31600189208984,43.007999420166016z"/></g></g><g transform="matrix(1,0,0,1,238.99900817871094,103.74800109863281)" opacity="1" style="display: block;"><g opacity="1" transform="matrix(1,0,0,1,0,0)"><path stroke-linecap="round" stroke-linejoin="round" fill-opacity="0" class="secondary" stroke="rgb(8,168,138)" stroke-opacity="1" stroke-width="12" d=" M92.31600189208984,43.007999420166016 C92.31600189208984,43.007999420166016 139.83799743652344,-0.012000000104308128 139.83799743652344,-0.012000000104308128 C139.83799743652344,-0.012000000104308128 92.31600189208984,-43.007999420166016 92.31600189208984,-43.007999420166016 C92.31600189208984,-43.007999420166016 -139.83799743652344,-43.007999420166016 -139.83799743652344,-43.007999420166016 C-139.83799743652344,-43.007999420166016 -139.83799743652344,43.007999420166016 -139.83799743652344,43.007999420166016 C-139.83799743652344,43.007999420166016 92.31600189208984,43.007999420166016 92.31600189208984,43.007999420166016z"/></g><g opacity="1" transform="matrix(1,0,0,1,0,0)"><path stroke-linecap="round" stroke-linejoin="round" fill-opacity="0" class="secondary" stroke="rgb(8,168,138)" stroke-opacity="1" stroke-width="12" d=" M50.875,0 C50.875,0 -101.18399810791016,0 -101.18399810791016,0"/></g></g><g transform="matrix(1,0,0,1,215.08299255371094,400)" opacity="1" style="display: block;"><g opacity="1" transform="matrix(1,0,0,1,0,0)"><path stroke-linecap="round" stroke-linejoin="round" fill-opacity="0" class="primary" stroke="rgb(18,19,49)" stroke-opacity="1" stroke-width="12" d=" M-23.05299949645996,0 C-23.05299949645996,0 23.05299949645996,0 23.05299949645996,0"/></g></g></g></g><clipPath id="__lottie_element_1395"><path d="M0,0 L430,0 L430,430 L0,430z"/></clipPath><mask id="__lottie_element_1394_1" mask-type="alpha"><use xmlns:ns1="http://www.w3.org/1999/xlink" ns1:href="#__lottie_element_1394"/></mask></defs><g clip-path="url(#__lottie_element_1385)"><g clip-path="url(#__lottie_element_1387)" transform="matrix(1,0,0,1,0,0)" opacity="1" style="display: block;"><g mask="url(#__lottie_element_1394_1)" style="display: block;"><g filter="url(#__lottie_element_1393)" transform="matrix(-1.1498230695724487,-2.1066341400146484,2.1066341400146484,-1.1498230695724487,271.9410095214844,220.4600067138672)" opacity="1"><g class="design" opacity="1" transform="matrix(1,0,0,1,0,0)"><path class="primary" fill="rgb(162,156,244)" fill-opacity="1" d=" M0,-250 C137.97500610351562,-250 250,-137.97500610351562 250,0 C250,137.97500610351562 137.97500610351562,250 0,250 C-137.97500610351562,250 -250,137.97500610351562 -250,0 C-250,-137.97500610351562 -137.97500610351562,-250 0,-250z"/></g><g class="design" opacity="1" transform="matrix(1,0,0,1,113.24199676513672,-118.88400268554688)"><path class="secondary" fill="rgb(35,35,35)" fill-opacity="1" d=" M0,-176.5 C97.47799682617188,-176.5 176.5,-97.47799682617188 176.5,0 C176.5,97.47799682617188 97.47799682617188,176.5 0,176.5 C-43.948001861572266,176.5 -74.39600372314453,142.4429931640625 -105.29000091552734,115.86900329589844 C-142.92100524902344,83.5 -176.5,53.53099822998047 -176.5,0 C-176.5,-97.47799682617188 -97.47799682617188,-176.5 0,-176.5z"/></g></g></g></g></g></svg>