<svg xmlns="http://www.w3.org/2000/svg" xmlns:xlink="http://www.w3.org/1999/xlink" viewBox="0 0 430 430" width="430" height="430" preserveAspectRatio="xMidYMid meet" style="width: 100%; height: 100%; transform: translate3d(0px, 0px, 0px); content-visibility: visible;"><defs><clipPath id="__lottie_element_2470"><rect width="430" height="430" x="0" y="0"/></clipPath><clipPath id="__lottie_element_2472"><path d="M0,0 L430,0 L430,430 L0,430z"/></clipPath><filter id="__lottie_element_2478" x="-100%" y="-100%" width="300%" height="300%"><feGaussianBlur result="filter_result_0" stdDeviation="52.5 52.5" edgeMode="wrap"/></filter><g id="__lottie_element_2479"><g clip-path="url(#__lottie_element_2480)" transform="matrix(1,0,0,1,0,0)" opacity="1" style="display: block;"><g transform="matrix(-4,0.0009428909979760647,-0.0009428909979760647,-4,215,215)" opacity="1" style="display: block;"><path stroke-linecap="round" stroke-linejoin="round" fill-opacity="0" class="primary" stroke="rgb(18,19,49)" stroke-opacity="1" stroke-width="3.15" d=" M0,-45 C24.835500717163086,-45 45,-24.835500717163086 45,0 C45,24.835500717163086 24.835500717163086,45 0,45 C-24.835500717163086,45 -45,24.835500717163086 -45,0 C-45,-24.835500717163086 -24.835500717163086,-45 0,-45z M0,-36.58300018310547 C0,-36.58300018310547 0,-44.25 0,-44.25 M-36.58,0 C-36.58,0 -44.25,0 -44.25,0 M0,36.58 C0,36.58 0,44.25 0,44.25 M36.58,0 C36.58,0 44.25,0 44.25,0"/><g opacity="1" transform="matrix(1,0,0,1,0,0)"/><g opacity="1" transform="matrix(1,0,0,1,0,0)"/><g opacity="1" transform="matrix(0,-1,1,0,0,0)"/><g opacity="1" transform="matrix(-1,0,0,-1,0,0)"/><g opacity="1" transform="matrix(0,1,-1,0,0,0)"/></g><g transform="matrix(0,4,-4,0,215,215)" opacity="1" style="display: block;"><path stroke-linecap="round" stroke-linejoin="round" fill-opacity="0" class="secondary" stroke="rgb(8,168,138)" stroke-opacity="1" stroke-width="3.15" d=" M0,0 C0,0 0,-11.875 0,-11.875 M0,0 C0,0 -11.87,0 -11.87,0 M0,0 C0,0 0,11.88 0,11.88 M0,0 C0,0 11.88,0 11.88,0"/><g opacity="1" transform="matrix(1,0,0,1,0,0)"/><g opacity="1" transform="matrix(0,-1,1,0,0,0)"/><g opacity="1" transform="matrix(-1,0,0,-1,0,0)"/><g opacity="1" transform="matrix(0,1,-1,0,0,0)"/></g></g></g><clipPath id="__lottie_element_2480"><path d="M0,0 L430,0 L430,430 L0,430z"/></clipPath><mask id="__lottie_element_2479_1" mask-type="alpha"><use xmlns:ns1="http://www.w3.org/1999/xlink" ns1:href="#__lottie_element_2479"/></mask></defs><g clip-path="url(#__lottie_element_2470)"><g clip-path="url(#__lottie_element_2472)" transform="matrix(1,0,0,1,0,0)" opacity="1" style="display: block;"><g mask="url(#__lottie_element_2479_1)" style="display: block;"><g filter="url(#__lottie_element_2478)" transform="matrix(-0.1815786361694336,-2.3931212425231934,2.3931212425231934,-0.1815786361694336,271.9410095214844,220.4600067138672)" opacity="1"><g class="design" opacity="1" transform="matrix(1,0,0,1,0,0)"><path class="primary" fill="rgb(156,228,244)" fill-opacity="1" d=" M0,-250 C137.97500610351562,-250 250,-137.97500610351562 250,0 C250,137.97500610351562 137.97500610351562,250 0,250 C-137.97500610351562,250 -250,137.97500610351562 -250,0 C-250,-137.97500610351562 -137.97500610351562,-250 0,-250z"/></g><g class="design" opacity="1" transform="matrix(1,0,0,1,113.24199676513672,-118.88400268554688)"><path class="secondary" fill="rgb(227,227,227)" fill-opacity="1" d=" M0,-176.5 C97.47799682617188,-176.5 176.5,-97.47799682617188 176.5,0 C176.5,97.47799682617188 97.47799682617188,176.5 0,176.5 C-43.948001861572266,176.5 -74.39600372314453,142.4429931640625 -105.29000091552734,115.86900329589844 C-142.92100524902344,83.5 -176.5,53.53099822998047 -176.5,0 C-176.5,-97.47799682617188 -97.47799682617188,-176.5 0,-176.5z"/></g></g></g></g></g></svg>