<?xml version="1.0" encoding="utf-8"?>
<svg viewBox="257.945 206.6045 28.004 28.0307" width="28.004" height="28.031" xmlns="http://www.w3.org/2000/svg">
  <g>
    <path d="M 282.948 226.76 L 282.948 221.62 C 282.948 220.515 282.052 219.62 280.948 219.62 L 272.948 219.62 L 272.948 214.48 C 275.929 213.71 276.959 210.002 274.802 207.804 C 272.645 205.607 268.918 206.57 268.094 209.537 C 267.495 211.693 268.781 213.921 270.948 214.48 L 270.948 219.62 L 262.948 219.62 C 261.843 219.62 260.948 220.515 260.948 221.62 L 260.948 226.76 C 257.966 227.53 256.936 231.238 259.094 233.435 C 261.251 235.633 264.978 234.67 265.802 231.703 C 266.401 229.547 265.114 227.319 262.948 226.76 L 262.948 221.62 L 280.948 221.62 L 280.948 226.76 C 277.966 227.53 276.936 231.238 279.094 233.435 C 281.251 235.633 284.978 234.67 285.802 231.703 C 286.401 229.547 285.114 227.319 282.948 226.76 M 263.948 230.62 C 263.948 232.16 262.281 233.122 260.948 232.352 C 259.615 231.582 259.615 229.658 260.948 228.888 C 261.252 228.712 261.597 228.62 261.948 228.62 C 263.052 228.62 263.948 229.515 263.948 230.62 M 269.948 210.62 C 269.948 209.08 271.615 208.118 272.948 208.888 C 274.281 209.658 274.281 211.582 272.948 212.352 C 272.644 212.528 272.299 212.62 271.948 212.62 C 270.843 212.62 269.948 211.725 269.948 210.62 M 281.948 232.62 C 280.408 232.62 279.446 230.953 280.216 229.62 C 280.986 228.287 282.91 228.287 283.68 229.62 C 283.855 229.924 283.948 230.269 283.948 230.62 C 283.948 231.725 283.052 232.62 281.948 232.62" style="fill: rgba(0, 0, 0, 0.8);"/>
    <ellipse style="fill: rgb(43, 53, 226); stroke: rgb(50, 0, 255);" cx="281.902" cy="230.629" rx="2.136" ry="2.152"/>
  </g>
</svg>