<svg width="229" height="60" viewBox="0 0 229 60" fill="none" xmlns="http://www.w3.org/2000/svg">
<path d="M76.94 42.44H88.04L82.64 26.72H82.52L76.94 42.44ZM77.84 16.16H87.5L103.52 59H93.74L90.5 49.46H74.48L71.12 59H61.64L77.84 16.16ZM106.554 16.16H115.074V59H106.554V16.16ZM132.583 27.98H138.823V33.68H132.583V49.04C132.583 50.48 132.823 51.44 133.303 51.92C133.783 52.4 134.743 52.64 136.183 52.64C136.663 52.64 137.123 52.62 137.563 52.58C138.003 52.54 138.423 52.48 138.823 52.4V59C138.103 59.12 137.303 59.2 136.423 59.24C135.543 59.28 134.683 59.3 133.843 59.3C132.523 59.3 131.263 59.2 130.063 59C128.903 58.84 127.863 58.5 126.943 57.98C126.063 57.46 125.363 56.72 124.843 55.76C124.323 54.8 124.063 53.54 124.063 51.98V33.68H118.903V27.98H124.063V18.68H132.583V27.98ZM142.517 37.52C142.637 35.52 143.137 33.86 144.017 32.54C144.897 31.22 146.017 30.16 147.377 29.36C148.737 28.56 150.257 28 151.937 27.68C153.657 27.32 155.377 27.14 157.097 27.14C158.657 27.14 160.237 27.26 161.837 27.5C163.437 27.7 164.897 28.12 166.217 28.76C167.537 29.4 168.617 30.3 169.457 31.46C170.297 32.58 170.717 34.08 170.717 35.96V52.1C170.717 53.5 170.797 54.84 170.957 56.12C171.117 57.4 171.397 58.36 171.797 59H163.157C162.997 58.52 162.857 58.04 162.737 57.56C162.657 57.04 162.597 56.52 162.557 56C161.197 57.4 159.597 58.38 157.757 58.94C155.917 59.5 154.037 59.78 152.117 59.78C150.637 59.78 149.257 59.6 147.977 59.24C146.697 58.88 145.577 58.32 144.617 57.56C143.657 56.8 142.897 55.84 142.337 54.68C141.817 53.52 141.557 52.14 141.557 50.54C141.557 48.78 141.857 47.34 142.457 46.22C143.097 45.06 143.897 44.14 144.857 43.46C145.857 42.78 146.977 42.28 148.217 41.96C149.497 41.6 150.777 41.32 152.057 41.12C153.337 40.92 154.597 40.76 155.837 40.64C157.077 40.52 158.177 40.34 159.137 40.1C160.097 39.86 160.857 39.52 161.417 39.08C161.977 38.6 162.237 37.92 162.197 37.04C162.197 36.12 162.037 35.4 161.717 34.88C161.437 34.32 161.037 33.9 160.517 33.62C160.037 33.3 159.457 33.1 158.777 33.02C158.137 32.9 157.437 32.84 156.677 32.84C154.997 32.84 153.677 33.2 152.717 33.92C151.757 34.64 151.197 35.84 151.037 37.52H142.517ZM162.197 43.82C161.837 44.14 161.377 44.4 160.817 44.6C160.297 44.76 159.717 44.9 159.077 45.02C158.477 45.14 157.837 45.24 157.157 45.32C156.477 45.4 155.797 45.5 155.117 45.62C154.477 45.74 153.837 45.9 153.197 46.1C152.597 46.3 152.057 46.58 151.577 46.94C151.137 47.26 150.777 47.68 150.497 48.2C150.217 48.72 150.077 49.38 150.077 50.18C150.077 50.94 150.217 51.58 150.497 52.1C150.777 52.62 151.157 53.04 151.637 53.36C152.117 53.64 152.677 53.84 153.317 53.96C153.957 54.08 154.617 54.14 155.297 54.14C156.977 54.14 158.277 53.86 159.197 53.3C160.117 52.74 160.797 52.08 161.237 51.32C161.677 50.52 161.937 49.72 162.017 48.92C162.137 48.12 162.197 47.48 162.197 47V43.82ZM177.33 27.98H185.43V32.3H185.61C186.69 30.5 188.09 29.2 189.81 28.4C191.53 27.56 193.29 27.14 195.09 27.14C197.37 27.14 199.23 27.46 200.67 28.1C202.15 28.7 203.31 29.56 204.15 30.68C204.99 31.76 205.57 33.1 205.89 34.7C206.25 36.26 206.43 38 206.43 39.92V59H197.91V41.48C197.91 38.92 197.51 37.02 196.71 35.78C195.91 34.5 194.49 33.86 192.45 33.86C190.13 33.86 188.45 34.56 187.41 35.96C186.37 37.32 185.85 39.58 185.85 42.74V59H177.33V27.98Z" fill="black"/>
<path d="M52.001 59.001C46.389 55.9214 36.8383 53.8936 26 53.8936C15.162 53.8936 5.61202 55.9216 0 59.001L26 13L52.001 59.001Z" fill="black"/>
</svg>
